<?xml version="1.0" encoding="utf-8" standalone="no"?>
<!DOCTYPE svg PUBLIC "-//W3C//DTD SVG 1.1//EN"
  "http://www.w3.org/Graphics/SVG/1.1/DTD/svg11.dtd">
<svg xmlns:xlink="http://www.w3.org/1999/xlink" width="563.65625pt" height="747.933875pt" viewBox="0 0 563.65625 747.933875" xmlns="http://www.w3.org/2000/svg" version="1.1">
 <metadata>
  <rdf:RDF xmlns:dc="http://purl.org/dc/elements/1.1/" xmlns:cc="http://creativecommons.org/ns#" xmlns:rdf="http://www.w3.org/1999/02/22-rdf-syntax-ns#">
   <cc:Work>
    <dc:type rdf:resource="http://purl.org/dc/dcmitype/StillImage"/>
    <dc:date>2025-04-01T18:01:18.588464</dc:date>
    <dc:format>image/svg+xml</dc:format>
    <dc:creator>
     <cc:Agent>
      <dc:title>Matplotlib v3.10.1, https://matplotlib.org/</dc:title>
     </cc:Agent>
    </dc:creator>
   </cc:Work>
  </rdf:RDF>
 </metadata>
 <defs>
  <style type="text/css">*{stroke-linejoin: round; stroke-linecap: butt}</style>
 </defs>
 <g id="figure_1">
  <g id="patch_1">
   <path d="M 0 747.933875 
L 563.65625 747.933875 
L 563.65625 0 
L 0 0 
z
" style="fill: #ffffff"/>
  </g>
  <g id="axes_1">
   <g id="patch_2">
    <path d="M 87.15125 332.012625 
L 533.55125 332.012625 
L 533.55125 29.612625 
L 87.15125 29.612625 
z
" style="fill: #ffffff"/>
   </g>
   <g id="matplotlib.axis_1">
    <g id="xtick_1">
     <g id="line2d_1">
      <path d="M 87.15125 332.012625 
L 87.15125 29.612625 
" clip-path="url(#pfe6d953acf)" style="fill: none; stroke: #b0b0b0; stroke-opacity: 0.3; stroke-width: 0.8; stroke-linecap: square"/>
     </g>
     <g id="line2d_2">
      <defs>
       <path id="m24d153f3df" d="M 0 0 
L 0 3.5 
" style="stroke: #000000; stroke-width: 0.8"/>
      </defs>
      <g>
       <use xlink:href="#m24d153f3df" x="87.15125" y="332.012625" style="stroke: #000000; stroke-width: 0.8"/>
      </g>
     </g>
     <g id="text_1">
      <!-- 0 -->
      <g transform="translate(81.425 352.689813) scale(0.18 -0.18)">
       <defs>
        <path id="DejaVuSans-30" d="M 2034 4250 
Q 1547 4250 1301 3770 
Q 1056 3291 1056 2328 
Q 1056 1369 1301 889 
Q 1547 409 2034 409 
Q 2525 409 2770 889 
Q 3016 1369 3016 2328 
Q 3016 3291 2770 3770 
Q 2525 4250 2034 4250 
z
M 2034 4750 
Q 2819 4750 3233 4129 
Q 3647 3509 3647 2328 
Q 3647 1150 3233 529 
Q 2819 -91 2034 -91 
Q 1250 -91 836 529 
Q 422 1150 422 2328 
Q 422 3509 836 4129 
Q 1250 4750 2034 4750 
z
" transform="scale(0.015625)"/>
       </defs>
       <use xlink:href="#DejaVuSans-30"/>
      </g>
     </g>
    </g>
    <g id="xtick_2">
     <g id="line2d_3">
      <path d="M 176.43125 332.012625 
L 176.43125 29.612625 
" clip-path="url(#pfe6d953acf)" style="fill: none; stroke: #b0b0b0; stroke-opacity: 0.3; stroke-width: 0.8; stroke-linecap: square"/>
     </g>
     <g id="line2d_4">
      <g>
       <use xlink:href="#m24d153f3df" x="176.43125" y="332.012625" style="stroke: #000000; stroke-width: 0.8"/>
      </g>
     </g>
     <g id="text_2">
      <!-- 200 -->
      <g transform="translate(159.2525 352.689813) scale(0.18 -0.18)">
       <defs>
        <path id="DejaVuSans-32" d="M 1228 531 
L 3431 531 
L 3431 0 
L 469 0 
L 469 531 
Q 828 903 1448 1529 
Q 2069 2156 2228 2338 
Q 2531 2678 2651 2914 
Q 2772 3150 2772 3378 
Q 2772 3750 2511 3984 
Q 2250 4219 1831 4219 
Q 1534 4219 1204 4116 
Q 875 4013 500 3803 
L 500 4441 
Q 881 4594 1212 4672 
Q 1544 4750 1819 4750 
Q 2544 4750 2975 4387 
Q 3406 4025 3406 3419 
Q 3406 3131 3298 2873 
Q 3191 2616 2906 2266 
Q 2828 2175 2409 1742 
Q 1991 1309 1228 531 
z
" transform="scale(0.015625)"/>
       </defs>
       <use xlink:href="#DejaVuSans-32"/>
       <use xlink:href="#DejaVuSans-30" transform="translate(63.623047 0)"/>
       <use xlink:href="#DejaVuSans-30" transform="translate(127.246094 0)"/>
      </g>
     </g>
    </g>
    <g id="xtick_3">
     <g id="line2d_5">
      <path d="M 265.71125 332.012625 
L 265.71125 29.612625 
" clip-path="url(#pfe6d953acf)" style="fill: none; stroke: #b0b0b0; stroke-opacity: 0.3; stroke-width: 0.8; stroke-linecap: square"/>
     </g>
     <g id="line2d_6">
      <g>
       <use xlink:href="#m24d153f3df" x="265.71125" y="332.012625" style="stroke: #000000; stroke-width: 0.8"/>
      </g>
     </g>
     <g id="text_3">
      <!-- 400 -->
      <g transform="translate(248.5325 352.689813) scale(0.18 -0.18)">
       <defs>
        <path id="DejaVuSans-34" d="M 2419 4116 
L 825 1625 
L 2419 1625 
L 2419 4116 
z
M 2253 4666 
L 3047 4666 
L 3047 1625 
L 3713 1625 
L 3713 1100 
L 3047 1100 
L 3047 0 
L 2419 0 
L 2419 1100 
L 313 1100 
L 313 1709 
L 2253 4666 
z
" transform="scale(0.015625)"/>
       </defs>
       <use xlink:href="#DejaVuSans-34"/>
       <use xlink:href="#DejaVuSans-30" transform="translate(63.623047 0)"/>
       <use xlink:href="#DejaVuSans-30" transform="translate(127.246094 0)"/>
      </g>
     </g>
    </g>
    <g id="xtick_4">
     <g id="line2d_7">
      <path d="M 354.99125 332.012625 
L 354.99125 29.612625 
" clip-path="url(#pfe6d953acf)" style="fill: none; stroke: #b0b0b0; stroke-opacity: 0.3; stroke-width: 0.8; stroke-linecap: square"/>
     </g>
     <g id="line2d_8">
      <g>
       <use xlink:href="#m24d153f3df" x="354.99125" y="332.012625" style="stroke: #000000; stroke-width: 0.8"/>
      </g>
     </g>
     <g id="text_4">
      <!-- 600 -->
      <g transform="translate(337.8125 352.689813) scale(0.18 -0.18)">
       <defs>
        <path id="DejaVuSans-36" d="M 2113 2584 
Q 1688 2584 1439 2293 
Q 1191 2003 1191 1497 
Q 1191 994 1439 701 
Q 1688 409 2113 409 
Q 2538 409 2786 701 
Q 3034 994 3034 1497 
Q 3034 2003 2786 2293 
Q 2538 2584 2113 2584 
z
M 3366 4563 
L 3366 3988 
Q 3128 4100 2886 4159 
Q 2644 4219 2406 4219 
Q 1781 4219 1451 3797 
Q 1122 3375 1075 2522 
Q 1259 2794 1537 2939 
Q 1816 3084 2150 3084 
Q 2853 3084 3261 2657 
Q 3669 2231 3669 1497 
Q 3669 778 3244 343 
Q 2819 -91 2113 -91 
Q 1303 -91 875 529 
Q 447 1150 447 2328 
Q 447 3434 972 4092 
Q 1497 4750 2381 4750 
Q 2619 4750 2861 4703 
Q 3103 4656 3366 4563 
z
" transform="scale(0.015625)"/>
       </defs>
       <use xlink:href="#DejaVuSans-36"/>
       <use xlink:href="#DejaVuSans-30" transform="translate(63.623047 0)"/>
       <use xlink:href="#DejaVuSans-30" transform="translate(127.246094 0)"/>
      </g>
     </g>
    </g>
    <g id="xtick_5">
     <g id="line2d_9">
      <path d="M 444.27125 332.012625 
L 444.27125 29.612625 
" clip-path="url(#pfe6d953acf)" style="fill: none; stroke: #b0b0b0; stroke-opacity: 0.3; stroke-width: 0.8; stroke-linecap: square"/>
     </g>
     <g id="line2d_10">
      <g>
       <use xlink:href="#m24d153f3df" x="444.27125" y="332.012625" style="stroke: #000000; stroke-width: 0.8"/>
      </g>
     </g>
     <g id="text_5">
      <!-- 800 -->
      <g transform="translate(427.0925 352.689813) scale(0.18 -0.18)">
       <defs>
        <path id="DejaVuSans-38" d="M 2034 2216 
Q 1584 2216 1326 1975 
Q 1069 1734 1069 1313 
Q 1069 891 1326 650 
Q 1584 409 2034 409 
Q 2484 409 2743 651 
Q 3003 894 3003 1313 
Q 3003 1734 2745 1975 
Q 2488 2216 2034 2216 
z
M 1403 2484 
Q 997 2584 770 2862 
Q 544 3141 544 3541 
Q 544 4100 942 4425 
Q 1341 4750 2034 4750 
Q 2731 4750 3128 4425 
Q 3525 4100 3525 3541 
Q 3525 3141 3298 2862 
Q 3072 2584 2669 2484 
Q 3125 2378 3379 2068 
Q 3634 1759 3634 1313 
Q 3634 634 3220 271 
Q 2806 -91 2034 -91 
Q 1263 -91 848 271 
Q 434 634 434 1313 
Q 434 1759 690 2068 
Q 947 2378 1403 2484 
z
M 1172 3481 
Q 1172 3119 1398 2916 
Q 1625 2713 2034 2713 
Q 2441 2713 2670 2916 
Q 2900 3119 2900 3481 
Q 2900 3844 2670 4047 
Q 2441 4250 2034 4250 
Q 1625 4250 1398 4047 
Q 1172 3844 1172 3481 
z
" transform="scale(0.015625)"/>
       </defs>
       <use xlink:href="#DejaVuSans-38"/>
       <use xlink:href="#DejaVuSans-30" transform="translate(63.623047 0)"/>
       <use xlink:href="#DejaVuSans-30" transform="translate(127.246094 0)"/>
      </g>
     </g>
    </g>
    <g id="xtick_6">
     <g id="line2d_11">
      <path d="M 533.55125 332.012625 
L 533.55125 29.612625 
" clip-path="url(#pfe6d953acf)" style="fill: none; stroke: #b0b0b0; stroke-opacity: 0.3; stroke-width: 0.8; stroke-linecap: square"/>
     </g>
     <g id="line2d_12">
      <g>
       <use xlink:href="#m24d153f3df" x="533.55125" y="332.012625" style="stroke: #000000; stroke-width: 0.8"/>
      </g>
     </g>
     <g id="text_6">
      <!-- 1000 -->
      <g transform="translate(510.64625 352.689813) scale(0.18 -0.18)">
       <defs>
        <path id="DejaVuSans-31" d="M 794 531 
L 1825 531 
L 1825 4091 
L 703 3866 
L 703 4441 
L 1819 4666 
L 2450 4666 
L 2450 531 
L 3481 531 
L 3481 0 
L 794 0 
L 794 531 
z
" transform="scale(0.015625)"/>
       </defs>
       <use xlink:href="#DejaVuSans-31"/>
       <use xlink:href="#DejaVuSans-30" transform="translate(63.623047 0)"/>
       <use xlink:href="#DejaVuSans-30" transform="translate(127.246094 0)"/>
       <use xlink:href="#DejaVuSans-30" transform="translate(190.869141 0)"/>
      </g>
     </g>
    </g>
   </g>
   <g id="matplotlib.axis_2">
    <g id="ytick_1">
     <g id="line2d_13">
      <path d="M 87.15125 332.012625 
L 533.55125 332.012625 
" clip-path="url(#pfe6d953acf)" style="fill: none; stroke: #b0b0b0; stroke-opacity: 0.3; stroke-width: 0.8; stroke-linecap: square"/>
     </g>
     <g id="line2d_14">
      <defs>
       <path id="m3433478274" d="M 0 0 
L -3.5 0 
" style="stroke: #000000; stroke-width: 0.8"/>
      </defs>
      <g>
       <use xlink:href="#m3433478274" x="87.15125" y="332.012625" style="stroke: #000000; stroke-width: 0.8"/>
      </g>
     </g>
     <g id="text_7">
      <!-- 0.000 -->
      <g transform="translate(28.620625 338.851219) scale(0.18 -0.18)">
       <defs>
        <path id="DejaVuSans-2e" d="M 684 794 
L 1344 794 
L 1344 0 
L 684 0 
L 684 794 
z
" transform="scale(0.015625)"/>
       </defs>
       <use xlink:href="#DejaVuSans-30"/>
       <use xlink:href="#DejaVuSans-2e" transform="translate(63.623047 0)"/>
       <use xlink:href="#DejaVuSans-30" transform="translate(95.410156 0)"/>
       <use xlink:href="#DejaVuSans-30" transform="translate(159.033203 0)"/>
       <use xlink:href="#DejaVuSans-30" transform="translate(222.65625 0)"/>
      </g>
     </g>
    </g>
    <g id="ytick_2">
     <g id="line2d_15">
      <path d="M 87.15125 294.212625 
L 533.55125 294.212625 
" clip-path="url(#pfe6d953acf)" style="fill: none; stroke: #b0b0b0; stroke-opacity: 0.3; stroke-width: 0.8; stroke-linecap: square"/>
     </g>
     <g id="line2d_16">
      <g>
       <use xlink:href="#m3433478274" x="87.15125" y="294.212625" style="stroke: #000000; stroke-width: 0.8"/>
      </g>
     </g>
     <g id="text_8">
      <!-- 0.025 -->
      <g transform="translate(28.620625 301.051219) scale(0.18 -0.18)">
       <defs>
        <path id="DejaVuSans-35" d="M 691 4666 
L 3169 4666 
L 3169 4134 
L 1269 4134 
L 1269 2991 
Q 1406 3038 1543 3061 
Q 1681 3084 1819 3084 
Q 2600 3084 3056 2656 
Q 3513 2228 3513 1497 
Q 3513 744 3044 326 
Q 2575 -91 1722 -91 
Q 1428 -91 1123 -41 
Q 819 9 494 109 
L 494 744 
Q 775 591 1075 516 
Q 1375 441 1709 441 
Q 2250 441 2565 725 
Q 2881 1009 2881 1497 
Q 2881 1984 2565 2268 
Q 2250 2553 1709 2553 
Q 1456 2553 1204 2497 
Q 953 2441 691 2322 
L 691 4666 
z
" transform="scale(0.015625)"/>
       </defs>
       <use xlink:href="#DejaVuSans-30"/>
       <use xlink:href="#DejaVuSans-2e" transform="translate(63.623047 0)"/>
       <use xlink:href="#DejaVuSans-30" transform="translate(95.410156 0)"/>
       <use xlink:href="#DejaVuSans-32" transform="translate(159.033203 0)"/>
       <use xlink:href="#DejaVuSans-35" transform="translate(222.65625 0)"/>
      </g>
     </g>
    </g>
    <g id="ytick_3">
     <g id="line2d_17">
      <path d="M 87.15125 256.412625 
L 533.55125 256.412625 
" clip-path="url(#pfe6d953acf)" style="fill: none; stroke: #b0b0b0; stroke-opacity: 0.3; stroke-width: 0.8; stroke-linecap: square"/>
     </g>
     <g id="line2d_18">
      <g>
       <use xlink:href="#m3433478274" x="87.15125" y="256.412625" style="stroke: #000000; stroke-width: 0.8"/>
      </g>
     </g>
     <g id="text_9">
      <!-- 0.050 -->
      <g transform="translate(28.620625 263.251219) scale(0.18 -0.18)">
       <use xlink:href="#DejaVuSans-30"/>
       <use xlink:href="#DejaVuSans-2e" transform="translate(63.623047 0)"/>
       <use xlink:href="#DejaVuSans-30" transform="translate(95.410156 0)"/>
       <use xlink:href="#DejaVuSans-35" transform="translate(159.033203 0)"/>
       <use xlink:href="#DejaVuSans-30" transform="translate(222.65625 0)"/>
      </g>
     </g>
    </g>
    <g id="ytick_4">
     <g id="line2d_19">
      <path d="M 87.15125 218.612625 
L 533.55125 218.612625 
" clip-path="url(#pfe6d953acf)" style="fill: none; stroke: #b0b0b0; stroke-opacity: 0.3; stroke-width: 0.8; stroke-linecap: square"/>
     </g>
     <g id="line2d_20">
      <g>
       <use xlink:href="#m3433478274" x="87.15125" y="218.612625" style="stroke: #000000; stroke-width: 0.8"/>
      </g>
     </g>
     <g id="text_10">
      <!-- 0.075 -->
      <g transform="translate(28.620625 225.451219) scale(0.18 -0.18)">
       <defs>
        <path id="DejaVuSans-37" d="M 525 4666 
L 3525 4666 
L 3525 4397 
L 1831 0 
L 1172 0 
L 2766 4134 
L 525 4134 
L 525 4666 
z
" transform="scale(0.015625)"/>
       </defs>
       <use xlink:href="#DejaVuSans-30"/>
       <use xlink:href="#DejaVuSans-2e" transform="translate(63.623047 0)"/>
       <use xlink:href="#DejaVuSans-30" transform="translate(95.410156 0)"/>
       <use xlink:href="#DejaVuSans-37" transform="translate(159.033203 0)"/>
       <use xlink:href="#DejaVuSans-35" transform="translate(222.65625 0)"/>
      </g>
     </g>
    </g>
    <g id="ytick_5">
     <g id="line2d_21">
      <path d="M 87.15125 180.812625 
L 533.55125 180.812625 
" clip-path="url(#pfe6d953acf)" style="fill: none; stroke: #b0b0b0; stroke-opacity: 0.3; stroke-width: 0.8; stroke-linecap: square"/>
     </g>
     <g id="line2d_22">
      <g>
       <use xlink:href="#m3433478274" x="87.15125" y="180.812625" style="stroke: #000000; stroke-width: 0.8"/>
      </g>
     </g>
     <g id="text_11">
      <!-- 0.100 -->
      <g transform="translate(28.620625 187.651219) scale(0.18 -0.18)">
       <use xlink:href="#DejaVuSans-30"/>
       <use xlink:href="#DejaVuSans-2e" transform="translate(63.623047 0)"/>
       <use xlink:href="#DejaVuSans-31" transform="translate(95.410156 0)"/>
       <use xlink:href="#DejaVuSans-30" transform="translate(159.033203 0)"/>
       <use xlink:href="#DejaVuSans-30" transform="translate(222.65625 0)"/>
      </g>
     </g>
    </g>
    <g id="ytick_6">
     <g id="line2d_23">
      <path d="M 87.15125 143.012625 
L 533.55125 143.012625 
" clip-path="url(#pfe6d953acf)" style="fill: none; stroke: #b0b0b0; stroke-opacity: 0.3; stroke-width: 0.8; stroke-linecap: square"/>
     </g>
     <g id="line2d_24">
      <g>
       <use xlink:href="#m3433478274" x="87.15125" y="143.012625" style="stroke: #000000; stroke-width: 0.8"/>
      </g>
     </g>
     <g id="text_12">
      <!-- 0.125 -->
      <g transform="translate(28.620625 149.851219) scale(0.18 -0.18)">
       <use xlink:href="#DejaVuSans-30"/>
       <use xlink:href="#DejaVuSans-2e" transform="translate(63.623047 0)"/>
       <use xlink:href="#DejaVuSans-31" transform="translate(95.410156 0)"/>
       <use xlink:href="#DejaVuSans-32" transform="translate(159.033203 0)"/>
       <use xlink:href="#DejaVuSans-35" transform="translate(222.65625 0)"/>
      </g>
     </g>
    </g>
    <g id="ytick_7">
     <g id="line2d_25">
      <path d="M 87.15125 105.212625 
L 533.55125 105.212625 
" clip-path="url(#pfe6d953acf)" style="fill: none; stroke: #b0b0b0; stroke-opacity: 0.3; stroke-width: 0.8; stroke-linecap: square"/>
     </g>
     <g id="line2d_26">
      <g>
       <use xlink:href="#m3433478274" x="87.15125" y="105.212625" style="stroke: #000000; stroke-width: 0.8"/>
      </g>
     </g>
     <g id="text_13">
      <!-- 0.150 -->
      <g transform="translate(28.620625 112.051219) scale(0.18 -0.18)">
       <use xlink:href="#DejaVuSans-30"/>
       <use xlink:href="#DejaVuSans-2e" transform="translate(63.623047 0)"/>
       <use xlink:href="#DejaVuSans-31" transform="translate(95.410156 0)"/>
       <use xlink:href="#DejaVuSans-35" transform="translate(159.033203 0)"/>
       <use xlink:href="#DejaVuSans-30" transform="translate(222.65625 0)"/>
      </g>
     </g>
    </g>
    <g id="ytick_8">
     <g id="line2d_27">
      <path d="M 87.15125 67.412625 
L 533.55125 67.412625 
" clip-path="url(#pfe6d953acf)" style="fill: none; stroke: #b0b0b0; stroke-opacity: 0.3; stroke-width: 0.8; stroke-linecap: square"/>
     </g>
     <g id="line2d_28">
      <g>
       <use xlink:href="#m3433478274" x="87.15125" y="67.412625" style="stroke: #000000; stroke-width: 0.8"/>
      </g>
     </g>
     <g id="text_14">
      <!-- 0.175 -->
      <g transform="translate(28.620625 74.251219) scale(0.18 -0.18)">
       <use xlink:href="#DejaVuSans-30"/>
       <use xlink:href="#DejaVuSans-2e" transform="translate(63.623047 0)"/>
       <use xlink:href="#DejaVuSans-31" transform="translate(95.410156 0)"/>
       <use xlink:href="#DejaVuSans-37" transform="translate(159.033203 0)"/>
       <use xlink:href="#DejaVuSans-35" transform="translate(222.65625 0)"/>
      </g>
     </g>
    </g>
    <g id="ytick_9">
     <g id="line2d_29">
      <path d="M 87.15125 29.612625 
L 533.55125 29.612625 
" clip-path="url(#pfe6d953acf)" style="fill: none; stroke: #b0b0b0; stroke-opacity: 0.3; stroke-width: 0.8; stroke-linecap: square"/>
     </g>
     <g id="line2d_30">
      <g>
       <use xlink:href="#m3433478274" x="87.15125" y="29.612625" style="stroke: #000000; stroke-width: 0.8"/>
      </g>
     </g>
     <g id="text_15">
      <!-- 0.200 -->
      <g transform="translate(28.620625 36.451219) scale(0.18 -0.18)">
       <use xlink:href="#DejaVuSans-30"/>
       <use xlink:href="#DejaVuSans-2e" transform="translate(63.623047 0)"/>
       <use xlink:href="#DejaVuSans-32" transform="translate(95.410156 0)"/>
       <use xlink:href="#DejaVuSans-30" transform="translate(159.033203 0)"/>
       <use xlink:href="#DejaVuSans-30" transform="translate(222.65625 0)"/>
      </g>
     </g>
    </g>
    <g id="text_16">
     <!-- Normalized Frequency -->
     <g transform="translate(20.877187 281.206219) rotate(-90) scale(0.18 -0.18)">
      <defs>
       <path id="DejaVuSans-4e" d="M 628 4666 
L 1478 4666 
L 3547 763 
L 3547 4666 
L 4159 4666 
L 4159 0 
L 3309 0 
L 1241 3903 
L 1241 0 
L 628 0 
L 628 4666 
z
" transform="scale(0.015625)"/>
       <path id="DejaVuSans-6f" d="M 1959 3097 
Q 1497 3097 1228 2736 
Q 959 2375 959 1747 
Q 959 1119 1226 758 
Q 1494 397 1959 397 
Q 2419 397 2687 759 
Q 2956 1122 2956 1747 
Q 2956 2369 2687 2733 
Q 2419 3097 1959 3097 
z
M 1959 3584 
Q 2709 3584 3137 3096 
Q 3566 2609 3566 1747 
Q 3566 888 3137 398 
Q 2709 -91 1959 -91 
Q 1206 -91 779 398 
Q 353 888 353 1747 
Q 353 2609 779 3096 
Q 1206 3584 1959 3584 
z
" transform="scale(0.015625)"/>
       <path id="DejaVuSans-72" d="M 2631 2963 
Q 2534 3019 2420 3045 
Q 2306 3072 2169 3072 
Q 1681 3072 1420 2755 
Q 1159 2438 1159 1844 
L 1159 0 
L 581 0 
L 581 3500 
L 1159 3500 
L 1159 2956 
Q 1341 3275 1631 3429 
Q 1922 3584 2338 3584 
Q 2397 3584 2469 3576 
Q 2541 3569 2628 3553 
L 2631 2963 
z
" transform="scale(0.015625)"/>
       <path id="DejaVuSans-6d" d="M 3328 2828 
Q 3544 3216 3844 3400 
Q 4144 3584 4550 3584 
Q 5097 3584 5394 3201 
Q 5691 2819 5691 2113 
L 5691 0 
L 5113 0 
L 5113 2094 
Q 5113 2597 4934 2840 
Q 4756 3084 4391 3084 
Q 3944 3084 3684 2787 
Q 3425 2491 3425 1978 
L 3425 0 
L 2847 0 
L 2847 2094 
Q 2847 2600 2669 2842 
Q 2491 3084 2119 3084 
Q 1678 3084 1418 2786 
Q 1159 2488 1159 1978 
L 1159 0 
L 581 0 
L 581 3500 
L 1159 3500 
L 1159 2956 
Q 1356 3278 1631 3431 
Q 1906 3584 2284 3584 
Q 2666 3584 2933 3390 
Q 3200 3197 3328 2828 
z
" transform="scale(0.015625)"/>
       <path id="DejaVuSans-61" d="M 2194 1759 
Q 1497 1759 1228 1600 
Q 959 1441 959 1056 
Q 959 750 1161 570 
Q 1363 391 1709 391 
Q 2188 391 2477 730 
Q 2766 1069 2766 1631 
L 2766 1759 
L 2194 1759 
z
M 3341 1997 
L 3341 0 
L 2766 0 
L 2766 531 
Q 2569 213 2275 61 
Q 1981 -91 1556 -91 
Q 1019 -91 701 211 
Q 384 513 384 1019 
Q 384 1609 779 1909 
Q 1175 2209 1959 2209 
L 2766 2209 
L 2766 2266 
Q 2766 2663 2505 2880 
Q 2244 3097 1772 3097 
Q 1472 3097 1187 3025 
Q 903 2953 641 2809 
L 641 3341 
Q 956 3463 1253 3523 
Q 1550 3584 1831 3584 
Q 2591 3584 2966 3190 
Q 3341 2797 3341 1997 
z
" transform="scale(0.015625)"/>
       <path id="DejaVuSans-6c" d="M 603 4863 
L 1178 4863 
L 1178 0 
L 603 0 
L 603 4863 
z
" transform="scale(0.015625)"/>
       <path id="DejaVuSans-69" d="M 603 3500 
L 1178 3500 
L 1178 0 
L 603 0 
L 603 3500 
z
M 603 4863 
L 1178 4863 
L 1178 4134 
L 603 4134 
L 603 4863 
z
" transform="scale(0.015625)"/>
       <path id="DejaVuSans-7a" d="M 353 3500 
L 3084 3500 
L 3084 2975 
L 922 459 
L 3084 459 
L 3084 0 
L 275 0 
L 275 525 
L 2438 3041 
L 353 3041 
L 353 3500 
z
" transform="scale(0.015625)"/>
       <path id="DejaVuSans-65" d="M 3597 1894 
L 3597 1613 
L 953 1613 
Q 991 1019 1311 708 
Q 1631 397 2203 397 
Q 2534 397 2845 478 
Q 3156 559 3463 722 
L 3463 178 
Q 3153 47 2828 -22 
Q 2503 -91 2169 -91 
Q 1331 -91 842 396 
Q 353 884 353 1716 
Q 353 2575 817 3079 
Q 1281 3584 2069 3584 
Q 2775 3584 3186 3129 
Q 3597 2675 3597 1894 
z
M 3022 2063 
Q 3016 2534 2758 2815 
Q 2500 3097 2075 3097 
Q 1594 3097 1305 2825 
Q 1016 2553 972 2059 
L 3022 2063 
z
" transform="scale(0.015625)"/>
       <path id="DejaVuSans-64" d="M 2906 2969 
L 2906 4863 
L 3481 4863 
L 3481 0 
L 2906 0 
L 2906 525 
Q 2725 213 2448 61 
Q 2172 -91 1784 -91 
Q 1150 -91 751 415 
Q 353 922 353 1747 
Q 353 2572 751 3078 
Q 1150 3584 1784 3584 
Q 2172 3584 2448 3432 
Q 2725 3281 2906 2969 
z
M 947 1747 
Q 947 1113 1208 752 
Q 1469 391 1925 391 
Q 2381 391 2643 752 
Q 2906 1113 2906 1747 
Q 2906 2381 2643 2742 
Q 2381 3103 1925 3103 
Q 1469 3103 1208 2742 
Q 947 2381 947 1747 
z
" transform="scale(0.015625)"/>
       <path id="DejaVuSans-20" transform="scale(0.015625)"/>
       <path id="DejaVuSans-46" d="M 628 4666 
L 3309 4666 
L 3309 4134 
L 1259 4134 
L 1259 2759 
L 3109 2759 
L 3109 2228 
L 1259 2228 
L 1259 0 
L 628 0 
L 628 4666 
z
" transform="scale(0.015625)"/>
       <path id="DejaVuSans-71" d="M 947 1747 
Q 947 1113 1208 752 
Q 1469 391 1925 391 
Q 2381 391 2643 752 
Q 2906 1113 2906 1747 
Q 2906 2381 2643 2742 
Q 2381 3103 1925 3103 
Q 1469 3103 1208 2742 
Q 947 2381 947 1747 
z
M 2906 525 
Q 2725 213 2448 61 
Q 2172 -91 1784 -91 
Q 1150 -91 751 415 
Q 353 922 353 1747 
Q 353 2572 751 3078 
Q 1150 3584 1784 3584 
Q 2172 3584 2448 3432 
Q 2725 3281 2906 2969 
L 2906 3500 
L 3481 3500 
L 3481 -1331 
L 2906 -1331 
L 2906 525 
z
" transform="scale(0.015625)"/>
       <path id="DejaVuSans-75" d="M 544 1381 
L 544 3500 
L 1119 3500 
L 1119 1403 
Q 1119 906 1312 657 
Q 1506 409 1894 409 
Q 2359 409 2629 706 
Q 2900 1003 2900 1516 
L 2900 3500 
L 3475 3500 
L 3475 0 
L 2900 0 
L 2900 538 
Q 2691 219 2414 64 
Q 2138 -91 1772 -91 
Q 1169 -91 856 284 
Q 544 659 544 1381 
z
M 1991 3584 
L 1991 3584 
z
" transform="scale(0.015625)"/>
       <path id="DejaVuSans-6e" d="M 3513 2113 
L 3513 0 
L 2938 0 
L 2938 2094 
Q 2938 2591 2744 2837 
Q 2550 3084 2163 3084 
Q 1697 3084 1428 2787 
Q 1159 2491 1159 1978 
L 1159 0 
L 581 0 
L 581 3500 
L 1159 3500 
L 1159 2956 
Q 1366 3272 1645 3428 
Q 1925 3584 2291 3584 
Q 2894 3584 3203 3211 
Q 3513 2838 3513 2113 
z
" transform="scale(0.015625)"/>
       <path id="DejaVuSans-63" d="M 3122 3366 
L 3122 2828 
Q 2878 2963 2633 3030 
Q 2388 3097 2138 3097 
Q 1578 3097 1268 2742 
Q 959 2388 959 1747 
Q 959 1106 1268 751 
Q 1578 397 2138 397 
Q 2388 397 2633 464 
Q 2878 531 3122 666 
L 3122 134 
Q 2881 22 2623 -34 
Q 2366 -91 2075 -91 
Q 1284 -91 818 406 
Q 353 903 353 1747 
Q 353 2603 823 3093 
Q 1294 3584 2113 3584 
Q 2378 3584 2631 3529 
Q 2884 3475 3122 3366 
z
" transform="scale(0.015625)"/>
       <path id="DejaVuSans-79" d="M 2059 -325 
Q 1816 -950 1584 -1140 
Q 1353 -1331 966 -1331 
L 506 -1331 
L 506 -850 
L 844 -850 
Q 1081 -850 1212 -737 
Q 1344 -625 1503 -206 
L 1606 56 
L 191 3500 
L 800 3500 
L 1894 763 
L 2988 3500 
L 3597 3500 
L 2059 -325 
z
" transform="scale(0.015625)"/>
      </defs>
      <use xlink:href="#DejaVuSans-4e"/>
      <use xlink:href="#DejaVuSans-6f" transform="translate(74.804688 0)"/>
      <use xlink:href="#DejaVuSans-72" transform="translate(135.986328 0)"/>
      <use xlink:href="#DejaVuSans-6d" transform="translate(175.349609 0)"/>
      <use xlink:href="#DejaVuSans-61" transform="translate(272.761719 0)"/>
      <use xlink:href="#DejaVuSans-6c" transform="translate(334.041016 0)"/>
      <use xlink:href="#DejaVuSans-69" transform="translate(361.824219 0)"/>
      <use xlink:href="#DejaVuSans-7a" transform="translate(389.607422 0)"/>
      <use xlink:href="#DejaVuSans-65" transform="translate(442.097656 0)"/>
      <use xlink:href="#DejaVuSans-64" transform="translate(503.621094 0)"/>
      <use xlink:href="#DejaVuSans-20" transform="translate(567.097656 0)"/>
      <use xlink:href="#DejaVuSans-46" transform="translate(598.884766 0)"/>
      <use xlink:href="#DejaVuSans-72" transform="translate(649.154297 0)"/>
      <use xlink:href="#DejaVuSans-65" transform="translate(688.017578 0)"/>
      <use xlink:href="#DejaVuSans-71" transform="translate(749.541016 0)"/>
      <use xlink:href="#DejaVuSans-75" transform="translate(813.017578 0)"/>
      <use xlink:href="#DejaVuSans-65" transform="translate(876.396484 0)"/>
      <use xlink:href="#DejaVuSans-6e" transform="translate(937.919922 0)"/>
      <use xlink:href="#DejaVuSans-63" transform="translate(1001.298828 0)"/>
      <use xlink:href="#DejaVuSans-79" transform="translate(1056.279297 0)"/>
     </g>
    </g>
   </g>
   <g id="line2d_31">
    <path d="M 100.198837 313.230757 
L 126.29401 330.676791 
L 152.389188 331.112303 
L 178.484359 331.181557 
L 204.579544 331.205496 
L 230.674708 331.258139 
L 256.769872 331.440683 
L 282.865064 331.635439 
L 308.960228 331.733078 
L 335.055392 331.760593 
L 361.150584 331.782224 
L 387.245748 331.809817 
L 413.340939 331.849395 
L 439.436104 331.892248 
L 465.531268 331.930446 
L 491.626459 331.958558 
L 517.721624 331.979344 
L 543.816788 331.992035 
L 564.65625 331.997429 
" clip-path="url(#pfe6d953acf)" style="fill: none; stroke: #1f77b4; stroke-width: 1.5; stroke-linecap: square"/>
   </g>
   <g id="line2d_32">
    <path d="M 87.68258 43.642594 
L 88.745239 256.429298 
L 89.807899 277.826596 
L 90.870558 289.696861 
L 91.933218 299.01245 
L 92.995878 306.300982 
L 94.058537 311.894431 
L 95.121197 315.673713 
L 96.183856 318.71172 
L 97.246517 320.85521 
L 98.309176 322.572458 
L 99.371835 324.00654 
L 100.434496 325.196504 
L 101.497154 326.271425 
L 102.559815 327.063531 
L 103.622474 327.810848 
L 104.685133 328.575537 
L 105.747792 329.235439 
L 106.810453 329.814264 
L 107.873113 330.310161 
L 108.935772 330.715849 
L 109.998431 331.018514 
L 111.06109 331.26934 
L 112.123751 331.420823 
L 113.18641 331.550298 
L 114.249071 331.628842 
L 115.311729 331.714099 
L 116.374388 331.766091 
L 117.437047 331.819345 
L 118.499706 331.855185 
L 119.562369 331.892639 
L 120.625028 331.920503 
L 121.687687 331.943874 
L 122.750346 331.963762 
L 123.813008 331.979663 
L 124.875667 331.98673 
L 125.938326 331.996169 
L 127.000985 332.000712 
L 128.063644 332.006113 
L 129.126303 332.008032 
L 130.188965 332.008839 
L 131.251624 332.010202 
L 132.314283 332.011111 
L 133.376942 332.011313 
L 134.439601 332.01212 
L 135.502263 332.012322 
L 136.564922 332.012524 
L 137.627581 332.012524 
L 138.69024 332.012575 
L 139.752899 332.012524 
" clip-path="url(#pfe6d953acf)" style="fill: none; stroke: #ff7f0e; stroke-width: 1.5; stroke-linecap: square"/>
   </g>
   <g id="line2d_33">
    <path d="M 87.640547 -1 
L 87.742709 222.356458 
L 88.137016 253.992616 
L 88.531322 253.86447 
L 88.925628 260.238198 
L 89.319935 266.523021 
L 89.714241 277.227064 
L 90.108547 288.136639 
L 90.502854 297.011628 
L 90.89716 303.624997 
L 91.291466 308.903791 
L 91.685772 312.995351 
L 92.080079 316.047231 
L 92.474385 318.12013 
L 92.868691 319.987948 
L 93.262998 321.345541 
L 93.657304 322.431947 
L 94.05161 323.381481 
L 94.445916 324.282328 
L 94.840222 325.114981 
L 95.234529 325.719107 
L 95.628835 326.437718 
L 96.023142 327.023515 
L 96.417447 327.531335 
L 96.811754 328.100905 
L 97.20606 328.67348 
L 97.600367 329.120302 
L 97.994673 329.486293 
L 98.38898 329.827344 
L 98.783285 330.171701 
L 99.177592 330.413141 
L 99.571898 330.615368 
L 99.966205 330.844638 
L 100.36051 330.990674 
L 100.754818 331.132203 
L 101.149123 331.281243 
L 101.54343 331.399184 
L 101.937736 331.522081 
L 102.332041 331.630258 
L 102.726348 331.698918 
L 103.120656 331.781552 
L 103.514961 331.847358 
L 103.909266 331.884769 
L 104.303574 331.927137 
L 104.697881 331.958087 
L 105.092186 331.973862 
L 105.486492 331.989187 
L 105.880799 331.998953 
L 106.275106 332.006165 
L 106.669412 332.010822 
" clip-path="url(#pfe6d953acf)" style="fill: none; stroke: #2ca02c; stroke-width: 1.5; stroke-linecap: square"/>
   </g>
   <g id="line2d_34">
    <path d="M 97.581379 307.169018 
L 118.441638 331.052966 
L 139.301895 331.038215 
L 160.162158 330.952818 
L 181.022408 331.289523 
L 201.882671 331.276541 
L 222.742934 331.368178 
L 243.603184 331.536174 
L 264.463447 331.656399 
L 285.323697 331.725857 
L 306.18396 331.785575 
L 327.044223 331.836115 
L 347.904487 331.866359 
L 368.76475 331.882753 
L 389.624986 331.895652 
L 410.485249 331.906594 
L 431.345512 331.918793 
L 452.205776 331.929483 
L 473.066012 331.947204 
L 493.926275 331.969453 
L 514.786538 331.982478 
L 535.646802 331.988617 
L 556.507065 331.998069 
L 564.65625 332.000248 
" clip-path="url(#pfe6d953acf)" style="fill: none; stroke: #d62728; stroke-width: 1.5; stroke-linecap: square"/>
   </g>
   <g id="line2d_35">
    <path d="M 88.83728 196.796891 
L 92.209341 313.280093 
L 95.581403 320.225427 
L 98.953463 323.263233 
L 102.325524 325.389148 
L 105.697584 327.164619 
L 109.069646 328.359504 
L 112.441706 329.193244 
L 115.813766 329.851222 
L 119.185831 330.424955 
L 122.557889 330.858064 
L 125.929948 331.154786 
L 129.302013 331.378333 
L 132.674071 331.555923 
L 136.046129 331.695909 
L 139.418195 331.797875 
L 142.790253 331.871208 
L 146.162311 331.922923 
L 149.534376 331.957219 
L 152.906441 331.982321 
L 156.2785 331.996956 
L 159.650558 332.00526 
L 163.022616 332.009141 
L 166.394681 332.010716 
L 169.76674 332.011511 
L 173.138805 332.011766 
L 176.510863 332.012116 
L 179.882921 332.01245 
L 183.25498 332.012386 
L 186.627045 332.012514 
L 189.99911 332.012577 
L 193.371168 332.012545 
L 196.743227 332.012545 
L 200.115285 332.012609 
L 203.487357 332.012577 
L 206.859415 332.012561 
L 210.231473 332.012593 
L 213.603532 332.012609 
L 216.97559 332.012593 
L 220.347648 332.012609 
L 223.71972 332.012625 
L 227.091778 332.012625 
L 230.463837 332.012609 
L 233.835895 332.012609 
L 237.207953 332.012625 
L 240.580025 332.012625 
L 243.952084 332.012625 
L 247.324142 332.012625 
L 250.6962 332.012625 
L 254.068258 332.012609 
" clip-path="url(#pfe6d953acf)" style="fill: none; stroke: #9467bd; stroke-width: 1.5; stroke-linecap: square"/>
   </g>
   <g id="line2d_36">
    <path d="M 89.562659 253.589139 
L 94.385478 296.490409 
L 99.208297 320.353172 
L 104.031114 326.841022 
L 108.853935 328.729366 
L 113.676753 329.764276 
L 118.49957 330.604997 
L 123.322391 331.215418 
L 128.145208 331.579696 
L 132.968029 331.754283 
L 137.790847 331.844867 
L 142.613664 331.895662 
L 147.436482 331.928272 
L 152.259306 331.947666 
L 157.082123 331.959618 
L 161.904941 331.969193 
L 166.727758 331.975914 
L 171.550575 331.981249 
L 176.373393 331.985815 
L 181.196217 331.988778 
L 186.019035 331.993166 
L 190.841852 331.996991 
L 195.664669 331.999715 
L 200.487487 332.002048 
L 205.310311 332.004266 
L 210.133115 332.006064 
L 214.955946 332.007314 
L 219.778777 332.00844 
L 224.601581 332.009454 
L 229.424412 332.01007 
L 234.247216 332.010606 
L 239.070047 332.011146 
L 243.892851 332.011439 
L 248.715682 332.011722 
L 253.538485 332.01192 
L 258.361317 332.012119 
L 263.18412 332.012257 
L 268.006951 332.012342 
L 272.829782 332.012398 
L 277.652586 332.012452 
L 282.475417 332.012519 
L 287.298221 332.01254 
L 292.121052 332.012567 
L 296.943856 332.012552 
L 301.766687 332.012598 
L 306.589491 332.012598 
L 311.412322 332.012602 
L 316.235126 332.012615 
L 321.057957 332.012617 
L 325.880761 332.01261 
" clip-path="url(#pfe6d953acf)" style="fill: none; stroke: #8c564b; stroke-width: 1.5; stroke-linecap: square"/>
   </g>
   <g id="line2d_37">
    <path d="M 87.823572 75.886299 
L 89.168216 300.991594 
L 90.512861 302.403115 
L 91.857505 304.301573 
L 93.202149 306.891394 
L 94.546793 309.947657 
L 95.891438 313.109323 
L 97.236082 316.230479 
L 98.580726 318.957355 
L 99.92537 321.185657 
L 101.270014 322.952781 
L 102.614658 324.343953 
L 103.959304 325.267445 
L 105.303946 326.18581 
L 106.648592 327.101632 
L 107.993235 327.926251 
L 109.33788 328.756998 
L 110.682523 329.410049 
L 112.027169 329.993698 
L 113.371811 330.546959 
L 114.716457 330.920816 
L 116.061099 331.199761 
L 117.405745 331.396504 
L 118.750391 331.560613 
L 120.095033 331.687746 
L 121.439676 331.777865 
L 122.784321 331.848184 
L 124.128967 331.893703 
L 125.47361 331.930384 
L 126.818252 331.95481 
L 128.162898 331.970483 
L 129.507544 331.984572 
L 130.852186 331.993617 
L 132.196832 331.997494 
L 133.541478 332.001746 
L 134.88612 332.005372 
L 136.230763 332.007956 
L 137.575408 332.008999 
L 138.920054 332.010166 
L 140.264697 332.010708 
L 141.609339 332.011041 
L 142.953985 332.011166 
L 144.298624 332.011916 
L 145.643273 332.011708 
L 146.987922 332.012208 
L 148.332558 332.012458 
L 149.677207 332.0125 
L 151.021849 332.012417 
L 152.366492 332.012417 
L 153.711141 332.0125 
" clip-path="url(#pfe6d953acf)" style="fill: none; stroke: #e377c2; stroke-width: 1.5; stroke-linecap: square"/>
   </g>
   <g id="patch_3">
    <path d="M 87.15125 332.012625 
L 87.15125 29.612625 
" style="fill: none; stroke: #000000; stroke-width: 0.8; stroke-linejoin: miter; stroke-linecap: square"/>
   </g>
   <g id="patch_4">
    <path d="M 533.55125 332.012625 
L 533.55125 29.612625 
" style="fill: none; stroke: #000000; stroke-width: 0.8; stroke-linejoin: miter; stroke-linecap: square"/>
   </g>
   <g id="patch_5">
    <path d="M 87.15125 332.012625 
L 533.55125 332.012625 
" style="fill: none; stroke: #000000; stroke-width: 0.8; stroke-linejoin: miter; stroke-linecap: square"/>
   </g>
   <g id="patch_6">
    <path d="M 87.15125 29.612625 
L 533.55125 29.612625 
" style="fill: none; stroke: #000000; stroke-width: 0.8; stroke-linejoin: miter; stroke-linecap: square"/>
   </g>
   <g id="text_17">
    <!-- Raw Gradient Distributions -->
    <g transform="translate(165.136813 23.612625) scale(0.216 -0.216)">
     <defs>
      <path id="DejaVuSans-52" d="M 2841 2188 
Q 3044 2119 3236 1894 
Q 3428 1669 3622 1275 
L 4263 0 
L 3584 0 
L 2988 1197 
Q 2756 1666 2539 1819 
Q 2322 1972 1947 1972 
L 1259 1972 
L 1259 0 
L 628 0 
L 628 4666 
L 2053 4666 
Q 2853 4666 3247 4331 
Q 3641 3997 3641 3322 
Q 3641 2881 3436 2590 
Q 3231 2300 2841 2188 
z
M 1259 4147 
L 1259 2491 
L 2053 2491 
Q 2509 2491 2742 2702 
Q 2975 2913 2975 3322 
Q 2975 3731 2742 3939 
Q 2509 4147 2053 4147 
L 1259 4147 
z
" transform="scale(0.015625)"/>
      <path id="DejaVuSans-77" d="M 269 3500 
L 844 3500 
L 1563 769 
L 2278 3500 
L 2956 3500 
L 3675 769 
L 4391 3500 
L 4966 3500 
L 4050 0 
L 3372 0 
L 2619 2869 
L 1863 0 
L 1184 0 
L 269 3500 
z
" transform="scale(0.015625)"/>
      <path id="DejaVuSans-47" d="M 3809 666 
L 3809 1919 
L 2778 1919 
L 2778 2438 
L 4434 2438 
L 4434 434 
Q 4069 175 3628 42 
Q 3188 -91 2688 -91 
Q 1594 -91 976 548 
Q 359 1188 359 2328 
Q 359 3472 976 4111 
Q 1594 4750 2688 4750 
Q 3144 4750 3555 4637 
Q 3966 4525 4313 4306 
L 4313 3634 
Q 3963 3931 3569 4081 
Q 3175 4231 2741 4231 
Q 1884 4231 1454 3753 
Q 1025 3275 1025 2328 
Q 1025 1384 1454 906 
Q 1884 428 2741 428 
Q 3075 428 3337 486 
Q 3600 544 3809 666 
z
" transform="scale(0.015625)"/>
      <path id="DejaVuSans-74" d="M 1172 4494 
L 1172 3500 
L 2356 3500 
L 2356 3053 
L 1172 3053 
L 1172 1153 
Q 1172 725 1289 603 
Q 1406 481 1766 481 
L 2356 481 
L 2356 0 
L 1766 0 
Q 1100 0 847 248 
Q 594 497 594 1153 
L 594 3053 
L 172 3053 
L 172 3500 
L 594 3500 
L 594 4494 
L 1172 4494 
z
" transform="scale(0.015625)"/>
      <path id="DejaVuSans-44" d="M 1259 4147 
L 1259 519 
L 2022 519 
Q 2988 519 3436 956 
Q 3884 1394 3884 2338 
Q 3884 3275 3436 3711 
Q 2988 4147 2022 4147 
L 1259 4147 
z
M 628 4666 
L 1925 4666 
Q 3281 4666 3915 4102 
Q 4550 3538 4550 2338 
Q 4550 1131 3912 565 
Q 3275 0 1925 0 
L 628 0 
L 628 4666 
z
" transform="scale(0.015625)"/>
      <path id="DejaVuSans-73" d="M 2834 3397 
L 2834 2853 
Q 2591 2978 2328 3040 
Q 2066 3103 1784 3103 
Q 1356 3103 1142 2972 
Q 928 2841 928 2578 
Q 928 2378 1081 2264 
Q 1234 2150 1697 2047 
L 1894 2003 
Q 2506 1872 2764 1633 
Q 3022 1394 3022 966 
Q 3022 478 2636 193 
Q 2250 -91 1575 -91 
Q 1294 -91 989 -36 
Q 684 19 347 128 
L 347 722 
Q 666 556 975 473 
Q 1284 391 1588 391 
Q 1994 391 2212 530 
Q 2431 669 2431 922 
Q 2431 1156 2273 1281 
Q 2116 1406 1581 1522 
L 1381 1569 
Q 847 1681 609 1914 
Q 372 2147 372 2553 
Q 372 3047 722 3315 
Q 1072 3584 1716 3584 
Q 2034 3584 2315 3537 
Q 2597 3491 2834 3397 
z
" transform="scale(0.015625)"/>
      <path id="DejaVuSans-62" d="M 3116 1747 
Q 3116 2381 2855 2742 
Q 2594 3103 2138 3103 
Q 1681 3103 1420 2742 
Q 1159 2381 1159 1747 
Q 1159 1113 1420 752 
Q 1681 391 2138 391 
Q 2594 391 2855 752 
Q 3116 1113 3116 1747 
z
M 1159 2969 
Q 1341 3281 1617 3432 
Q 1894 3584 2278 3584 
Q 2916 3584 3314 3078 
Q 3713 2572 3713 1747 
Q 3713 922 3314 415 
Q 2916 -91 2278 -91 
Q 1894 -91 1617 61 
Q 1341 213 1159 525 
L 1159 0 
L 581 0 
L 581 4863 
L 1159 4863 
L 1159 2969 
z
" transform="scale(0.015625)"/>
     </defs>
     <use xlink:href="#DejaVuSans-52"/>
     <use xlink:href="#DejaVuSans-61" transform="translate(67.232422 0)"/>
     <use xlink:href="#DejaVuSans-77" transform="translate(128.511719 0)"/>
     <use xlink:href="#DejaVuSans-20" transform="translate(210.298828 0)"/>
     <use xlink:href="#DejaVuSans-47" transform="translate(242.085938 0)"/>
     <use xlink:href="#DejaVuSans-72" transform="translate(319.576172 0)"/>
     <use xlink:href="#DejaVuSans-61" transform="translate(360.689453 0)"/>
     <use xlink:href="#DejaVuSans-64" transform="translate(421.96875 0)"/>
     <use xlink:href="#DejaVuSans-69" transform="translate(485.445312 0)"/>
     <use xlink:href="#DejaVuSans-65" transform="translate(513.228516 0)"/>
     <use xlink:href="#DejaVuSans-6e" transform="translate(574.751953 0)"/>
     <use xlink:href="#DejaVuSans-74" transform="translate(638.130859 0)"/>
     <use xlink:href="#DejaVuSans-20" transform="translate(677.339844 0)"/>
     <use xlink:href="#DejaVuSans-44" transform="translate(709.126953 0)"/>
     <use xlink:href="#DejaVuSans-69" transform="translate(786.128906 0)"/>
     <use xlink:href="#DejaVuSans-73" transform="translate(813.912109 0)"/>
     <use xlink:href="#DejaVuSans-74" transform="translate(866.011719 0)"/>
     <use xlink:href="#DejaVuSans-72" transform="translate(905.220703 0)"/>
     <use xlink:href="#DejaVuSans-69" transform="translate(946.333984 0)"/>
     <use xlink:href="#DejaVuSans-62" transform="translate(974.117188 0)"/>
     <use xlink:href="#DejaVuSans-75" transform="translate(1037.59375 0)"/>
     <use xlink:href="#DejaVuSans-74" transform="translate(1100.972656 0)"/>
     <use xlink:href="#DejaVuSans-69" transform="translate(1140.181641 0)"/>
     <use xlink:href="#DejaVuSans-6f" transform="translate(1167.964844 0)"/>
     <use xlink:href="#DejaVuSans-6e" transform="translate(1229.146484 0)"/>
     <use xlink:href="#DejaVuSans-73" transform="translate(1292.525391 0)"/>
    </g>
   </g>
   <g id="legend_1">
    <g id="patch_7">
     <path d="M 438.290469 129.284812 
L 527.25125 129.284812 
Q 529.05125 129.284812 529.05125 127.484812 
L 529.05125 35.912625 
Q 529.05125 34.112625 527.25125 34.112625 
L 438.290469 34.112625 
Q 436.490469 34.112625 436.490469 35.912625 
L 436.490469 127.484812 
Q 436.490469 129.284812 438.290469 129.284812 
z
" style="fill: #ffffff; opacity: 0.9; stroke: #cccccc; stroke-linejoin: miter"/>
    </g>
    <g id="line2d_38">
     <path d="M 440.090469 41.401219 
L 449.090469 41.401219 
L 458.090469 41.401219 
" style="fill: none; stroke: #1f77b4; stroke-width: 1.5; stroke-linecap: square"/>
    </g>
    <g id="text_18">
     <!-- ct -->
     <g transform="translate(465.290469 44.551219) scale(0.09 -0.09)">
      <use xlink:href="#DejaVuSans-63"/>
      <use xlink:href="#DejaVuSans-74" transform="translate(54.980469 0)"/>
     </g>
    </g>
    <g id="line2d_39">
     <path d="M 440.090469 54.611531 
L 449.090469 54.611531 
L 458.090469 54.611531 
" style="fill: none; stroke: #ff7f0e; stroke-width: 1.5; stroke-linecap: square"/>
    </g>
    <g id="text_19">
     <!-- flair -->
     <g transform="translate(465.290469 57.761531) scale(0.09 -0.09)">
      <defs>
       <path id="DejaVuSans-66" d="M 2375 4863 
L 2375 4384 
L 1825 4384 
Q 1516 4384 1395 4259 
Q 1275 4134 1275 3809 
L 1275 3500 
L 2222 3500 
L 2222 3053 
L 1275 3053 
L 1275 0 
L 697 0 
L 697 3053 
L 147 3053 
L 147 3500 
L 697 3500 
L 697 3744 
Q 697 4328 969 4595 
Q 1241 4863 1831 4863 
L 2375 4863 
z
" transform="scale(0.015625)"/>
      </defs>
      <use xlink:href="#DejaVuSans-66"/>
      <use xlink:href="#DejaVuSans-6c" transform="translate(35.205078 0)"/>
      <use xlink:href="#DejaVuSans-61" transform="translate(62.988281 0)"/>
      <use xlink:href="#DejaVuSans-69" transform="translate(124.267578 0)"/>
      <use xlink:href="#DejaVuSans-72" transform="translate(152.050781 0)"/>
     </g>
    </g>
    <g id="line2d_40">
     <path d="M 440.090469 67.821844 
L 449.090469 67.821844 
L 458.090469 67.821844 
" style="fill: none; stroke: #2ca02c; stroke-width: 1.5; stroke-linecap: square"/>
    </g>
    <g id="text_20">
     <!-- mni152 -->
     <g transform="translate(465.290469 70.971844) scale(0.09 -0.09)">
      <use xlink:href="#DejaVuSans-6d"/>
      <use xlink:href="#DejaVuSans-6e" transform="translate(97.412109 0)"/>
      <use xlink:href="#DejaVuSans-69" transform="translate(160.791016 0)"/>
      <use xlink:href="#DejaVuSans-31" transform="translate(188.574219 0)"/>
      <use xlink:href="#DejaVuSans-35" transform="translate(252.197266 0)"/>
      <use xlink:href="#DejaVuSans-32" transform="translate(315.820312 0)"/>
     </g>
    </g>
    <g id="line2d_41">
     <path d="M 440.090469 81.032156 
L 449.090469 81.032156 
L 458.090469 81.032156 
" style="fill: none; stroke: #d62728; stroke-width: 1.5; stroke-linecap: square"/>
    </g>
    <g id="text_21">
     <!-- shear -->
     <g transform="translate(465.290469 84.182156) scale(0.09 -0.09)">
      <defs>
       <path id="DejaVuSans-68" d="M 3513 2113 
L 3513 0 
L 2938 0 
L 2938 2094 
Q 2938 2591 2744 2837 
Q 2550 3084 2163 3084 
Q 1697 3084 1428 2787 
Q 1159 2491 1159 1978 
L 1159 0 
L 581 0 
L 581 4863 
L 1159 4863 
L 1159 2956 
Q 1366 3272 1645 3428 
Q 1925 3584 2291 3584 
Q 2894 3584 3203 3211 
Q 3513 2838 3513 2113 
z
" transform="scale(0.015625)"/>
      </defs>
      <use xlink:href="#DejaVuSans-73"/>
      <use xlink:href="#DejaVuSans-68" transform="translate(52.099609 0)"/>
      <use xlink:href="#DejaVuSans-65" transform="translate(115.478516 0)"/>
      <use xlink:href="#DejaVuSans-61" transform="translate(177.001953 0)"/>
      <use xlink:href="#DejaVuSans-72" transform="translate(238.28125 0)"/>
     </g>
    </g>
    <g id="line2d_42">
     <path d="M 440.090469 94.242469 
L 449.090469 94.242469 
L 458.090469 94.242469 
" style="fill: none; stroke: #9467bd; stroke-width: 1.5; stroke-linecap: square"/>
    </g>
    <g id="text_22">
     <!-- t1w -->
     <g transform="translate(465.290469 97.392469) scale(0.09 -0.09)">
      <use xlink:href="#DejaVuSans-74"/>
      <use xlink:href="#DejaVuSans-31" transform="translate(39.208984 0)"/>
      <use xlink:href="#DejaVuSans-77" transform="translate(102.832031 0)"/>
     </g>
    </g>
    <g id="line2d_43">
     <path d="M 440.090469 107.452781 
L 449.090469 107.452781 
L 458.090469 107.452781 
" style="fill: none; stroke: #8c564b; stroke-width: 1.5; stroke-linecap: square"/>
    </g>
    <g id="text_23">
     <!-- tof -->
     <g transform="translate(465.290469 110.602781) scale(0.09 -0.09)">
      <use xlink:href="#DejaVuSans-74"/>
      <use xlink:href="#DejaVuSans-6f" transform="translate(39.208984 0)"/>
      <use xlink:href="#DejaVuSans-66" transform="translate(100.390625 0)"/>
     </g>
    </g>
    <g id="line2d_44">
     <path d="M 440.090469 120.663094 
L 449.090469 120.663094 
L 458.090469 120.663094 
" style="fill: none; stroke: #e377c2; stroke-width: 1.5; stroke-linecap: square"/>
    </g>
    <g id="text_24">
     <!-- visiblehuman -->
     <g transform="translate(465.290469 123.813094) scale(0.09 -0.09)">
      <defs>
       <path id="DejaVuSans-76" d="M 191 3500 
L 800 3500 
L 1894 563 
L 2988 3500 
L 3597 3500 
L 2284 0 
L 1503 0 
L 191 3500 
z
" transform="scale(0.015625)"/>
      </defs>
      <use xlink:href="#DejaVuSans-76"/>
      <use xlink:href="#DejaVuSans-69" transform="translate(59.179688 0)"/>
      <use xlink:href="#DejaVuSans-73" transform="translate(86.962891 0)"/>
      <use xlink:href="#DejaVuSans-69" transform="translate(139.0625 0)"/>
      <use xlink:href="#DejaVuSans-62" transform="translate(166.845703 0)"/>
      <use xlink:href="#DejaVuSans-6c" transform="translate(230.322266 0)"/>
      <use xlink:href="#DejaVuSans-65" transform="translate(258.105469 0)"/>
      <use xlink:href="#DejaVuSans-68" transform="translate(319.628906 0)"/>
      <use xlink:href="#DejaVuSans-75" transform="translate(383.007812 0)"/>
      <use xlink:href="#DejaVuSans-6d" transform="translate(446.386719 0)"/>
      <use xlink:href="#DejaVuSans-61" transform="translate(543.798828 0)"/>
      <use xlink:href="#DejaVuSans-6e" transform="translate(605.078125 0)"/>
     </g>
    </g>
   </g>
  </g>
  <g id="axes_2">
   <g id="patch_8">
    <path d="M 87.15125 694.892625 
L 533.55125 694.892625 
L 533.55125 392.492625 
L 87.15125 392.492625 
z
" style="fill: #ffffff"/>
   </g>
   <g id="matplotlib.axis_3">
    <g id="xtick_7">
     <g id="line2d_45">
      <path d="M 87.15125 694.892625 
L 87.15125 392.492625 
" clip-path="url(#pda331bc75d)" style="fill: none; stroke: #b0b0b0; stroke-opacity: 0.3; stroke-width: 0.8; stroke-linecap: square"/>
     </g>
     <g id="line2d_46">
      <g>
       <use xlink:href="#m24d153f3df" x="87.15125" y="694.892625" style="stroke: #000000; stroke-width: 0.8"/>
      </g>
     </g>
     <g id="text_25">
      <!-- −40 -->
      <g transform="translate(68.157031 715.569813) scale(0.18 -0.18)">
       <defs>
        <path id="DejaVuSans-2212" d="M 678 2272 
L 4684 2272 
L 4684 1741 
L 678 1741 
L 678 2272 
z
" transform="scale(0.015625)"/>
       </defs>
       <use xlink:href="#DejaVuSans-2212"/>
       <use xlink:href="#DejaVuSans-34" transform="translate(83.789062 0)"/>
       <use xlink:href="#DejaVuSans-30" transform="translate(147.412109 0)"/>
      </g>
     </g>
    </g>
    <g id="xtick_8">
     <g id="line2d_47">
      <path d="M 186.35125 694.892625 
L 186.35125 392.492625 
" clip-path="url(#pda331bc75d)" style="fill: none; stroke: #b0b0b0; stroke-opacity: 0.3; stroke-width: 0.8; stroke-linecap: square"/>
     </g>
     <g id="line2d_48">
      <g>
       <use xlink:href="#m24d153f3df" x="186.35125" y="694.892625" style="stroke: #000000; stroke-width: 0.8"/>
      </g>
     </g>
     <g id="text_26">
      <!-- −30 -->
      <g transform="translate(167.357031 715.569813) scale(0.18 -0.18)">
       <defs>
        <path id="DejaVuSans-33" d="M 2597 2516 
Q 3050 2419 3304 2112 
Q 3559 1806 3559 1356 
Q 3559 666 3084 287 
Q 2609 -91 1734 -91 
Q 1441 -91 1130 -33 
Q 819 25 488 141 
L 488 750 
Q 750 597 1062 519 
Q 1375 441 1716 441 
Q 2309 441 2620 675 
Q 2931 909 2931 1356 
Q 2931 1769 2642 2001 
Q 2353 2234 1838 2234 
L 1294 2234 
L 1294 2753 
L 1863 2753 
Q 2328 2753 2575 2939 
Q 2822 3125 2822 3475 
Q 2822 3834 2567 4026 
Q 2313 4219 1838 4219 
Q 1578 4219 1281 4162 
Q 984 4106 628 3988 
L 628 4550 
Q 988 4650 1302 4700 
Q 1616 4750 1894 4750 
Q 2613 4750 3031 4423 
Q 3450 4097 3450 3541 
Q 3450 3153 3228 2886 
Q 3006 2619 2597 2516 
z
" transform="scale(0.015625)"/>
       </defs>
       <use xlink:href="#DejaVuSans-2212"/>
       <use xlink:href="#DejaVuSans-33" transform="translate(83.789062 0)"/>
       <use xlink:href="#DejaVuSans-30" transform="translate(147.412109 0)"/>
      </g>
     </g>
    </g>
    <g id="xtick_9">
     <g id="line2d_49">
      <path d="M 285.55125 694.892625 
L 285.55125 392.492625 
" clip-path="url(#pda331bc75d)" style="fill: none; stroke: #b0b0b0; stroke-opacity: 0.3; stroke-width: 0.8; stroke-linecap: square"/>
     </g>
     <g id="line2d_50">
      <g>
       <use xlink:href="#m24d153f3df" x="285.55125" y="694.892625" style="stroke: #000000; stroke-width: 0.8"/>
      </g>
     </g>
     <g id="text_27">
      <!-- −20 -->
      <g transform="translate(266.557031 715.569813) scale(0.18 -0.18)">
       <use xlink:href="#DejaVuSans-2212"/>
       <use xlink:href="#DejaVuSans-32" transform="translate(83.789062 0)"/>
       <use xlink:href="#DejaVuSans-30" transform="translate(147.412109 0)"/>
      </g>
     </g>
    </g>
    <g id="xtick_10">
     <g id="line2d_51">
      <path d="M 384.75125 694.892625 
L 384.75125 392.492625 
" clip-path="url(#pda331bc75d)" style="fill: none; stroke: #b0b0b0; stroke-opacity: 0.3; stroke-width: 0.8; stroke-linecap: square"/>
     </g>
     <g id="line2d_52">
      <g>
       <use xlink:href="#m24d153f3df" x="384.75125" y="694.892625" style="stroke: #000000; stroke-width: 0.8"/>
      </g>
     </g>
     <g id="text_28">
      <!-- −10 -->
      <g transform="translate(365.757031 715.569813) scale(0.18 -0.18)">
       <use xlink:href="#DejaVuSans-2212"/>
       <use xlink:href="#DejaVuSans-31" transform="translate(83.789062 0)"/>
       <use xlink:href="#DejaVuSans-30" transform="translate(147.412109 0)"/>
      </g>
     </g>
    </g>
    <g id="xtick_11">
     <g id="line2d_53">
      <path d="M 483.95125 694.892625 
L 483.95125 392.492625 
" clip-path="url(#pda331bc75d)" style="fill: none; stroke: #b0b0b0; stroke-opacity: 0.3; stroke-width: 0.8; stroke-linecap: square"/>
     </g>
     <g id="line2d_54">
      <g>
       <use xlink:href="#m24d153f3df" x="483.95125" y="694.892625" style="stroke: #000000; stroke-width: 0.8"/>
      </g>
     </g>
     <g id="text_29">
      <!-- 0 -->
      <g transform="translate(478.225 715.569813) scale(0.18 -0.18)">
       <use xlink:href="#DejaVuSans-30"/>
      </g>
     </g>
    </g>
    <g id="text_30">
     <!-- Transformed Magnitude (log scale) -->
     <g transform="translate(154.142188 736.990438) scale(0.18 -0.18)">
      <defs>
       <path id="DejaVuSans-54" d="M -19 4666 
L 3928 4666 
L 3928 4134 
L 2272 4134 
L 2272 0 
L 1638 0 
L 1638 4134 
L -19 4134 
L -19 4666 
z
" transform="scale(0.015625)"/>
       <path id="DejaVuSans-4d" d="M 628 4666 
L 1569 4666 
L 2759 1491 
L 3956 4666 
L 4897 4666 
L 4897 0 
L 4281 0 
L 4281 4097 
L 3078 897 
L 2444 897 
L 1241 4097 
L 1241 0 
L 628 0 
L 628 4666 
z
" transform="scale(0.015625)"/>
       <path id="DejaVuSans-67" d="M 2906 1791 
Q 2906 2416 2648 2759 
Q 2391 3103 1925 3103 
Q 1463 3103 1205 2759 
Q 947 2416 947 1791 
Q 947 1169 1205 825 
Q 1463 481 1925 481 
Q 2391 481 2648 825 
Q 2906 1169 2906 1791 
z
M 3481 434 
Q 3481 -459 3084 -895 
Q 2688 -1331 1869 -1331 
Q 1566 -1331 1297 -1286 
Q 1028 -1241 775 -1147 
L 775 -588 
Q 1028 -725 1275 -790 
Q 1522 -856 1778 -856 
Q 2344 -856 2625 -561 
Q 2906 -266 2906 331 
L 2906 616 
Q 2728 306 2450 153 
Q 2172 0 1784 0 
Q 1141 0 747 490 
Q 353 981 353 1791 
Q 353 2603 747 3093 
Q 1141 3584 1784 3584 
Q 2172 3584 2450 3431 
Q 2728 3278 2906 2969 
L 2906 3500 
L 3481 3500 
L 3481 434 
z
" transform="scale(0.015625)"/>
       <path id="DejaVuSans-28" d="M 1984 4856 
Q 1566 4138 1362 3434 
Q 1159 2731 1159 2009 
Q 1159 1288 1364 580 
Q 1569 -128 1984 -844 
L 1484 -844 
Q 1016 -109 783 600 
Q 550 1309 550 2009 
Q 550 2706 781 3412 
Q 1013 4119 1484 4856 
L 1984 4856 
z
" transform="scale(0.015625)"/>
       <path id="DejaVuSans-29" d="M 513 4856 
L 1013 4856 
Q 1481 4119 1714 3412 
Q 1947 2706 1947 2009 
Q 1947 1309 1714 600 
Q 1481 -109 1013 -844 
L 513 -844 
Q 928 -128 1133 580 
Q 1338 1288 1338 2009 
Q 1338 2731 1133 3434 
Q 928 4138 513 4856 
z
" transform="scale(0.015625)"/>
      </defs>
      <use xlink:href="#DejaVuSans-54"/>
      <use xlink:href="#DejaVuSans-72" transform="translate(46.333984 0)"/>
      <use xlink:href="#DejaVuSans-61" transform="translate(87.447266 0)"/>
      <use xlink:href="#DejaVuSans-6e" transform="translate(148.726562 0)"/>
      <use xlink:href="#DejaVuSans-73" transform="translate(212.105469 0)"/>
      <use xlink:href="#DejaVuSans-66" transform="translate(264.205078 0)"/>
      <use xlink:href="#DejaVuSans-6f" transform="translate(299.410156 0)"/>
      <use xlink:href="#DejaVuSans-72" transform="translate(360.591797 0)"/>
      <use xlink:href="#DejaVuSans-6d" transform="translate(399.955078 0)"/>
      <use xlink:href="#DejaVuSans-65" transform="translate(497.367188 0)"/>
      <use xlink:href="#DejaVuSans-64" transform="translate(558.890625 0)"/>
      <use xlink:href="#DejaVuSans-20" transform="translate(622.367188 0)"/>
      <use xlink:href="#DejaVuSans-4d" transform="translate(654.154297 0)"/>
      <use xlink:href="#DejaVuSans-61" transform="translate(740.433594 0)"/>
      <use xlink:href="#DejaVuSans-67" transform="translate(801.712891 0)"/>
      <use xlink:href="#DejaVuSans-6e" transform="translate(865.189453 0)"/>
      <use xlink:href="#DejaVuSans-69" transform="translate(928.568359 0)"/>
      <use xlink:href="#DejaVuSans-74" transform="translate(956.351562 0)"/>
      <use xlink:href="#DejaVuSans-75" transform="translate(995.560547 0)"/>
      <use xlink:href="#DejaVuSans-64" transform="translate(1058.939453 0)"/>
      <use xlink:href="#DejaVuSans-65" transform="translate(1122.416016 0)"/>
      <use xlink:href="#DejaVuSans-20" transform="translate(1183.939453 0)"/>
      <use xlink:href="#DejaVuSans-28" transform="translate(1215.726562 0)"/>
      <use xlink:href="#DejaVuSans-6c" transform="translate(1254.740234 0)"/>
      <use xlink:href="#DejaVuSans-6f" transform="translate(1282.523438 0)"/>
      <use xlink:href="#DejaVuSans-67" transform="translate(1343.705078 0)"/>
      <use xlink:href="#DejaVuSans-20" transform="translate(1407.181641 0)"/>
      <use xlink:href="#DejaVuSans-73" transform="translate(1438.96875 0)"/>
      <use xlink:href="#DejaVuSans-63" transform="translate(1491.068359 0)"/>
      <use xlink:href="#DejaVuSans-61" transform="translate(1546.048828 0)"/>
      <use xlink:href="#DejaVuSans-6c" transform="translate(1607.328125 0)"/>
      <use xlink:href="#DejaVuSans-65" transform="translate(1635.111328 0)"/>
      <use xlink:href="#DejaVuSans-29" transform="translate(1696.634766 0)"/>
     </g>
    </g>
   </g>
   <g id="matplotlib.axis_4">
    <g id="ytick_10">
     <g id="line2d_55">
      <path d="M 87.15125 694.892625 
L 533.55125 694.892625 
" clip-path="url(#pda331bc75d)" style="fill: none; stroke: #b0b0b0; stroke-opacity: 0.3; stroke-width: 0.8; stroke-linecap: square"/>
     </g>
     <g id="line2d_56">
      <g>
       <use xlink:href="#m3433478274" x="87.15125" y="694.892625" style="stroke: #000000; stroke-width: 0.8"/>
      </g>
     </g>
     <g id="text_31">
      <!-- 0.000 -->
      <g transform="translate(28.620625 701.731219) scale(0.18 -0.18)">
       <use xlink:href="#DejaVuSans-30"/>
       <use xlink:href="#DejaVuSans-2e" transform="translate(63.623047 0)"/>
       <use xlink:href="#DejaVuSans-30" transform="translate(95.410156 0)"/>
       <use xlink:href="#DejaVuSans-30" transform="translate(159.033203 0)"/>
       <use xlink:href="#DejaVuSans-30" transform="translate(222.65625 0)"/>
      </g>
     </g>
    </g>
    <g id="ytick_11">
     <g id="line2d_57">
      <path d="M 87.15125 657.092625 
L 533.55125 657.092625 
" clip-path="url(#pda331bc75d)" style="fill: none; stroke: #b0b0b0; stroke-opacity: 0.3; stroke-width: 0.8; stroke-linecap: square"/>
     </g>
     <g id="line2d_58">
      <g>
       <use xlink:href="#m3433478274" x="87.15125" y="657.092625" style="stroke: #000000; stroke-width: 0.8"/>
      </g>
     </g>
     <g id="text_32">
      <!-- 0.025 -->
      <g transform="translate(28.620625 663.931219) scale(0.18 -0.18)">
       <use xlink:href="#DejaVuSans-30"/>
       <use xlink:href="#DejaVuSans-2e" transform="translate(63.623047 0)"/>
       <use xlink:href="#DejaVuSans-30" transform="translate(95.410156 0)"/>
       <use xlink:href="#DejaVuSans-32" transform="translate(159.033203 0)"/>
       <use xlink:href="#DejaVuSans-35" transform="translate(222.65625 0)"/>
      </g>
     </g>
    </g>
    <g id="ytick_12">
     <g id="line2d_59">
      <path d="M 87.15125 619.292625 
L 533.55125 619.292625 
" clip-path="url(#pda331bc75d)" style="fill: none; stroke: #b0b0b0; stroke-opacity: 0.3; stroke-width: 0.8; stroke-linecap: square"/>
     </g>
     <g id="line2d_60">
      <g>
       <use xlink:href="#m3433478274" x="87.15125" y="619.292625" style="stroke: #000000; stroke-width: 0.8"/>
      </g>
     </g>
     <g id="text_33">
      <!-- 0.050 -->
      <g transform="translate(28.620625 626.131219) scale(0.18 -0.18)">
       <use xlink:href="#DejaVuSans-30"/>
       <use xlink:href="#DejaVuSans-2e" transform="translate(63.623047 0)"/>
       <use xlink:href="#DejaVuSans-30" transform="translate(95.410156 0)"/>
       <use xlink:href="#DejaVuSans-35" transform="translate(159.033203 0)"/>
       <use xlink:href="#DejaVuSans-30" transform="translate(222.65625 0)"/>
      </g>
     </g>
    </g>
    <g id="ytick_13">
     <g id="line2d_61">
      <path d="M 87.15125 581.492625 
L 533.55125 581.492625 
" clip-path="url(#pda331bc75d)" style="fill: none; stroke: #b0b0b0; stroke-opacity: 0.3; stroke-width: 0.8; stroke-linecap: square"/>
     </g>
     <g id="line2d_62">
      <g>
       <use xlink:href="#m3433478274" x="87.15125" y="581.492625" style="stroke: #000000; stroke-width: 0.8"/>
      </g>
     </g>
     <g id="text_34">
      <!-- 0.075 -->
      <g transform="translate(28.620625 588.331219) scale(0.18 -0.18)">
       <use xlink:href="#DejaVuSans-30"/>
       <use xlink:href="#DejaVuSans-2e" transform="translate(63.623047 0)"/>
       <use xlink:href="#DejaVuSans-30" transform="translate(95.410156 0)"/>
       <use xlink:href="#DejaVuSans-37" transform="translate(159.033203 0)"/>
       <use xlink:href="#DejaVuSans-35" transform="translate(222.65625 0)"/>
      </g>
     </g>
    </g>
    <g id="ytick_14">
     <g id="line2d_63">
      <path d="M 87.15125 543.692625 
L 533.55125 543.692625 
" clip-path="url(#pda331bc75d)" style="fill: none; stroke: #b0b0b0; stroke-opacity: 0.3; stroke-width: 0.8; stroke-linecap: square"/>
     </g>
     <g id="line2d_64">
      <g>
       <use xlink:href="#m3433478274" x="87.15125" y="543.692625" style="stroke: #000000; stroke-width: 0.8"/>
      </g>
     </g>
     <g id="text_35">
      <!-- 0.100 -->
      <g transform="translate(28.620625 550.531219) scale(0.18 -0.18)">
       <use xlink:href="#DejaVuSans-30"/>
       <use xlink:href="#DejaVuSans-2e" transform="translate(63.623047 0)"/>
       <use xlink:href="#DejaVuSans-31" transform="translate(95.410156 0)"/>
       <use xlink:href="#DejaVuSans-30" transform="translate(159.033203 0)"/>
       <use xlink:href="#DejaVuSans-30" transform="translate(222.65625 0)"/>
      </g>
     </g>
    </g>
    <g id="ytick_15">
     <g id="line2d_65">
      <path d="M 87.15125 505.892625 
L 533.55125 505.892625 
" clip-path="url(#pda331bc75d)" style="fill: none; stroke: #b0b0b0; stroke-opacity: 0.3; stroke-width: 0.8; stroke-linecap: square"/>
     </g>
     <g id="line2d_66">
      <g>
       <use xlink:href="#m3433478274" x="87.15125" y="505.892625" style="stroke: #000000; stroke-width: 0.8"/>
      </g>
     </g>
     <g id="text_36">
      <!-- 0.125 -->
      <g transform="translate(28.620625 512.731219) scale(0.18 -0.18)">
       <use xlink:href="#DejaVuSans-30"/>
       <use xlink:href="#DejaVuSans-2e" transform="translate(63.623047 0)"/>
       <use xlink:href="#DejaVuSans-31" transform="translate(95.410156 0)"/>
       <use xlink:href="#DejaVuSans-32" transform="translate(159.033203 0)"/>
       <use xlink:href="#DejaVuSans-35" transform="translate(222.65625 0)"/>
      </g>
     </g>
    </g>
    <g id="ytick_16">
     <g id="line2d_67">
      <path d="M 87.15125 468.092625 
L 533.55125 468.092625 
" clip-path="url(#pda331bc75d)" style="fill: none; stroke: #b0b0b0; stroke-opacity: 0.3; stroke-width: 0.8; stroke-linecap: square"/>
     </g>
     <g id="line2d_68">
      <g>
       <use xlink:href="#m3433478274" x="87.15125" y="468.092625" style="stroke: #000000; stroke-width: 0.8"/>
      </g>
     </g>
     <g id="text_37">
      <!-- 0.150 -->
      <g transform="translate(28.620625 474.931219) scale(0.18 -0.18)">
       <use xlink:href="#DejaVuSans-30"/>
       <use xlink:href="#DejaVuSans-2e" transform="translate(63.623047 0)"/>
       <use xlink:href="#DejaVuSans-31" transform="translate(95.410156 0)"/>
       <use xlink:href="#DejaVuSans-35" transform="translate(159.033203 0)"/>
       <use xlink:href="#DejaVuSans-30" transform="translate(222.65625 0)"/>
      </g>
     </g>
    </g>
    <g id="ytick_17">
     <g id="line2d_69">
      <path d="M 87.15125 430.292625 
L 533.55125 430.292625 
" clip-path="url(#pda331bc75d)" style="fill: none; stroke: #b0b0b0; stroke-opacity: 0.3; stroke-width: 0.8; stroke-linecap: square"/>
     </g>
     <g id="line2d_70">
      <g>
       <use xlink:href="#m3433478274" x="87.15125" y="430.292625" style="stroke: #000000; stroke-width: 0.8"/>
      </g>
     </g>
     <g id="text_38">
      <!-- 0.175 -->
      <g transform="translate(28.620625 437.131219) scale(0.18 -0.18)">
       <use xlink:href="#DejaVuSans-30"/>
       <use xlink:href="#DejaVuSans-2e" transform="translate(63.623047 0)"/>
       <use xlink:href="#DejaVuSans-31" transform="translate(95.410156 0)"/>
       <use xlink:href="#DejaVuSans-37" transform="translate(159.033203 0)"/>
       <use xlink:href="#DejaVuSans-35" transform="translate(222.65625 0)"/>
      </g>
     </g>
    </g>
    <g id="ytick_18">
     <g id="line2d_71">
      <path d="M 87.15125 392.492625 
L 533.55125 392.492625 
" clip-path="url(#pda331bc75d)" style="fill: none; stroke: #b0b0b0; stroke-opacity: 0.3; stroke-width: 0.8; stroke-linecap: square"/>
     </g>
     <g id="line2d_72">
      <g>
       <use xlink:href="#m3433478274" x="87.15125" y="392.492625" style="stroke: #000000; stroke-width: 0.8"/>
      </g>
     </g>
     <g id="text_39">
      <!-- 0.200 -->
      <g transform="translate(28.620625 399.331219) scale(0.18 -0.18)">
       <use xlink:href="#DejaVuSans-30"/>
       <use xlink:href="#DejaVuSans-2e" transform="translate(63.623047 0)"/>
       <use xlink:href="#DejaVuSans-32" transform="translate(95.410156 0)"/>
       <use xlink:href="#DejaVuSans-30" transform="translate(159.033203 0)"/>
       <use xlink:href="#DejaVuSans-30" transform="translate(222.65625 0)"/>
      </g>
     </g>
    </g>
   </g>
   <g id="line2d_73">
    <path d="M 113.302311 -1 
L 119.71898 694.892625 
L 128.05476 694.892625 
L 136.390541 694.892625 
L 144.726322 694.892625 
L 153.062103 694.892625 
L 161.397884 694.892625 
L 169.733664 694.892625 
L 178.069445 694.892625 
L 186.405226 694.892625 
L 194.741007 694.892625 
L 203.076788 694.892625 
L 211.412568 694.823852 
L 219.748349 694.892322 
L 228.08413 694.829912 
L 236.419911 694.873538 
L 244.755692 694.825973 
L 253.091472 694.797192 
L 261.427253 694.817187 
L 269.763034 694.729328 
L 278.098815 694.538159 
L 286.434596 694.607537 
L 294.770376 694.410914 
L 303.106157 694.192175 
L 311.441938 693.756818 
L 319.777719 693.172403 
L 328.1135 691.806344 
L 336.44928 689.205711 
L 344.785061 684.067766 
L 353.120842 674.181183 
L 361.456623 658.230497 
L 369.792404 637.582071 
L 378.128184 623.147714 
L 386.463965 628.175987 
L 394.799746 642.733953 
L 403.135527 648.172437 
L 411.471308 650.766101 
L 419.807088 656.519061 
L 428.142869 656.573897 
L 436.47865 651.307799 
L 444.814431 640.821955 
L 453.150212 625.503553 
L 461.485992 612.573709 
L 469.821773 637.227302 
L 478.157554 646.429492 
L 486.493335 662.428349 
L 494.829116 687.573954 
L 503.164896 692.724624 
L 511.500677 694.68964 
L 519.836458 694.87475 
" clip-path="url(#pda331bc75d)" style="fill: none; stroke: #1f77b4; stroke-width: 1.5; stroke-linecap: square"/>
   </g>
   <g id="line2d_74">
    <path d="M 110.466981 424.332987 
L 116.970327 694.892625 
L 123.473673 694.892625 
L 129.977018 694.892625 
L 136.480364 694.892625 
L 142.98371 694.892625 
L 149.487056 694.892625 
L 155.990401 694.892625 
L 162.493747 694.892625 
L 168.997093 694.892625 
L 175.500438 694.892625 
L 182.003784 694.892625 
L 188.50713 694.892625 
L 195.010476 694.892625 
L 201.513821 694.892625 
L 208.017167 694.892625 
L 214.520513 694.892625 
L 221.023858 694.892625 
L 227.527204 694.892625 
L 234.03055 694.892625 
L 240.533895 694.892625 
L 247.037241 694.892625 
L 253.540587 694.892625 
L 260.043933 694.892625 
L 266.547278 694.892625 
L 273.050624 694.892625 
L 279.55397 481.927992 
L 286.057315 523.447482 
L 292.560661 631.963799 
L 299.064007 597.754577 
L 305.567353 625.272878 
L 312.070698 612.459793 
L 318.574044 598.074056 
L 325.07739 611.881688 
L 331.580735 599.41136 
L 338.084081 597.314307 
L 344.587427 589.955284 
L 351.090773 576.181744 
L 357.594118 571.342264 
L 364.097464 573.860891 
L 370.60081 581.486789 
L 377.104155 592.834631 
L 383.607501 605.164372 
L 390.110847 618.627414 
L 396.614193 635.294963 
L 403.117538 658.116569 
L 409.620884 680.372717 
L 416.12423 689.987892 
L 422.627575 694.03903 
L 429.130921 694.852667 
" clip-path="url(#pda331bc75d)" style="fill: none; stroke: #ff7f0e; stroke-width: 1.5; stroke-linecap: square"/>
   </g>
   <g id="line2d_75">
    <path d="M 112.940358 -1 
L 116.119018 694.892625 
L 122.054824 694.892625 
L 127.99063 694.892625 
L 133.926436 694.892625 
L 139.862242 694.892625 
L 145.798049 694.892625 
L 151.733855 694.892625 
L 157.669661 694.892625 
L 163.605467 694.892625 
L 169.541273 694.892625 
L 175.477079 694.892625 
L 181.412886 694.892625 
L 187.348692 694.892625 
L 193.284498 694.892625 
L 199.220304 694.892625 
L 205.15611 694.892625 
L 211.091916 694.892625 
L 217.027723 694.892625 
L 222.963529 694.892625 
L 228.899335 694.892625 
L 234.835141 694.892625 
L 240.770947 694.892625 
L 246.706753 694.892625 
L 252.64256 675.699892 
L 258.578366 694.892625 
L 264.514172 678.294128 
L 270.449978 685.957737 
L 276.385784 667.851757 
L 282.32159 670.91729 
L 288.257397 655.696086 
L 294.193203 650.674176 
L 300.129009 650.338391 
L 306.064815 643.519124 
L 312.000621 647.533902 
L 317.936428 635.834446 
L 323.872234 621.232914 
L 329.80804 606.707677 
L 335.743846 594.209789 
L 341.679652 583.509703 
L 347.615458 590.674513 
L 353.551265 604.332344 
L 359.487071 621.425646 
L 365.422877 635.52461 
L 371.358683 645.425378 
L 377.294489 653.899394 
L 383.230295 665.106707 
L 389.166102 678.409235 
L 395.101908 688.160298 
L 401.037714 694.01058 
" clip-path="url(#pda331bc75d)" style="fill: none; stroke: #2ca02c; stroke-width: 1.5; stroke-linecap: square"/>
   </g>
   <g id="line2d_76">
    <path d="M 115.050047 -1 
L 119.526714 694.892625 
L 127.734318 694.892625 
L 135.941922 694.892625 
L 144.149526 694.892625 
L 152.357129 694.892625 
L 160.564733 694.892625 
L 168.772337 694.892625 
L 176.979941 694.892625 
L 185.187545 694.892625 
L 193.395149 694.892625 
L 201.602752 694.892625 
L 209.810356 694.892625 
L 218.01796 694.892625 
L 226.225564 694.892625 
L 234.433168 694.892625 
L 242.640771 694.892625 
L 250.848375 694.892625 
L 259.055979 694.892625 
L 267.263583 694.892625 
L 275.471187 694.892625 
L 283.678791 694.892625 
L 291.886394 694.892625 
L 300.093998 694.892625 
L 308.301602 686.840223 
L 316.509206 694.892625 
L 324.71681 692.198008 
L 332.924414 694.892625 
L 341.132017 693.031395 
L 349.339621 680.563877 
L 357.547225 688.519575 
L 365.754829 679.46973 
L 373.962433 678.973367 
L 382.170036 678.685875 
L 390.37764 676.094776 
L 398.585244 674.911262 
L 406.792848 674.402844 
L 415.000452 675.726828 
L 423.208056 665.102982 
L 431.415659 655.600015 
L 439.623263 638.153667 
L 447.830867 641.086769 
L 456.038471 627.894101 
L 464.246075 639.544742 
L 472.453678 655.665271 
L 480.661282 666.694803 
L 488.868886 676.112859 
L 497.07649 691.279972 
L 505.284094 694.446056 
L 513.491698 694.829728 
" clip-path="url(#pda331bc75d)" style="fill: none; stroke: #d62728; stroke-width: 1.5; stroke-linecap: square"/>
   </g>
   <g id="line2d_77">
    <path d="M 110.797506 647.694266 
L 117.961901 694.892625 
L 125.126296 694.892625 
L 132.290692 694.892625 
L 139.455087 694.892625 
L 146.619482 694.892625 
L 153.783877 694.892625 
L 160.948272 694.892625 
L 168.112667 694.892625 
L 175.277063 694.892625 
L 182.441458 694.892625 
L 189.605853 694.892625 
L 196.770248 694.892625 
L 203.934643 694.892625 
L 211.099038 694.892625 
L 218.263434 694.892625 
L 225.427829 694.892625 
L 232.592224 694.892625 
L 239.756619 694.892625 
L 246.921014 694.892625 
L 254.085409 694.892625 
L 261.249805 694.892625 
L 268.4142 694.892625 
L 275.578595 542.678804 
L 282.74299 520.639526 
L 289.907385 619.656301 
L 297.07178 540.093914 
L 304.236176 529.574499 
L 311.400571 559.411371 
L 318.564966 574.604419 
L 325.729361 571.466147 
L 332.893756 601.978692 
L 340.058151 617.214333 
L 347.222547 623.649935 
L 354.386942 627.932573 
L 361.551337 624.045755 
L 368.715732 622.437353 
L 375.880127 620.687196 
L 383.044522 617.143122 
L 390.208918 614.835256 
L 397.373313 618.476995 
L 404.537708 629.099567 
L 411.702103 640.890463 
L 418.866498 658.078082 
L 426.030893 674.760568 
L 433.195289 687.80115 
L 440.359684 693.954737 
L 447.524079 694.855023 
L 454.688474 694.888632 
L 461.852869 694.891959 
" clip-path="url(#pda331bc75d)" style="fill: none; stroke: #9467bd; stroke-width: 1.5; stroke-linecap: square"/>
   </g>
   <g id="line2d_78">
    <path d="M 110.899929 638.558048 
L 118.269171 694.892625 
L 125.638412 694.892625 
L 133.007654 694.892625 
L 140.376895 694.892625 
L 147.746137 694.892625 
L 155.115378 694.892625 
L 162.48462 694.892625 
L 169.853861 694.892625 
L 177.223103 694.892625 
L 184.592344 694.892625 
L 191.961586 694.892625 
L 199.330827 694.892625 
L 206.700069 694.892625 
L 214.06931 694.892625 
L 221.438552 694.892625 
L 228.807793 694.892625 
L 236.177035 694.892625 
L 243.546277 694.892625 
L 250.915518 694.892625 
L 258.28476 694.892625 
L 265.654001 694.892625 
L 273.023243 694.892625 
L 280.392484 694.892625 
L 287.761726 694.892625 
L 295.130967 638.869417 
L 302.500209 694.892625 
L 309.86945 694.892625 
L 317.238692 486.228326 
L 324.607933 543.123541 
L 331.977175 610.170987 
L 339.346416 575.007979 
L 346.715658 558.359055 
L 354.084899 527.286344 
L 361.454141 497.011639 
L 368.823382 480.704882 
L 376.192624 511.478321 
L 383.561865 549.123852 
L 390.931107 596.015282 
L 398.300348 625.898039 
L 405.66959 638.683228 
L 413.038831 650.521264 
L 420.408073 669.769603 
L 427.777314 685.016933 
L 435.146556 690.487068 
L 442.515797 692.391483 
L 449.885039 693.37831 
L 457.25428 694.3216 
L 464.623522 694.77758 
L 471.992763 694.882854 
" clip-path="url(#pda331bc75d)" style="fill: none; stroke: #8c564b; stroke-width: 1.5; stroke-linecap: square"/>
   </g>
   <g id="line2d_79">
    <path d="M 112.907976 -1 
L 117.172424 694.892625 
L 123.810501 694.892625 
L 130.448578 694.892625 
L 137.086655 694.892625 
L 143.724732 694.892625 
L 150.362809 694.892625 
L 157.000887 694.892625 
L 163.638964 694.892625 
L 170.277041 694.892625 
L 176.915118 694.892625 
L 183.553195 694.892625 
L 190.191272 694.892625 
L 196.829349 694.892625 
L 203.467426 694.892062 
L 210.105503 694.891874 
L 216.74358 694.891124 
L 223.381657 694.890373 
L 230.019734 694.836147 
L 236.657811 694.887559 
L 243.295888 694.879115 
L 249.933966 694.872923 
L 256.572043 694.853222 
L 263.21012 694.709118 
L 269.848197 694.733886 
L 276.486274 692.265922 
L 283.124351 693.551598 
L 289.762428 693.35064 
L 296.400505 690.031377 
L 303.038582 689.839614 
L 309.676659 684.651318 
L 316.314736 679.290398 
L 322.952813 671.228847 
L 329.59089 660.015778 
L 336.228968 649.786855 
L 342.867045 638.597616 
L 349.505122 625.865079 
L 356.143199 611.019396 
L 362.781276 594.125115 
L 369.419353 578.567732 
L 376.05743 568.573166 
L 382.695507 568.760425 
L 389.333584 581.809127 
L 395.971661 599.738967 
L 402.609738 616.87192 
L 409.247815 648.728219 
L 415.885892 678.811741 
L 422.52397 691.604134 
L 429.162047 694.536869 
L 435.800124 694.861853 
" clip-path="url(#pda331bc75d)" style="fill: none; stroke: #e377c2; stroke-width: 1.5; stroke-linecap: square"/>
   </g>
   <g id="patch_9">
    <path d="M 87.15125 694.892625 
L 87.15125 392.492625 
" style="fill: none; stroke: #000000; stroke-width: 0.8; stroke-linejoin: miter; stroke-linecap: square"/>
   </g>
   <g id="patch_10">
    <path d="M 533.55125 694.892625 
L 533.55125 392.492625 
" style="fill: none; stroke: #000000; stroke-width: 0.8; stroke-linejoin: miter; stroke-linecap: square"/>
   </g>
   <g id="patch_11">
    <path d="M 87.15125 694.892625 
L 533.55125 694.892625 
" style="fill: none; stroke: #000000; stroke-width: 0.8; stroke-linejoin: miter; stroke-linecap: square"/>
   </g>
   <g id="patch_12">
    <path d="M 87.15125 392.492625 
L 533.55125 392.492625 
" style="fill: none; stroke: #000000; stroke-width: 0.8; stroke-linejoin: miter; stroke-linecap: square"/>
   </g>
   <g id="text_40">
    <!-- Normalized Distributions -->
    <g transform="translate(177.040438 386.492625) scale(0.216 -0.216)">
     <use xlink:href="#DejaVuSans-4e"/>
     <use xlink:href="#DejaVuSans-6f" transform="translate(74.804688 0)"/>
     <use xlink:href="#DejaVuSans-72" transform="translate(135.986328 0)"/>
     <use xlink:href="#DejaVuSans-6d" transform="translate(175.349609 0)"/>
     <use xlink:href="#DejaVuSans-61" transform="translate(272.761719 0)"/>
     <use xlink:href="#DejaVuSans-6c" transform="translate(334.041016 0)"/>
     <use xlink:href="#DejaVuSans-69" transform="translate(361.824219 0)"/>
     <use xlink:href="#DejaVuSans-7a" transform="translate(389.607422 0)"/>
     <use xlink:href="#DejaVuSans-65" transform="translate(442.097656 0)"/>
     <use xlink:href="#DejaVuSans-64" transform="translate(503.621094 0)"/>
     <use xlink:href="#DejaVuSans-20" transform="translate(567.097656 0)"/>
     <use xlink:href="#DejaVuSans-44" transform="translate(598.884766 0)"/>
     <use xlink:href="#DejaVuSans-69" transform="translate(675.886719 0)"/>
     <use xlink:href="#DejaVuSans-73" transform="translate(703.669922 0)"/>
     <use xlink:href="#DejaVuSans-74" transform="translate(755.769531 0)"/>
     <use xlink:href="#DejaVuSans-72" transform="translate(794.978516 0)"/>
     <use xlink:href="#DejaVuSans-69" transform="translate(836.091797 0)"/>
     <use xlink:href="#DejaVuSans-62" transform="translate(863.875 0)"/>
     <use xlink:href="#DejaVuSans-75" transform="translate(927.351562 0)"/>
     <use xlink:href="#DejaVuSans-74" transform="translate(990.730469 0)"/>
     <use xlink:href="#DejaVuSans-69" transform="translate(1029.939453 0)"/>
     <use xlink:href="#DejaVuSans-6f" transform="translate(1057.722656 0)"/>
     <use xlink:href="#DejaVuSans-6e" transform="translate(1118.904297 0)"/>
     <use xlink:href="#DejaVuSans-73" transform="translate(1182.283203 0)"/>
    </g>
   </g>
  </g>
 </g>
 <defs>
  <clipPath id="pfe6d953acf">
   <rect x="87.15125" y="29.612625" width="446.4" height="302.4"/>
  </clipPath>
  <clipPath id="pda331bc75d">
   <rect x="87.15125" y="392.492625" width="446.4" height="302.4"/>
  </clipPath>
 </defs>
</svg>
