<?xml version="1.0" encoding="utf-8" standalone="no"?>
<!DOCTYPE svg PUBLIC "-//W3C//DTD SVG 1.1//EN"
  "http://www.w3.org/Graphics/SVG/1.1/DTD/svg11.dtd">
<svg xmlns:xlink="http://www.w3.org/1999/xlink" width="931.35125pt" height="470.733875pt" viewBox="0 0 931.35125 470.733875" xmlns="http://www.w3.org/2000/svg" version="1.1">
 <metadata>
  <rdf:RDF xmlns:dc="http://purl.org/dc/elements/1.1/" xmlns:cc="http://creativecommons.org/ns#" xmlns:rdf="http://www.w3.org/1999/02/22-rdf-syntax-ns#">
   <cc:Work>
    <dc:type rdf:resource="http://purl.org/dc/dcmitype/StillImage"/>
    <dc:date>2025-04-01T14:55:23.362305</dc:date>
    <dc:format>image/svg+xml</dc:format>
    <dc:creator>
     <cc:Agent>
      <dc:title>Matplotlib v3.10.1, https://matplotlib.org/</dc:title>
     </cc:Agent>
    </dc:creator>
   </cc:Work>
  </rdf:RDF>
 </metadata>
 <defs>
  <style type="text/css">*{stroke-linejoin: round; stroke-linecap: butt}</style>
 </defs>
 <g id="figure_1">
  <g id="patch_1">
   <path d="M 0 470.733875 
L 931.35125 470.733875 
L 931.35125 0 
L 0 0 
z
" style="fill: #ffffff"/>
  </g>
  <g id="axes_1">
   <g id="patch_2">
    <path d="M 87.15125 417.692625 
L 451.064293 417.692625 
L 451.064293 29.612625 
L 87.15125 29.612625 
z
" style="fill: #ffffff"/>
   </g>
   <g id="matplotlib.axis_1">
    <g id="xtick_1">
     <g id="line2d_1">
      <path d="M 87.15125 417.692625 
L 87.15125 29.612625 
" clip-path="url(#p5331b2750a)" style="fill: none; stroke: #b0b0b0; stroke-opacity: 0.3; stroke-width: 0.8; stroke-linecap: square"/>
     </g>
     <g id="line2d_2">
      <defs>
       <path id="m2867908a7b" d="M 0 0 
L 0 3.5 
" style="stroke: #000000; stroke-width: 0.8"/>
      </defs>
      <g>
       <use xlink:href="#m2867908a7b" x="87.15125" y="417.692625" style="stroke: #000000; stroke-width: 0.8"/>
      </g>
     </g>
     <g id="text_1">
      <!-- 0 -->
      <g transform="translate(81.425 438.369812) scale(0.18 -0.18)">
       <defs>
        <path id="DejaVuSans-30" d="M 2034 4250 
Q 1547 4250 1301 3770 
Q 1056 3291 1056 2328 
Q 1056 1369 1301 889 
Q 1547 409 2034 409 
Q 2525 409 2770 889 
Q 3016 1369 3016 2328 
Q 3016 3291 2770 3770 
Q 2525 4250 2034 4250 
z
M 2034 4750 
Q 2819 4750 3233 4129 
Q 3647 3509 3647 2328 
Q 3647 1150 3233 529 
Q 2819 -91 2034 -91 
Q 1250 -91 836 529 
Q 422 1150 422 2328 
Q 422 3509 836 4129 
Q 1250 4750 2034 4750 
z
" transform="scale(0.015625)"/>
       </defs>
       <use xlink:href="#DejaVuSans-30"/>
      </g>
     </g>
    </g>
    <g id="xtick_2">
     <g id="line2d_3">
      <path d="M 159.933859 417.692625 
L 159.933859 29.612625 
" clip-path="url(#p5331b2750a)" style="fill: none; stroke: #b0b0b0; stroke-opacity: 0.3; stroke-width: 0.8; stroke-linecap: square"/>
     </g>
     <g id="line2d_4">
      <g>
       <use xlink:href="#m2867908a7b" x="159.933859" y="417.692625" style="stroke: #000000; stroke-width: 0.8"/>
      </g>
     </g>
     <g id="text_2">
      <!-- 200 -->
      <g transform="translate(142.755109 438.369812) scale(0.18 -0.18)">
       <defs>
        <path id="DejaVuSans-32" d="M 1228 531 
L 3431 531 
L 3431 0 
L 469 0 
L 469 531 
Q 828 903 1448 1529 
Q 2069 2156 2228 2338 
Q 2531 2678 2651 2914 
Q 2772 3150 2772 3378 
Q 2772 3750 2511 3984 
Q 2250 4219 1831 4219 
Q 1534 4219 1204 4116 
Q 875 4013 500 3803 
L 500 4441 
Q 881 4594 1212 4672 
Q 1544 4750 1819 4750 
Q 2544 4750 2975 4387 
Q 3406 4025 3406 3419 
Q 3406 3131 3298 2873 
Q 3191 2616 2906 2266 
Q 2828 2175 2409 1742 
Q 1991 1309 1228 531 
z
" transform="scale(0.015625)"/>
       </defs>
       <use xlink:href="#DejaVuSans-32"/>
       <use xlink:href="#DejaVuSans-30" transform="translate(63.623047 0)"/>
       <use xlink:href="#DejaVuSans-30" transform="translate(127.246094 0)"/>
      </g>
     </g>
    </g>
    <g id="xtick_3">
     <g id="line2d_5">
      <path d="M 232.716467 417.692625 
L 232.716467 29.612625 
" clip-path="url(#p5331b2750a)" style="fill: none; stroke: #b0b0b0; stroke-opacity: 0.3; stroke-width: 0.8; stroke-linecap: square"/>
     </g>
     <g id="line2d_6">
      <g>
       <use xlink:href="#m2867908a7b" x="232.716467" y="417.692625" style="stroke: #000000; stroke-width: 0.8"/>
      </g>
     </g>
     <g id="text_3">
      <!-- 400 -->
      <g transform="translate(215.537717 438.369812) scale(0.18 -0.18)">
       <defs>
        <path id="DejaVuSans-34" d="M 2419 4116 
L 825 1625 
L 2419 1625 
L 2419 4116 
z
M 2253 4666 
L 3047 4666 
L 3047 1625 
L 3713 1625 
L 3713 1100 
L 3047 1100 
L 3047 0 
L 2419 0 
L 2419 1100 
L 313 1100 
L 313 1709 
L 2253 4666 
z
" transform="scale(0.015625)"/>
       </defs>
       <use xlink:href="#DejaVuSans-34"/>
       <use xlink:href="#DejaVuSans-30" transform="translate(63.623047 0)"/>
       <use xlink:href="#DejaVuSans-30" transform="translate(127.246094 0)"/>
      </g>
     </g>
    </g>
    <g id="xtick_4">
     <g id="line2d_7">
      <path d="M 305.499076 417.692625 
L 305.499076 29.612625 
" clip-path="url(#p5331b2750a)" style="fill: none; stroke: #b0b0b0; stroke-opacity: 0.3; stroke-width: 0.8; stroke-linecap: square"/>
     </g>
     <g id="line2d_8">
      <g>
       <use xlink:href="#m2867908a7b" x="305.499076" y="417.692625" style="stroke: #000000; stroke-width: 0.8"/>
      </g>
     </g>
     <g id="text_4">
      <!-- 600 -->
      <g transform="translate(288.320326 438.369812) scale(0.18 -0.18)">
       <defs>
        <path id="DejaVuSans-36" d="M 2113 2584 
Q 1688 2584 1439 2293 
Q 1191 2003 1191 1497 
Q 1191 994 1439 701 
Q 1688 409 2113 409 
Q 2538 409 2786 701 
Q 3034 994 3034 1497 
Q 3034 2003 2786 2293 
Q 2538 2584 2113 2584 
z
M 3366 4563 
L 3366 3988 
Q 3128 4100 2886 4159 
Q 2644 4219 2406 4219 
Q 1781 4219 1451 3797 
Q 1122 3375 1075 2522 
Q 1259 2794 1537 2939 
Q 1816 3084 2150 3084 
Q 2853 3084 3261 2657 
Q 3669 2231 3669 1497 
Q 3669 778 3244 343 
Q 2819 -91 2113 -91 
Q 1303 -91 875 529 
Q 447 1150 447 2328 
Q 447 3434 972 4092 
Q 1497 4750 2381 4750 
Q 2619 4750 2861 4703 
Q 3103 4656 3366 4563 
z
" transform="scale(0.015625)"/>
       </defs>
       <use xlink:href="#DejaVuSans-36"/>
       <use xlink:href="#DejaVuSans-30" transform="translate(63.623047 0)"/>
       <use xlink:href="#DejaVuSans-30" transform="translate(127.246094 0)"/>
      </g>
     </g>
    </g>
    <g id="xtick_5">
     <g id="line2d_9">
      <path d="M 378.281685 417.692625 
L 378.281685 29.612625 
" clip-path="url(#p5331b2750a)" style="fill: none; stroke: #b0b0b0; stroke-opacity: 0.3; stroke-width: 0.8; stroke-linecap: square"/>
     </g>
     <g id="line2d_10">
      <g>
       <use xlink:href="#m2867908a7b" x="378.281685" y="417.692625" style="stroke: #000000; stroke-width: 0.8"/>
      </g>
     </g>
     <g id="text_5">
      <!-- 800 -->
      <g transform="translate(361.102935 438.369812) scale(0.18 -0.18)">
       <defs>
        <path id="DejaVuSans-38" d="M 2034 2216 
Q 1584 2216 1326 1975 
Q 1069 1734 1069 1313 
Q 1069 891 1326 650 
Q 1584 409 2034 409 
Q 2484 409 2743 651 
Q 3003 894 3003 1313 
Q 3003 1734 2745 1975 
Q 2488 2216 2034 2216 
z
M 1403 2484 
Q 997 2584 770 2862 
Q 544 3141 544 3541 
Q 544 4100 942 4425 
Q 1341 4750 2034 4750 
Q 2731 4750 3128 4425 
Q 3525 4100 3525 3541 
Q 3525 3141 3298 2862 
Q 3072 2584 2669 2484 
Q 3125 2378 3379 2068 
Q 3634 1759 3634 1313 
Q 3634 634 3220 271 
Q 2806 -91 2034 -91 
Q 1263 -91 848 271 
Q 434 634 434 1313 
Q 434 1759 690 2068 
Q 947 2378 1403 2484 
z
M 1172 3481 
Q 1172 3119 1398 2916 
Q 1625 2713 2034 2713 
Q 2441 2713 2670 2916 
Q 2900 3119 2900 3481 
Q 2900 3844 2670 4047 
Q 2441 4250 2034 4250 
Q 1625 4250 1398 4047 
Q 1172 3844 1172 3481 
z
" transform="scale(0.015625)"/>
       </defs>
       <use xlink:href="#DejaVuSans-38"/>
       <use xlink:href="#DejaVuSans-30" transform="translate(63.623047 0)"/>
       <use xlink:href="#DejaVuSans-30" transform="translate(127.246094 0)"/>
      </g>
     </g>
    </g>
    <g id="xtick_6">
     <g id="line2d_11">
      <path d="M 451.064293 417.692625 
L 451.064293 29.612625 
" clip-path="url(#p5331b2750a)" style="fill: none; stroke: #b0b0b0; stroke-opacity: 0.3; stroke-width: 0.8; stroke-linecap: square"/>
     </g>
     <g id="line2d_12">
      <g>
       <use xlink:href="#m2867908a7b" x="451.064293" y="417.692625" style="stroke: #000000; stroke-width: 0.8"/>
      </g>
     </g>
     <g id="text_6">
      <!-- 1000 -->
      <g transform="translate(428.159293 438.369812) scale(0.18 -0.18)">
       <defs>
        <path id="DejaVuSans-31" d="M 794 531 
L 1825 531 
L 1825 4091 
L 703 3866 
L 703 4441 
L 1819 4666 
L 2450 4666 
L 2450 531 
L 3481 531 
L 3481 0 
L 794 0 
L 794 531 
z
" transform="scale(0.015625)"/>
       </defs>
       <use xlink:href="#DejaVuSans-31"/>
       <use xlink:href="#DejaVuSans-30" transform="translate(63.623047 0)"/>
       <use xlink:href="#DejaVuSans-30" transform="translate(127.246094 0)"/>
       <use xlink:href="#DejaVuSans-30" transform="translate(190.869141 0)"/>
      </g>
     </g>
    </g>
    <g id="text_7">
     <!-- Gradient Magnitude -->
     <g transform="translate(179.39324 459.790437) scale(0.18 -0.18)">
      <defs>
       <path id="DejaVuSans-47" d="M 3809 666 
L 3809 1919 
L 2778 1919 
L 2778 2438 
L 4434 2438 
L 4434 434 
Q 4069 175 3628 42 
Q 3188 -91 2688 -91 
Q 1594 -91 976 548 
Q 359 1188 359 2328 
Q 359 3472 976 4111 
Q 1594 4750 2688 4750 
Q 3144 4750 3555 4637 
Q 3966 4525 4313 4306 
L 4313 3634 
Q 3963 3931 3569 4081 
Q 3175 4231 2741 4231 
Q 1884 4231 1454 3753 
Q 1025 3275 1025 2328 
Q 1025 1384 1454 906 
Q 1884 428 2741 428 
Q 3075 428 3337 486 
Q 3600 544 3809 666 
z
" transform="scale(0.015625)"/>
       <path id="DejaVuSans-72" d="M 2631 2963 
Q 2534 3019 2420 3045 
Q 2306 3072 2169 3072 
Q 1681 3072 1420 2755 
Q 1159 2438 1159 1844 
L 1159 0 
L 581 0 
L 581 3500 
L 1159 3500 
L 1159 2956 
Q 1341 3275 1631 3429 
Q 1922 3584 2338 3584 
Q 2397 3584 2469 3576 
Q 2541 3569 2628 3553 
L 2631 2963 
z
" transform="scale(0.015625)"/>
       <path id="DejaVuSans-61" d="M 2194 1759 
Q 1497 1759 1228 1600 
Q 959 1441 959 1056 
Q 959 750 1161 570 
Q 1363 391 1709 391 
Q 2188 391 2477 730 
Q 2766 1069 2766 1631 
L 2766 1759 
L 2194 1759 
z
M 3341 1997 
L 3341 0 
L 2766 0 
L 2766 531 
Q 2569 213 2275 61 
Q 1981 -91 1556 -91 
Q 1019 -91 701 211 
Q 384 513 384 1019 
Q 384 1609 779 1909 
Q 1175 2209 1959 2209 
L 2766 2209 
L 2766 2266 
Q 2766 2663 2505 2880 
Q 2244 3097 1772 3097 
Q 1472 3097 1187 3025 
Q 903 2953 641 2809 
L 641 3341 
Q 956 3463 1253 3523 
Q 1550 3584 1831 3584 
Q 2591 3584 2966 3190 
Q 3341 2797 3341 1997 
z
" transform="scale(0.015625)"/>
       <path id="DejaVuSans-64" d="M 2906 2969 
L 2906 4863 
L 3481 4863 
L 3481 0 
L 2906 0 
L 2906 525 
Q 2725 213 2448 61 
Q 2172 -91 1784 -91 
Q 1150 -91 751 415 
Q 353 922 353 1747 
Q 353 2572 751 3078 
Q 1150 3584 1784 3584 
Q 2172 3584 2448 3432 
Q 2725 3281 2906 2969 
z
M 947 1747 
Q 947 1113 1208 752 
Q 1469 391 1925 391 
Q 2381 391 2643 752 
Q 2906 1113 2906 1747 
Q 2906 2381 2643 2742 
Q 2381 3103 1925 3103 
Q 1469 3103 1208 2742 
Q 947 2381 947 1747 
z
" transform="scale(0.015625)"/>
       <path id="DejaVuSans-69" d="M 603 3500 
L 1178 3500 
L 1178 0 
L 603 0 
L 603 3500 
z
M 603 4863 
L 1178 4863 
L 1178 4134 
L 603 4134 
L 603 4863 
z
" transform="scale(0.015625)"/>
       <path id="DejaVuSans-65" d="M 3597 1894 
L 3597 1613 
L 953 1613 
Q 991 1019 1311 708 
Q 1631 397 2203 397 
Q 2534 397 2845 478 
Q 3156 559 3463 722 
L 3463 178 
Q 3153 47 2828 -22 
Q 2503 -91 2169 -91 
Q 1331 -91 842 396 
Q 353 884 353 1716 
Q 353 2575 817 3079 
Q 1281 3584 2069 3584 
Q 2775 3584 3186 3129 
Q 3597 2675 3597 1894 
z
M 3022 2063 
Q 3016 2534 2758 2815 
Q 2500 3097 2075 3097 
Q 1594 3097 1305 2825 
Q 1016 2553 972 2059 
L 3022 2063 
z
" transform="scale(0.015625)"/>
       <path id="DejaVuSans-6e" d="M 3513 2113 
L 3513 0 
L 2938 0 
L 2938 2094 
Q 2938 2591 2744 2837 
Q 2550 3084 2163 3084 
Q 1697 3084 1428 2787 
Q 1159 2491 1159 1978 
L 1159 0 
L 581 0 
L 581 3500 
L 1159 3500 
L 1159 2956 
Q 1366 3272 1645 3428 
Q 1925 3584 2291 3584 
Q 2894 3584 3203 3211 
Q 3513 2838 3513 2113 
z
" transform="scale(0.015625)"/>
       <path id="DejaVuSans-74" d="M 1172 4494 
L 1172 3500 
L 2356 3500 
L 2356 3053 
L 1172 3053 
L 1172 1153 
Q 1172 725 1289 603 
Q 1406 481 1766 481 
L 2356 481 
L 2356 0 
L 1766 0 
Q 1100 0 847 248 
Q 594 497 594 1153 
L 594 3053 
L 172 3053 
L 172 3500 
L 594 3500 
L 594 4494 
L 1172 4494 
z
" transform="scale(0.015625)"/>
       <path id="DejaVuSans-20" transform="scale(0.015625)"/>
       <path id="DejaVuSans-4d" d="M 628 4666 
L 1569 4666 
L 2759 1491 
L 3956 4666 
L 4897 4666 
L 4897 0 
L 4281 0 
L 4281 4097 
L 3078 897 
L 2444 897 
L 1241 4097 
L 1241 0 
L 628 0 
L 628 4666 
z
" transform="scale(0.015625)"/>
       <path id="DejaVuSans-67" d="M 2906 1791 
Q 2906 2416 2648 2759 
Q 2391 3103 1925 3103 
Q 1463 3103 1205 2759 
Q 947 2416 947 1791 
Q 947 1169 1205 825 
Q 1463 481 1925 481 
Q 2391 481 2648 825 
Q 2906 1169 2906 1791 
z
M 3481 434 
Q 3481 -459 3084 -895 
Q 2688 -1331 1869 -1331 
Q 1566 -1331 1297 -1286 
Q 1028 -1241 775 -1147 
L 775 -588 
Q 1028 -725 1275 -790 
Q 1522 -856 1778 -856 
Q 2344 -856 2625 -561 
Q 2906 -266 2906 331 
L 2906 616 
Q 2728 306 2450 153 
Q 2172 0 1784 0 
Q 1141 0 747 490 
Q 353 981 353 1791 
Q 353 2603 747 3093 
Q 1141 3584 1784 3584 
Q 2172 3584 2450 3431 
Q 2728 3278 2906 2969 
L 2906 3500 
L 3481 3500 
L 3481 434 
z
" transform="scale(0.015625)"/>
       <path id="DejaVuSans-75" d="M 544 1381 
L 544 3500 
L 1119 3500 
L 1119 1403 
Q 1119 906 1312 657 
Q 1506 409 1894 409 
Q 2359 409 2629 706 
Q 2900 1003 2900 1516 
L 2900 3500 
L 3475 3500 
L 3475 0 
L 2900 0 
L 2900 538 
Q 2691 219 2414 64 
Q 2138 -91 1772 -91 
Q 1169 -91 856 284 
Q 544 659 544 1381 
z
M 1991 3584 
L 1991 3584 
z
" transform="scale(0.015625)"/>
      </defs>
      <use xlink:href="#DejaVuSans-47"/>
      <use xlink:href="#DejaVuSans-72" transform="translate(77.490234 0)"/>
      <use xlink:href="#DejaVuSans-61" transform="translate(118.603516 0)"/>
      <use xlink:href="#DejaVuSans-64" transform="translate(179.882812 0)"/>
      <use xlink:href="#DejaVuSans-69" transform="translate(243.359375 0)"/>
      <use xlink:href="#DejaVuSans-65" transform="translate(271.142578 0)"/>
      <use xlink:href="#DejaVuSans-6e" transform="translate(332.666016 0)"/>
      <use xlink:href="#DejaVuSans-74" transform="translate(396.044922 0)"/>
      <use xlink:href="#DejaVuSans-20" transform="translate(435.253906 0)"/>
      <use xlink:href="#DejaVuSans-4d" transform="translate(467.041016 0)"/>
      <use xlink:href="#DejaVuSans-61" transform="translate(553.320312 0)"/>
      <use xlink:href="#DejaVuSans-67" transform="translate(614.599609 0)"/>
      <use xlink:href="#DejaVuSans-6e" transform="translate(678.076172 0)"/>
      <use xlink:href="#DejaVuSans-69" transform="translate(741.455078 0)"/>
      <use xlink:href="#DejaVuSans-74" transform="translate(769.238281 0)"/>
      <use xlink:href="#DejaVuSans-75" transform="translate(808.447266 0)"/>
      <use xlink:href="#DejaVuSans-64" transform="translate(871.826172 0)"/>
      <use xlink:href="#DejaVuSans-65" transform="translate(935.302734 0)"/>
     </g>
    </g>
   </g>
   <g id="matplotlib.axis_2">
    <g id="ytick_1">
     <g id="line2d_13">
      <path d="M 87.15125 417.692625 
L 451.064293 417.692625 
" clip-path="url(#p5331b2750a)" style="fill: none; stroke: #b0b0b0; stroke-opacity: 0.3; stroke-width: 0.8; stroke-linecap: square"/>
     </g>
     <g id="line2d_14">
      <defs>
       <path id="meb8eea61ad" d="M 0 0 
L -3.5 0 
" style="stroke: #000000; stroke-width: 0.8"/>
      </defs>
      <g>
       <use xlink:href="#meb8eea61ad" x="87.15125" y="417.692625" style="stroke: #000000; stroke-width: 0.8"/>
      </g>
     </g>
     <g id="text_8">
      <!-- 0.000 -->
      <g transform="translate(28.620625 424.531219) scale(0.18 -0.18)">
       <defs>
        <path id="DejaVuSans-2e" d="M 684 794 
L 1344 794 
L 1344 0 
L 684 0 
L 684 794 
z
" transform="scale(0.015625)"/>
       </defs>
       <use xlink:href="#DejaVuSans-30"/>
       <use xlink:href="#DejaVuSans-2e" transform="translate(63.623047 0)"/>
       <use xlink:href="#DejaVuSans-30" transform="translate(95.410156 0)"/>
       <use xlink:href="#DejaVuSans-30" transform="translate(159.033203 0)"/>
       <use xlink:href="#DejaVuSans-30" transform="translate(222.65625 0)"/>
      </g>
     </g>
    </g>
    <g id="ytick_2">
     <g id="line2d_15">
      <path d="M 87.15125 369.182625 
L 451.064293 369.182625 
" clip-path="url(#p5331b2750a)" style="fill: none; stroke: #b0b0b0; stroke-opacity: 0.3; stroke-width: 0.8; stroke-linecap: square"/>
     </g>
     <g id="line2d_16">
      <g>
       <use xlink:href="#meb8eea61ad" x="87.15125" y="369.182625" style="stroke: #000000; stroke-width: 0.8"/>
      </g>
     </g>
     <g id="text_9">
      <!-- 0.025 -->
      <g transform="translate(28.620625 376.021219) scale(0.18 -0.18)">
       <defs>
        <path id="DejaVuSans-35" d="M 691 4666 
L 3169 4666 
L 3169 4134 
L 1269 4134 
L 1269 2991 
Q 1406 3038 1543 3061 
Q 1681 3084 1819 3084 
Q 2600 3084 3056 2656 
Q 3513 2228 3513 1497 
Q 3513 744 3044 326 
Q 2575 -91 1722 -91 
Q 1428 -91 1123 -41 
Q 819 9 494 109 
L 494 744 
Q 775 591 1075 516 
Q 1375 441 1709 441 
Q 2250 441 2565 725 
Q 2881 1009 2881 1497 
Q 2881 1984 2565 2268 
Q 2250 2553 1709 2553 
Q 1456 2553 1204 2497 
Q 953 2441 691 2322 
L 691 4666 
z
" transform="scale(0.015625)"/>
       </defs>
       <use xlink:href="#DejaVuSans-30"/>
       <use xlink:href="#DejaVuSans-2e" transform="translate(63.623047 0)"/>
       <use xlink:href="#DejaVuSans-30" transform="translate(95.410156 0)"/>
       <use xlink:href="#DejaVuSans-32" transform="translate(159.033203 0)"/>
       <use xlink:href="#DejaVuSans-35" transform="translate(222.65625 0)"/>
      </g>
     </g>
    </g>
    <g id="ytick_3">
     <g id="line2d_17">
      <path d="M 87.15125 320.672625 
L 451.064293 320.672625 
" clip-path="url(#p5331b2750a)" style="fill: none; stroke: #b0b0b0; stroke-opacity: 0.3; stroke-width: 0.8; stroke-linecap: square"/>
     </g>
     <g id="line2d_18">
      <g>
       <use xlink:href="#meb8eea61ad" x="87.15125" y="320.672625" style="stroke: #000000; stroke-width: 0.8"/>
      </g>
     </g>
     <g id="text_10">
      <!-- 0.050 -->
      <g transform="translate(28.620625 327.511219) scale(0.18 -0.18)">
       <use xlink:href="#DejaVuSans-30"/>
       <use xlink:href="#DejaVuSans-2e" transform="translate(63.623047 0)"/>
       <use xlink:href="#DejaVuSans-30" transform="translate(95.410156 0)"/>
       <use xlink:href="#DejaVuSans-35" transform="translate(159.033203 0)"/>
       <use xlink:href="#DejaVuSans-30" transform="translate(222.65625 0)"/>
      </g>
     </g>
    </g>
    <g id="ytick_4">
     <g id="line2d_19">
      <path d="M 87.15125 272.162625 
L 451.064293 272.162625 
" clip-path="url(#p5331b2750a)" style="fill: none; stroke: #b0b0b0; stroke-opacity: 0.3; stroke-width: 0.8; stroke-linecap: square"/>
     </g>
     <g id="line2d_20">
      <g>
       <use xlink:href="#meb8eea61ad" x="87.15125" y="272.162625" style="stroke: #000000; stroke-width: 0.8"/>
      </g>
     </g>
     <g id="text_11">
      <!-- 0.075 -->
      <g transform="translate(28.620625 279.001219) scale(0.18 -0.18)">
       <defs>
        <path id="DejaVuSans-37" d="M 525 4666 
L 3525 4666 
L 3525 4397 
L 1831 0 
L 1172 0 
L 2766 4134 
L 525 4134 
L 525 4666 
z
" transform="scale(0.015625)"/>
       </defs>
       <use xlink:href="#DejaVuSans-30"/>
       <use xlink:href="#DejaVuSans-2e" transform="translate(63.623047 0)"/>
       <use xlink:href="#DejaVuSans-30" transform="translate(95.410156 0)"/>
       <use xlink:href="#DejaVuSans-37" transform="translate(159.033203 0)"/>
       <use xlink:href="#DejaVuSans-35" transform="translate(222.65625 0)"/>
      </g>
     </g>
    </g>
    <g id="ytick_5">
     <g id="line2d_21">
      <path d="M 87.15125 223.652625 
L 451.064293 223.652625 
" clip-path="url(#p5331b2750a)" style="fill: none; stroke: #b0b0b0; stroke-opacity: 0.3; stroke-width: 0.8; stroke-linecap: square"/>
     </g>
     <g id="line2d_22">
      <g>
       <use xlink:href="#meb8eea61ad" x="87.15125" y="223.652625" style="stroke: #000000; stroke-width: 0.8"/>
      </g>
     </g>
     <g id="text_12">
      <!-- 0.100 -->
      <g transform="translate(28.620625 230.491219) scale(0.18 -0.18)">
       <use xlink:href="#DejaVuSans-30"/>
       <use xlink:href="#DejaVuSans-2e" transform="translate(63.623047 0)"/>
       <use xlink:href="#DejaVuSans-31" transform="translate(95.410156 0)"/>
       <use xlink:href="#DejaVuSans-30" transform="translate(159.033203 0)"/>
       <use xlink:href="#DejaVuSans-30" transform="translate(222.65625 0)"/>
      </g>
     </g>
    </g>
    <g id="ytick_6">
     <g id="line2d_23">
      <path d="M 87.15125 175.142625 
L 451.064293 175.142625 
" clip-path="url(#p5331b2750a)" style="fill: none; stroke: #b0b0b0; stroke-opacity: 0.3; stroke-width: 0.8; stroke-linecap: square"/>
     </g>
     <g id="line2d_24">
      <g>
       <use xlink:href="#meb8eea61ad" x="87.15125" y="175.142625" style="stroke: #000000; stroke-width: 0.8"/>
      </g>
     </g>
     <g id="text_13">
      <!-- 0.125 -->
      <g transform="translate(28.620625 181.981219) scale(0.18 -0.18)">
       <use xlink:href="#DejaVuSans-30"/>
       <use xlink:href="#DejaVuSans-2e" transform="translate(63.623047 0)"/>
       <use xlink:href="#DejaVuSans-31" transform="translate(95.410156 0)"/>
       <use xlink:href="#DejaVuSans-32" transform="translate(159.033203 0)"/>
       <use xlink:href="#DejaVuSans-35" transform="translate(222.65625 0)"/>
      </g>
     </g>
    </g>
    <g id="ytick_7">
     <g id="line2d_25">
      <path d="M 87.15125 126.632625 
L 451.064293 126.632625 
" clip-path="url(#p5331b2750a)" style="fill: none; stroke: #b0b0b0; stroke-opacity: 0.3; stroke-width: 0.8; stroke-linecap: square"/>
     </g>
     <g id="line2d_26">
      <g>
       <use xlink:href="#meb8eea61ad" x="87.15125" y="126.632625" style="stroke: #000000; stroke-width: 0.8"/>
      </g>
     </g>
     <g id="text_14">
      <!-- 0.150 -->
      <g transform="translate(28.620625 133.471219) scale(0.18 -0.18)">
       <use xlink:href="#DejaVuSans-30"/>
       <use xlink:href="#DejaVuSans-2e" transform="translate(63.623047 0)"/>
       <use xlink:href="#DejaVuSans-31" transform="translate(95.410156 0)"/>
       <use xlink:href="#DejaVuSans-35" transform="translate(159.033203 0)"/>
       <use xlink:href="#DejaVuSans-30" transform="translate(222.65625 0)"/>
      </g>
     </g>
    </g>
    <g id="ytick_8">
     <g id="line2d_27">
      <path d="M 87.15125 78.122625 
L 451.064293 78.122625 
" clip-path="url(#p5331b2750a)" style="fill: none; stroke: #b0b0b0; stroke-opacity: 0.3; stroke-width: 0.8; stroke-linecap: square"/>
     </g>
     <g id="line2d_28">
      <g>
       <use xlink:href="#meb8eea61ad" x="87.15125" y="78.122625" style="stroke: #000000; stroke-width: 0.8"/>
      </g>
     </g>
     <g id="text_15">
      <!-- 0.175 -->
      <g transform="translate(28.620625 84.961219) scale(0.18 -0.18)">
       <use xlink:href="#DejaVuSans-30"/>
       <use xlink:href="#DejaVuSans-2e" transform="translate(63.623047 0)"/>
       <use xlink:href="#DejaVuSans-31" transform="translate(95.410156 0)"/>
       <use xlink:href="#DejaVuSans-37" transform="translate(159.033203 0)"/>
       <use xlink:href="#DejaVuSans-35" transform="translate(222.65625 0)"/>
      </g>
     </g>
    </g>
    <g id="ytick_9">
     <g id="line2d_29">
      <path d="M 87.15125 29.612625 
L 451.064293 29.612625 
" clip-path="url(#p5331b2750a)" style="fill: none; stroke: #b0b0b0; stroke-opacity: 0.3; stroke-width: 0.8; stroke-linecap: square"/>
     </g>
     <g id="line2d_30">
      <g>
       <use xlink:href="#meb8eea61ad" x="87.15125" y="29.612625" style="stroke: #000000; stroke-width: 0.8"/>
      </g>
     </g>
     <g id="text_16">
      <!-- 0.200 -->
      <g transform="translate(28.620625 36.451219) scale(0.18 -0.18)">
       <use xlink:href="#DejaVuSans-30"/>
       <use xlink:href="#DejaVuSans-2e" transform="translate(63.623047 0)"/>
       <use xlink:href="#DejaVuSans-32" transform="translate(95.410156 0)"/>
       <use xlink:href="#DejaVuSans-30" transform="translate(159.033203 0)"/>
       <use xlink:href="#DejaVuSans-30" transform="translate(222.65625 0)"/>
      </g>
     </g>
    </g>
    <g id="text_17">
     <!-- Normalized Frequency -->
     <g transform="translate(20.877187 324.046219) rotate(-90) scale(0.18 -0.18)">
      <defs>
       <path id="DejaVuSans-4e" d="M 628 4666 
L 1478 4666 
L 3547 763 
L 3547 4666 
L 4159 4666 
L 4159 0 
L 3309 0 
L 1241 3903 
L 1241 0 
L 628 0 
L 628 4666 
z
" transform="scale(0.015625)"/>
       <path id="DejaVuSans-6f" d="M 1959 3097 
Q 1497 3097 1228 2736 
Q 959 2375 959 1747 
Q 959 1119 1226 758 
Q 1494 397 1959 397 
Q 2419 397 2687 759 
Q 2956 1122 2956 1747 
Q 2956 2369 2687 2733 
Q 2419 3097 1959 3097 
z
M 1959 3584 
Q 2709 3584 3137 3096 
Q 3566 2609 3566 1747 
Q 3566 888 3137 398 
Q 2709 -91 1959 -91 
Q 1206 -91 779 398 
Q 353 888 353 1747 
Q 353 2609 779 3096 
Q 1206 3584 1959 3584 
z
" transform="scale(0.015625)"/>
       <path id="DejaVuSans-6d" d="M 3328 2828 
Q 3544 3216 3844 3400 
Q 4144 3584 4550 3584 
Q 5097 3584 5394 3201 
Q 5691 2819 5691 2113 
L 5691 0 
L 5113 0 
L 5113 2094 
Q 5113 2597 4934 2840 
Q 4756 3084 4391 3084 
Q 3944 3084 3684 2787 
Q 3425 2491 3425 1978 
L 3425 0 
L 2847 0 
L 2847 2094 
Q 2847 2600 2669 2842 
Q 2491 3084 2119 3084 
Q 1678 3084 1418 2786 
Q 1159 2488 1159 1978 
L 1159 0 
L 581 0 
L 581 3500 
L 1159 3500 
L 1159 2956 
Q 1356 3278 1631 3431 
Q 1906 3584 2284 3584 
Q 2666 3584 2933 3390 
Q 3200 3197 3328 2828 
z
" transform="scale(0.015625)"/>
       <path id="DejaVuSans-6c" d="M 603 4863 
L 1178 4863 
L 1178 0 
L 603 0 
L 603 4863 
z
" transform="scale(0.015625)"/>
       <path id="DejaVuSans-7a" d="M 353 3500 
L 3084 3500 
L 3084 2975 
L 922 459 
L 3084 459 
L 3084 0 
L 275 0 
L 275 525 
L 2438 3041 
L 353 3041 
L 353 3500 
z
" transform="scale(0.015625)"/>
       <path id="DejaVuSans-46" d="M 628 4666 
L 3309 4666 
L 3309 4134 
L 1259 4134 
L 1259 2759 
L 3109 2759 
L 3109 2228 
L 1259 2228 
L 1259 0 
L 628 0 
L 628 4666 
z
" transform="scale(0.015625)"/>
       <path id="DejaVuSans-71" d="M 947 1747 
Q 947 1113 1208 752 
Q 1469 391 1925 391 
Q 2381 391 2643 752 
Q 2906 1113 2906 1747 
Q 2906 2381 2643 2742 
Q 2381 3103 1925 3103 
Q 1469 3103 1208 2742 
Q 947 2381 947 1747 
z
M 2906 525 
Q 2725 213 2448 61 
Q 2172 -91 1784 -91 
Q 1150 -91 751 415 
Q 353 922 353 1747 
Q 353 2572 751 3078 
Q 1150 3584 1784 3584 
Q 2172 3584 2448 3432 
Q 2725 3281 2906 2969 
L 2906 3500 
L 3481 3500 
L 3481 -1331 
L 2906 -1331 
L 2906 525 
z
" transform="scale(0.015625)"/>
       <path id="DejaVuSans-63" d="M 3122 3366 
L 3122 2828 
Q 2878 2963 2633 3030 
Q 2388 3097 2138 3097 
Q 1578 3097 1268 2742 
Q 959 2388 959 1747 
Q 959 1106 1268 751 
Q 1578 397 2138 397 
Q 2388 397 2633 464 
Q 2878 531 3122 666 
L 3122 134 
Q 2881 22 2623 -34 
Q 2366 -91 2075 -91 
Q 1284 -91 818 406 
Q 353 903 353 1747 
Q 353 2603 823 3093 
Q 1294 3584 2113 3584 
Q 2378 3584 2631 3529 
Q 2884 3475 3122 3366 
z
" transform="scale(0.015625)"/>
       <path id="DejaVuSans-79" d="M 2059 -325 
Q 1816 -950 1584 -1140 
Q 1353 -1331 966 -1331 
L 506 -1331 
L 506 -850 
L 844 -850 
Q 1081 -850 1212 -737 
Q 1344 -625 1503 -206 
L 1606 56 
L 191 3500 
L 800 3500 
L 1894 763 
L 2988 3500 
L 3597 3500 
L 2059 -325 
z
" transform="scale(0.015625)"/>
      </defs>
      <use xlink:href="#DejaVuSans-4e"/>
      <use xlink:href="#DejaVuSans-6f" transform="translate(74.804688 0)"/>
      <use xlink:href="#DejaVuSans-72" transform="translate(135.986328 0)"/>
      <use xlink:href="#DejaVuSans-6d" transform="translate(175.349609 0)"/>
      <use xlink:href="#DejaVuSans-61" transform="translate(272.761719 0)"/>
      <use xlink:href="#DejaVuSans-6c" transform="translate(334.041016 0)"/>
      <use xlink:href="#DejaVuSans-69" transform="translate(361.824219 0)"/>
      <use xlink:href="#DejaVuSans-7a" transform="translate(389.607422 0)"/>
      <use xlink:href="#DejaVuSans-65" transform="translate(442.097656 0)"/>
      <use xlink:href="#DejaVuSans-64" transform="translate(503.621094 0)"/>
      <use xlink:href="#DejaVuSans-20" transform="translate(567.097656 0)"/>
      <use xlink:href="#DejaVuSans-46" transform="translate(598.884766 0)"/>
      <use xlink:href="#DejaVuSans-72" transform="translate(649.154297 0)"/>
      <use xlink:href="#DejaVuSans-65" transform="translate(688.017578 0)"/>
      <use xlink:href="#DejaVuSans-71" transform="translate(749.541016 0)"/>
      <use xlink:href="#DejaVuSans-75" transform="translate(813.017578 0)"/>
      <use xlink:href="#DejaVuSans-65" transform="translate(876.396484 0)"/>
      <use xlink:href="#DejaVuSans-6e" transform="translate(937.919922 0)"/>
      <use xlink:href="#DejaVuSans-63" transform="translate(1001.298828 0)"/>
      <use xlink:href="#DejaVuSans-79" transform="translate(1056.279297 0)"/>
     </g>
    </g>
   </g>
   <g id="line2d_31">
    <path d="M 97.78787 393.589228 
L 119.061109 415.978304 
L 140.334352 416.537212 
L 161.607589 416.626087 
L 182.880837 416.65681 
L 204.154069 416.724368 
L 225.427301 416.958633 
L 246.700555 417.208569 
L 267.973786 417.333873 
L 289.247018 417.369184 
L 310.520272 417.396943 
L 331.793504 417.432355 
L 353.066758 417.483147 
L 374.339989 417.538142 
L 395.613221 417.587162 
L 416.886475 417.623239 
L 438.159707 417.649915 
L 459.432939 417.666201 
L 480.706193 417.674869 
L 501.979424 417.678854 
L 523.2527 417.680978 
L 544.525888 417.682565 
L 565.799164 417.684024 
L 587.072351 417.685818 
L 608.345627 417.687042 
L 629.618903 417.688897 
L 650.892091 417.690445 
L 672.165367 417.690987 
L 693.438554 417.691446 
L 714.71183 417.691876 
L 735.985107 417.692139 
L 757.258294 417.692228 
L 778.53157 417.692357 
L 799.804757 417.692379 
L 821.078034 417.692485 
L 842.35131 417.692524 
L 863.624497 417.692524 
L 884.897773 417.692575 
L 906.17096 417.692547 
L 927.444237 417.692591 
L 932.35125 417.69259 
" clip-path="url(#p5331b2750a)" style="fill: none; stroke: #1f77b4; stroke-width: 1.5; stroke-linecap: square"/>
   </g>
   <g id="line2d_32">
    <path d="M 87.584399 47.617751 
L 88.450698 320.694022 
L 89.316997 348.153888 
L 90.183295 363.387394 
L 91.049594 375.3424 
L 91.915892 384.696016 
L 92.782191 391.874276 
L 93.64849 396.724355 
L 94.514788 400.623131 
L 95.381087 403.373943 
L 96.247385 405.577744 
L 97.113683 407.41815 
L 97.979983 408.94527 
L 98.846281 410.324752 
L 99.71258 411.341288 
L 100.578878 412.300345 
L 101.445176 413.281696 
L 102.311474 414.128569 
L 103.177774 414.871395 
L 104.044073 415.507796 
L 104.910371 416.028429 
L 105.77667 416.416849 
L 106.642968 416.738742 
L 107.509267 416.933145 
L 108.375565 417.099306 
L 109.241865 417.200104 
L 110.108163 417.309517 
L 110.974461 417.37624 
L 111.840759 417.444583 
L 112.707057 417.490577 
L 113.573358 417.538643 
L 114.439656 417.574402 
L 115.305954 417.604395 
L 116.172252 417.629918 
L 117.038553 417.650324 
L 117.904851 417.659393 
L 118.771149 417.671507 
L 119.637447 417.677337 
L 120.503745 417.684268 
L 121.370043 417.68673 
L 122.236344 417.687767 
L 123.102642 417.689516 
L 123.96894 417.690682 
L 124.835238 417.690941 
L 125.701536 417.691977 
L 126.567837 417.692236 
L 127.434135 417.692495 
L 128.300433 417.692495 
L 129.166731 417.69256 
L 130.033029 417.692495 
" clip-path="url(#p5331b2750a)" style="fill: none; stroke: #ff7f0e; stroke-width: 1.5; stroke-linecap: square"/>
   </g>
   <g id="line2d_33">
    <path d="M 87.552653 -1 
L 87.633418 276.967211 
L 87.954863 317.566947 
L 88.276309 317.402492 
L 88.597754 325.58211 
L 88.919199 333.647633 
L 89.240645 347.384488 
L 89.56209 361.38511 
L 89.883535 372.774679 
L 90.204981 381.261836 
L 90.526426 388.036288 
L 90.847871 393.287123 
L 91.169317 397.203703 
L 91.490762 399.863924 
L 91.812208 402.260956 
L 92.133653 404.003201 
L 92.455098 405.397421 
L 92.776544 406.61599 
L 93.097989 407.772077 
L 93.419434 408.840649 
L 93.74088 409.615944 
L 94.062324 410.538161 
L 94.38377 411.289933 
L 94.705215 411.941636 
L 95.026661 412.672585 
L 95.348106 413.407389 
L 95.669552 413.980811 
L 95.990997 414.4505 
L 96.312443 414.888182 
L 96.633887 415.330106 
L 96.955333 415.639954 
L 97.276778 415.899478 
L 97.598224 416.193708 
L 97.919669 416.381121 
L 98.241115 416.56275 
L 98.56256 416.754019 
L 98.884006 416.905376 
L 99.20545 417.063094 
L 99.526895 417.201921 
L 99.848341 417.290034 
L 100.169787 417.396082 
L 100.491232 417.480532 
L 100.812676 417.528543 
L 101.134123 417.582915 
L 101.455569 417.622635 
L 101.777013 417.64288 
L 102.098458 417.662546 
L 102.419904 417.675079 
L 102.74135 417.684334 
L 103.062795 417.690311 
" clip-path="url(#p5331b2750a)" style="fill: none; stroke: #2ca02c; stroke-width: 1.5; stroke-linecap: square"/>
   </g>
   <g id="line2d_34">
    <path d="M 95.654073 385.809996 
L 112.659719 416.461062 
L 129.665362 416.442132 
L 146.671012 416.33254 
L 163.67665 416.764645 
L 180.6823 416.747983 
L 197.687949 416.865584 
L 214.693587 417.081179 
L 231.699237 417.235468 
L 248.704875 417.324605 
L 265.710524 417.401244 
L 282.716174 417.466104 
L 299.721823 417.504917 
L 316.727473 417.525956 
L 333.7331 417.54251 
L 350.738749 417.556552 
L 367.744399 417.572207 
L 384.750048 417.585927 
L 401.755675 417.608668 
L 418.761325 417.637221 
L 435.766974 417.653937 
L 452.772624 417.661815 
L 469.778273 417.673945 
L 486.783922 417.681102 
L 503.789572 417.683359 
L 520.795221 417.686116 
L 537.800871 417.687248 
L 554.806476 417.688177 
L 571.812125 417.689201 
L 588.817774 417.690035 
L 605.823424 417.691303 
L 622.829073 417.69197 
L 639.834723 417.691928 
L 656.840372 417.691916 
L 673.846022 417.692053 
L 690.851671 417.692214 
L 707.85732 417.692208 
L 724.862925 417.692381 
L 741.868575 417.692434 
L 758.874224 417.692393 
L 775.879874 417.692458 
L 792.885523 417.6925 
L 809.891172 417.69247 
L 826.896822 417.692518 
L 843.902471 417.69253 
L 860.908121 417.692536 
L 877.91377 417.692571 
L 894.919419 417.692571 
L 911.925069 417.692607 
L 928.930718 417.692577 
" clip-path="url(#p5331b2750a)" style="fill: none; stroke: #d62728; stroke-width: 1.5; stroke-linecap: square"/>
   </g>
   <g id="line2d_35">
    <path d="M 88.525731 244.165766 
L 91.274694 393.652543 
L 94.023657 402.565721 
L 96.772619 406.464238 
L 99.521582 409.192496 
L 102.270544 411.471017 
L 105.019508 413.004453 
L 107.76847 414.07442 
L 110.517432 414.918825 
L 113.266398 415.655115 
L 116.015358 416.210939 
L 118.764319 416.591732 
L 121.513285 416.878617 
L 124.262245 417.106524 
L 127.011206 417.286172 
L 129.760172 417.417029 
L 132.509133 417.51114 
L 135.258093 417.577508 
L 138.007059 417.621521 
L 140.756026 417.653735 
L 143.504986 417.672517 
L 146.253947 417.683173 
L 149.002907 417.688154 
L 151.751873 417.690175 
L 154.500834 417.691196 
L 157.2498 417.691523 
L 159.998761 417.691972 
L 162.747721 417.6924 
L 165.496682 417.692319 
L 168.245648 417.692482 
L 170.994614 417.692564 
L 173.743575 417.692523 
L 176.492535 417.692523 
L 179.241496 417.692605 
L 181.990467 417.692564 
L 184.739428 417.692543 
L 187.488389 417.692584 
L 190.237349 417.692605 
L 192.98631 417.692584 
L 195.73527 417.692605 
L 198.484242 417.692625 
L 201.233203 417.692625 
L 203.982163 417.692605 
L 206.731124 417.692605 
L 209.480084 417.692625 
L 212.229056 417.692625 
L 214.978017 417.692625 
L 217.726977 417.692625 
L 220.475938 417.692625 
L 223.224898 417.692605 
" clip-path="url(#p5331b2750a)" style="fill: none; stroke: #9467bd; stroke-width: 1.5; stroke-linecap: square"/>
   </g>
   <g id="line2d_36">
    <path d="M 89.117073 317.049151 
L 93.048718 372.105781 
L 96.980364 402.72966 
L 100.912009 411.055735 
L 104.843656 413.479109 
L 108.775301 414.807244 
L 112.706946 415.886169 
L 116.638593 416.669543 
L 120.570238 417.137033 
L 124.501885 417.361086 
L 128.43353 417.477336 
L 132.365175 417.542523 
L 136.296819 417.584372 
L 140.228469 417.609262 
L 144.160114 417.624599 
L 148.091759 417.636888 
L 152.023403 417.645513 
L 155.955048 417.652359 
L 159.886693 417.658219 
L 163.818343 417.662021 
L 167.749987 417.667652 
L 171.681632 417.672561 
L 175.613277 417.676057 
L 179.544921 417.679051 
L 183.476572 417.681898 
L 187.408205 417.684205 
L 191.339861 417.685809 
L 195.271517 417.687254 
L 199.20315 417.688556 
L 203.134806 417.689346 
L 207.066439 417.690033 
L 210.998095 417.690728 
L 214.929729 417.691103 
L 218.861384 417.691466 
L 222.793018 417.691721 
L 226.724674 417.691975 
L 230.656307 417.692153 
L 234.587963 417.692262 
L 238.519619 417.692333 
L 242.451252 417.692403 
L 246.382908 417.692489 
L 250.314542 417.692516 
L 254.246197 417.692551 
L 258.177831 417.692531 
L 262.109487 417.69259 
L 266.04112 417.69259 
L 269.972776 417.692595 
L 273.90441 417.692613 
L 277.836065 417.692615 
L 281.767699 417.692605 
" clip-path="url(#p5331b2750a)" style="fill: none; stroke: #8c564b; stroke-width: 1.5; stroke-linecap: square"/>
   </g>
   <g id="line2d_37">
    <path d="M 87.699339 88.997173 
L 88.795516 377.882302 
L 89.891694 379.693754 
L 90.987871 382.130109 
L 92.084048 385.453712 
L 93.180226 389.375916 
L 94.276403 393.433387 
L 95.37258 397.438872 
L 96.468757 400.938361 
L 97.564935 403.798016 
L 98.661112 406.065825 
L 99.757289 407.851163 
L 100.853468 409.036311 
L 101.949644 410.214879 
L 103.045822 411.390184 
L 104.141998 412.448446 
L 105.238177 413.514571 
L 106.334353 414.352653 
L 107.430531 415.101668 
L 108.526707 415.811687 
L 109.622886 416.29147 
L 110.719062 416.64945 
L 111.815241 416.901937 
L 112.911419 417.112542 
L 114.007595 417.275696 
L 115.103771 417.39135 
L 116.19995 417.481593 
L 117.296128 417.540008 
L 118.392304 417.587082 
L 119.48848 417.61843 
L 120.584659 417.638543 
L 121.680837 417.656624 
L 122.777013 417.668232 
L 123.873192 417.673207 
L 124.96937 417.678663 
L 126.065546 417.683317 
L 127.161722 417.686634 
L 128.257901 417.687971 
L 129.35408 417.689469 
L 130.450255 417.690164 
L 131.546431 417.690592 
L 132.64261 417.690753 
L 133.738783 417.691716 
L 134.834964 417.691448 
L 135.931146 417.69209 
L 137.027316 417.692411 
L 138.123498 417.692465 
L 139.219673 417.692358 
L 140.315849 417.692358 
L 141.412031 417.692465 
" clip-path="url(#p5331b2750a)" style="fill: none; stroke: #e377c2; stroke-width: 1.5; stroke-linecap: square"/>
   </g>
   <g id="patch_3">
    <path d="M 87.15125 417.692625 
L 87.15125 29.612625 
" style="fill: none; stroke: #000000; stroke-width: 0.8; stroke-linejoin: miter; stroke-linecap: square"/>
   </g>
   <g id="patch_4">
    <path d="M 451.064293 417.692625 
L 451.064293 29.612625 
" style="fill: none; stroke: #000000; stroke-width: 0.8; stroke-linejoin: miter; stroke-linecap: square"/>
   </g>
   <g id="patch_5">
    <path d="M 87.15125 417.692625 
L 451.064293 417.692625 
" style="fill: none; stroke: #000000; stroke-width: 0.8; stroke-linejoin: miter; stroke-linecap: square"/>
   </g>
   <g id="patch_6">
    <path d="M 87.15125 29.612625 
L 451.064293 29.612625 
" style="fill: none; stroke: #000000; stroke-width: 0.8; stroke-linejoin: miter; stroke-linecap: square"/>
   </g>
   <g id="text_18">
    <!-- Raw Gradient Distributions -->
    <g transform="translate(123.893334 23.612625) scale(0.216 -0.216)">
     <defs>
      <path id="DejaVuSans-52" d="M 2841 2188 
Q 3044 2119 3236 1894 
Q 3428 1669 3622 1275 
L 4263 0 
L 3584 0 
L 2988 1197 
Q 2756 1666 2539 1819 
Q 2322 1972 1947 1972 
L 1259 1972 
L 1259 0 
L 628 0 
L 628 4666 
L 2053 4666 
Q 2853 4666 3247 4331 
Q 3641 3997 3641 3322 
Q 3641 2881 3436 2590 
Q 3231 2300 2841 2188 
z
M 1259 4147 
L 1259 2491 
L 2053 2491 
Q 2509 2491 2742 2702 
Q 2975 2913 2975 3322 
Q 2975 3731 2742 3939 
Q 2509 4147 2053 4147 
L 1259 4147 
z
" transform="scale(0.015625)"/>
      <path id="DejaVuSans-77" d="M 269 3500 
L 844 3500 
L 1563 769 
L 2278 3500 
L 2956 3500 
L 3675 769 
L 4391 3500 
L 4966 3500 
L 4050 0 
L 3372 0 
L 2619 2869 
L 1863 0 
L 1184 0 
L 269 3500 
z
" transform="scale(0.015625)"/>
      <path id="DejaVuSans-44" d="M 1259 4147 
L 1259 519 
L 2022 519 
Q 2988 519 3436 956 
Q 3884 1394 3884 2338 
Q 3884 3275 3436 3711 
Q 2988 4147 2022 4147 
L 1259 4147 
z
M 628 4666 
L 1925 4666 
Q 3281 4666 3915 4102 
Q 4550 3538 4550 2338 
Q 4550 1131 3912 565 
Q 3275 0 1925 0 
L 628 0 
L 628 4666 
z
" transform="scale(0.015625)"/>
      <path id="DejaVuSans-73" d="M 2834 3397 
L 2834 2853 
Q 2591 2978 2328 3040 
Q 2066 3103 1784 3103 
Q 1356 3103 1142 2972 
Q 928 2841 928 2578 
Q 928 2378 1081 2264 
Q 1234 2150 1697 2047 
L 1894 2003 
Q 2506 1872 2764 1633 
Q 3022 1394 3022 966 
Q 3022 478 2636 193 
Q 2250 -91 1575 -91 
Q 1294 -91 989 -36 
Q 684 19 347 128 
L 347 722 
Q 666 556 975 473 
Q 1284 391 1588 391 
Q 1994 391 2212 530 
Q 2431 669 2431 922 
Q 2431 1156 2273 1281 
Q 2116 1406 1581 1522 
L 1381 1569 
Q 847 1681 609 1914 
Q 372 2147 372 2553 
Q 372 3047 722 3315 
Q 1072 3584 1716 3584 
Q 2034 3584 2315 3537 
Q 2597 3491 2834 3397 
z
" transform="scale(0.015625)"/>
      <path id="DejaVuSans-62" d="M 3116 1747 
Q 3116 2381 2855 2742 
Q 2594 3103 2138 3103 
Q 1681 3103 1420 2742 
Q 1159 2381 1159 1747 
Q 1159 1113 1420 752 
Q 1681 391 2138 391 
Q 2594 391 2855 752 
Q 3116 1113 3116 1747 
z
M 1159 2969 
Q 1341 3281 1617 3432 
Q 1894 3584 2278 3584 
Q 2916 3584 3314 3078 
Q 3713 2572 3713 1747 
Q 3713 922 3314 415 
Q 2916 -91 2278 -91 
Q 1894 -91 1617 61 
Q 1341 213 1159 525 
L 1159 0 
L 581 0 
L 581 4863 
L 1159 4863 
L 1159 2969 
z
" transform="scale(0.015625)"/>
     </defs>
     <use xlink:href="#DejaVuSans-52"/>
     <use xlink:href="#DejaVuSans-61" transform="translate(67.232422 0)"/>
     <use xlink:href="#DejaVuSans-77" transform="translate(128.511719 0)"/>
     <use xlink:href="#DejaVuSans-20" transform="translate(210.298828 0)"/>
     <use xlink:href="#DejaVuSans-47" transform="translate(242.085938 0)"/>
     <use xlink:href="#DejaVuSans-72" transform="translate(319.576172 0)"/>
     <use xlink:href="#DejaVuSans-61" transform="translate(360.689453 0)"/>
     <use xlink:href="#DejaVuSans-64" transform="translate(421.96875 0)"/>
     <use xlink:href="#DejaVuSans-69" transform="translate(485.445312 0)"/>
     <use xlink:href="#DejaVuSans-65" transform="translate(513.228516 0)"/>
     <use xlink:href="#DejaVuSans-6e" transform="translate(574.751953 0)"/>
     <use xlink:href="#DejaVuSans-74" transform="translate(638.130859 0)"/>
     <use xlink:href="#DejaVuSans-20" transform="translate(677.339844 0)"/>
     <use xlink:href="#DejaVuSans-44" transform="translate(709.126953 0)"/>
     <use xlink:href="#DejaVuSans-69" transform="translate(786.128906 0)"/>
     <use xlink:href="#DejaVuSans-73" transform="translate(813.912109 0)"/>
     <use xlink:href="#DejaVuSans-74" transform="translate(866.011719 0)"/>
     <use xlink:href="#DejaVuSans-72" transform="translate(905.220703 0)"/>
     <use xlink:href="#DejaVuSans-69" transform="translate(946.333984 0)"/>
     <use xlink:href="#DejaVuSans-62" transform="translate(974.117188 0)"/>
     <use xlink:href="#DejaVuSans-75" transform="translate(1037.59375 0)"/>
     <use xlink:href="#DejaVuSans-74" transform="translate(1100.972656 0)"/>
     <use xlink:href="#DejaVuSans-69" transform="translate(1140.181641 0)"/>
     <use xlink:href="#DejaVuSans-6f" transform="translate(1167.964844 0)"/>
     <use xlink:href="#DejaVuSans-6e" transform="translate(1229.146484 0)"/>
     <use xlink:href="#DejaVuSans-73" transform="translate(1292.525391 0)"/>
    </g>
   </g>
   <g id="legend_1">
    <g id="patch_7">
     <path d="M 355.803512 129.284812 
L 444.764293 129.284812 
Q 446.564293 129.284812 446.564293 127.484812 
L 446.564293 35.912625 
Q 446.564293 34.112625 444.764293 34.112625 
L 355.803512 34.112625 
Q 354.003512 34.112625 354.003512 35.912625 
L 354.003512 127.484812 
Q 354.003512 129.284812 355.803512 129.284812 
z
" style="fill: #ffffff; opacity: 0.9; stroke: #cccccc; stroke-linejoin: miter"/>
    </g>
    <g id="line2d_38">
     <path d="M 357.603512 41.401219 
L 366.603512 41.401219 
L 375.603512 41.401219 
" style="fill: none; stroke: #1f77b4; stroke-width: 1.5; stroke-linecap: square"/>
    </g>
    <g id="text_19">
     <!-- ct -->
     <g transform="translate(382.803512 44.551219) scale(0.09 -0.09)">
      <use xlink:href="#DejaVuSans-63"/>
      <use xlink:href="#DejaVuSans-74" transform="translate(54.980469 0)"/>
     </g>
    </g>
    <g id="line2d_39">
     <path d="M 357.603512 54.611531 
L 366.603512 54.611531 
L 375.603512 54.611531 
" style="fill: none; stroke: #ff7f0e; stroke-width: 1.5; stroke-linecap: square"/>
    </g>
    <g id="text_20">
     <!-- flair -->
     <g transform="translate(382.803512 57.761531) scale(0.09 -0.09)">
      <defs>
       <path id="DejaVuSans-66" d="M 2375 4863 
L 2375 4384 
L 1825 4384 
Q 1516 4384 1395 4259 
Q 1275 4134 1275 3809 
L 1275 3500 
L 2222 3500 
L 2222 3053 
L 1275 3053 
L 1275 0 
L 697 0 
L 697 3053 
L 147 3053 
L 147 3500 
L 697 3500 
L 697 3744 
Q 697 4328 969 4595 
Q 1241 4863 1831 4863 
L 2375 4863 
z
" transform="scale(0.015625)"/>
      </defs>
      <use xlink:href="#DejaVuSans-66"/>
      <use xlink:href="#DejaVuSans-6c" transform="translate(35.205078 0)"/>
      <use xlink:href="#DejaVuSans-61" transform="translate(62.988281 0)"/>
      <use xlink:href="#DejaVuSans-69" transform="translate(124.267578 0)"/>
      <use xlink:href="#DejaVuSans-72" transform="translate(152.050781 0)"/>
     </g>
    </g>
    <g id="line2d_40">
     <path d="M 357.603512 67.821844 
L 366.603512 67.821844 
L 375.603512 67.821844 
" style="fill: none; stroke: #2ca02c; stroke-width: 1.5; stroke-linecap: square"/>
    </g>
    <g id="text_21">
     <!-- mni152 -->
     <g transform="translate(382.803512 70.971844) scale(0.09 -0.09)">
      <use xlink:href="#DejaVuSans-6d"/>
      <use xlink:href="#DejaVuSans-6e" transform="translate(97.412109 0)"/>
      <use xlink:href="#DejaVuSans-69" transform="translate(160.791016 0)"/>
      <use xlink:href="#DejaVuSans-31" transform="translate(188.574219 0)"/>
      <use xlink:href="#DejaVuSans-35" transform="translate(252.197266 0)"/>
      <use xlink:href="#DejaVuSans-32" transform="translate(315.820312 0)"/>
     </g>
    </g>
    <g id="line2d_41">
     <path d="M 357.603512 81.032156 
L 366.603512 81.032156 
L 375.603512 81.032156 
" style="fill: none; stroke: #d62728; stroke-width: 1.5; stroke-linecap: square"/>
    </g>
    <g id="text_22">
     <!-- shear -->
     <g transform="translate(382.803512 84.182156) scale(0.09 -0.09)">
      <defs>
       <path id="DejaVuSans-68" d="M 3513 2113 
L 3513 0 
L 2938 0 
L 2938 2094 
Q 2938 2591 2744 2837 
Q 2550 3084 2163 3084 
Q 1697 3084 1428 2787 
Q 1159 2491 1159 1978 
L 1159 0 
L 581 0 
L 581 4863 
L 1159 4863 
L 1159 2956 
Q 1366 3272 1645 3428 
Q 1925 3584 2291 3584 
Q 2894 3584 3203 3211 
Q 3513 2838 3513 2113 
z
" transform="scale(0.015625)"/>
      </defs>
      <use xlink:href="#DejaVuSans-73"/>
      <use xlink:href="#DejaVuSans-68" transform="translate(52.099609 0)"/>
      <use xlink:href="#DejaVuSans-65" transform="translate(115.478516 0)"/>
      <use xlink:href="#DejaVuSans-61" transform="translate(177.001953 0)"/>
      <use xlink:href="#DejaVuSans-72" transform="translate(238.28125 0)"/>
     </g>
    </g>
    <g id="line2d_42">
     <path d="M 357.603512 94.242469 
L 366.603512 94.242469 
L 375.603512 94.242469 
" style="fill: none; stroke: #9467bd; stroke-width: 1.5; stroke-linecap: square"/>
    </g>
    <g id="text_23">
     <!-- t1w -->
     <g transform="translate(382.803512 97.392469) scale(0.09 -0.09)">
      <use xlink:href="#DejaVuSans-74"/>
      <use xlink:href="#DejaVuSans-31" transform="translate(39.208984 0)"/>
      <use xlink:href="#DejaVuSans-77" transform="translate(102.832031 0)"/>
     </g>
    </g>
    <g id="line2d_43">
     <path d="M 357.603512 107.452781 
L 366.603512 107.452781 
L 375.603512 107.452781 
" style="fill: none; stroke: #8c564b; stroke-width: 1.5; stroke-linecap: square"/>
    </g>
    <g id="text_24">
     <!-- tof -->
     <g transform="translate(382.803512 110.602781) scale(0.09 -0.09)">
      <use xlink:href="#DejaVuSans-74"/>
      <use xlink:href="#DejaVuSans-6f" transform="translate(39.208984 0)"/>
      <use xlink:href="#DejaVuSans-66" transform="translate(100.390625 0)"/>
     </g>
    </g>
    <g id="line2d_44">
     <path d="M 357.603512 120.663094 
L 366.603512 120.663094 
L 375.603512 120.663094 
" style="fill: none; stroke: #e377c2; stroke-width: 1.5; stroke-linecap: square"/>
    </g>
    <g id="text_25">
     <!-- visiblehuman -->
     <g transform="translate(382.803512 123.813094) scale(0.09 -0.09)">
      <defs>
       <path id="DejaVuSans-76" d="M 191 3500 
L 800 3500 
L 1894 563 
L 2988 3500 
L 3597 3500 
L 2284 0 
L 1503 0 
L 191 3500 
z
" transform="scale(0.015625)"/>
      </defs>
      <use xlink:href="#DejaVuSans-76"/>
      <use xlink:href="#DejaVuSans-69" transform="translate(59.179688 0)"/>
      <use xlink:href="#DejaVuSans-73" transform="translate(86.962891 0)"/>
      <use xlink:href="#DejaVuSans-69" transform="translate(139.0625 0)"/>
      <use xlink:href="#DejaVuSans-62" transform="translate(166.845703 0)"/>
      <use xlink:href="#DejaVuSans-6c" transform="translate(230.322266 0)"/>
      <use xlink:href="#DejaVuSans-65" transform="translate(258.105469 0)"/>
      <use xlink:href="#DejaVuSans-68" transform="translate(319.628906 0)"/>
      <use xlink:href="#DejaVuSans-75" transform="translate(383.007812 0)"/>
      <use xlink:href="#DejaVuSans-6d" transform="translate(446.386719 0)"/>
      <use xlink:href="#DejaVuSans-61" transform="translate(543.798828 0)"/>
      <use xlink:href="#DejaVuSans-6e" transform="translate(605.078125 0)"/>
     </g>
    </g>
   </g>
  </g>
  <g id="axes_2">
   <g id="patch_8">
    <path d="M 560.238207 417.692625 
L 924.15125 417.692625 
L 924.15125 29.612625 
L 560.238207 29.612625 
z
" style="fill: #ffffff"/>
   </g>
   <g id="matplotlib.axis_3">
    <g id="xtick_7">
     <g id="line2d_45">
      <path d="M 560.238207 417.692625 
L 560.238207 29.612625 
" clip-path="url(#p7d12898f22)" style="fill: none; stroke: #b0b0b0; stroke-opacity: 0.3; stroke-width: 0.8; stroke-linecap: square"/>
     </g>
     <g id="line2d_46">
      <g>
       <use xlink:href="#m2867908a7b" x="560.238207" y="417.692625" style="stroke: #000000; stroke-width: 0.8"/>
      </g>
     </g>
     <g id="text_26">
      <!-- 40 -->
      <g transform="translate(541.243988 438.369812) scale(0.18 -0.18)">
       <defs>
        <path id="DejaVuSans-2212" d="M 678 2272 
L 4684 2272 
L 4684 1741 
L 678 1741 
L 678 2272 
z
" transform="scale(0.015625)"/>
       </defs>
       <use xlink:href="#DejaVuSans-2212"/>
       <use xlink:href="#DejaVuSans-34" transform="translate(83.789062 0)"/>
       <use xlink:href="#DejaVuSans-30" transform="translate(147.412109 0)"/>
      </g>
     </g>
    </g>
    <g id="xtick_8">
     <g id="line2d_47">
      <path d="M 641.107772 417.692625 
L 641.107772 29.612625 
" clip-path="url(#p7d12898f22)" style="fill: none; stroke: #b0b0b0; stroke-opacity: 0.3; stroke-width: 0.8; stroke-linecap: square"/>
     </g>
     <g id="line2d_48">
      <g>
       <use xlink:href="#m2867908a7b" x="641.107772" y="417.692625" style="stroke: #000000; stroke-width: 0.8"/>
      </g>
     </g>
     <g id="text_27">
      <!-- 30 -->
      <g transform="translate(622.113553 438.369812) scale(0.18 -0.18)">
       <defs>
        <path id="DejaVuSans-33" d="M 2597 2516 
Q 3050 2419 3304 2112 
Q 3559 1806 3559 1356 
Q 3559 666 3084 287 
Q 2609 -91 1734 -91 
Q 1441 -91 1130 -33 
Q 819 25 488 141 
L 488 750 
Q 750 597 1062 519 
Q 1375 441 1716 441 
Q 2309 441 2620 675 
Q 2931 909 2931 1356 
Q 2931 1769 2642 2001 
Q 2353 2234 1838 2234 
L 1294 2234 
L 1294 2753 
L 1863 2753 
Q 2328 2753 2575 2939 
Q 2822 3125 2822 3475 
Q 2822 3834 2567 4026 
Q 2313 4219 1838 4219 
Q 1578 4219 1281 4162 
Q 984 4106 628 3988 
L 628 4550 
Q 988 4650 1302 4700 
Q 1616 4750 1894 4750 
Q 2613 4750 3031 4423 
Q 3450 4097 3450 3541 
Q 3450 3153 3228 2886 
Q 3006 2619 2597 2516 
z
" transform="scale(0.015625)"/>
       </defs>
       <use xlink:href="#DejaVuSans-2212"/>
       <use xlink:href="#DejaVuSans-33" transform="translate(83.789062 0)"/>
       <use xlink:href="#DejaVuSans-30" transform="translate(147.412109 0)"/>
      </g>
     </g>
    </g>
    <g id="xtick_9">
     <g id="line2d_49">
      <path d="M 721.977337 417.692625 
L 721.977337 29.612625 
" clip-path="url(#p7d12898f22)" style="fill: none; stroke: #b0b0b0; stroke-opacity: 0.3; stroke-width: 0.8; stroke-linecap: square"/>
     </g>
     <g id="line2d_50">
      <g>
       <use xlink:href="#m2867908a7b" x="721.977337" y="417.692625" style="stroke: #000000; stroke-width: 0.8"/>
      </g>
     </g>
     <g id="text_28">
      <!-- 20 -->
      <g transform="translate(702.983118 438.369812) scale(0.18 -0.18)">
       <use xlink:href="#DejaVuSans-2212"/>
       <use xlink:href="#DejaVuSans-32" transform="translate(83.789062 0)"/>
       <use xlink:href="#DejaVuSans-30" transform="translate(147.412109 0)"/>
      </g>
     </g>
    </g>
    <g id="xtick_10">
     <g id="line2d_51">
      <path d="M 802.846902 417.692625 
L 802.846902 29.612625 
" clip-path="url(#p7d12898f22)" style="fill: none; stroke: #b0b0b0; stroke-opacity: 0.3; stroke-width: 0.8; stroke-linecap: square"/>
     </g>
     <g id="line2d_52">
      <g>
       <use xlink:href="#m2867908a7b" x="802.846902" y="417.692625" style="stroke: #000000; stroke-width: 0.8"/>
      </g>
     </g>
     <g id="text_29">
      <!-- 10 -->
      <g transform="translate(783.852683 438.369812) scale(0.18 -0.18)">
       <use xlink:href="#DejaVuSans-2212"/>
       <use xlink:href="#DejaVuSans-31" transform="translate(83.789062 0)"/>
       <use xlink:href="#DejaVuSans-30" transform="translate(147.412109 0)"/>
      </g>
     </g>
    </g>
    <g id="xtick_11">
     <g id="line2d_53">
      <path d="M 883.716467 417.692625 
L 883.716467 29.612625 
" clip-path="url(#p7d12898f22)" style="fill: none; stroke: #b0b0b0; stroke-opacity: 0.3; stroke-width: 0.8; stroke-linecap: square"/>
     </g>
     <g id="line2d_54">
      <g>
       <use xlink:href="#m2867908a7b" x="883.716467" y="417.692625" style="stroke: #000000; stroke-width: 0.8"/>
      </g>
     </g>
     <g id="text_30">
      <!-- 0 -->
      <g transform="translate(877.990217 438.369812) scale(0.18 -0.18)">
       <use xlink:href="#DejaVuSans-30"/>
      </g>
     </g>
    </g>
    <g id="text_31">
     <!-- Transformed Magnitude (log scale) -->
     <g transform="translate(585.985666 459.790437) scale(0.18 -0.18)">
      <defs>
       <path id="DejaVuSans-54" d="M -19 4666 
L 3928 4666 
L 3928 4134 
L 2272 4134 
L 2272 0 
L 1638 0 
L 1638 4134 
L -19 4134 
L -19 4666 
z
" transform="scale(0.015625)"/>
       <path id="DejaVuSans-28" d="M 1984 4856 
Q 1566 4138 1362 3434 
Q 1159 2731 1159 2009 
Q 1159 1288 1364 580 
Q 1569 -128 1984 -844 
L 1484 -844 
Q 1016 -109 783 600 
Q 550 1309 550 2009 
Q 550 2706 781 3412 
Q 1013 4119 1484 4856 
L 1984 4856 
z
" transform="scale(0.015625)"/>
       <path id="DejaVuSans-29" d="M 513 4856 
L 1013 4856 
Q 1481 4119 1714 3412 
Q 1947 2706 1947 2009 
Q 1947 1309 1714 600 
Q 1481 -109 1013 -844 
L 513 -844 
Q 928 -128 1133 580 
Q 1338 1288 1338 2009 
Q 1338 2731 1133 3434 
Q 928 4138 513 4856 
z
" transform="scale(0.015625)"/>
      </defs>
      <use xlink:href="#DejaVuSans-54"/>
      <use xlink:href="#DejaVuSans-72" transform="translate(46.333984 0)"/>
      <use xlink:href="#DejaVuSans-61" transform="translate(87.447266 0)"/>
      <use xlink:href="#DejaVuSans-6e" transform="translate(148.726562 0)"/>
      <use xlink:href="#DejaVuSans-73" transform="translate(212.105469 0)"/>
      <use xlink:href="#DejaVuSans-66" transform="translate(264.205078 0)"/>
      <use xlink:href="#DejaVuSans-6f" transform="translate(299.410156 0)"/>
      <use xlink:href="#DejaVuSans-72" transform="translate(360.591797 0)"/>
      <use xlink:href="#DejaVuSans-6d" transform="translate(399.955078 0)"/>
      <use xlink:href="#DejaVuSans-65" transform="translate(497.367188 0)"/>
      <use xlink:href="#DejaVuSans-64" transform="translate(558.890625 0)"/>
      <use xlink:href="#DejaVuSans-20" transform="translate(622.367188 0)"/>
      <use xlink:href="#DejaVuSans-4d" transform="translate(654.154297 0)"/>
      <use xlink:href="#DejaVuSans-61" transform="translate(740.433594 0)"/>
      <use xlink:href="#DejaVuSans-67" transform="translate(801.712891 0)"/>
      <use xlink:href="#DejaVuSans-6e" transform="translate(865.189453 0)"/>
      <use xlink:href="#DejaVuSans-69" transform="translate(928.568359 0)"/>
      <use xlink:href="#DejaVuSans-74" transform="translate(956.351562 0)"/>
      <use xlink:href="#DejaVuSans-75" transform="translate(995.560547 0)"/>
      <use xlink:href="#DejaVuSans-64" transform="translate(1058.939453 0)"/>
      <use xlink:href="#DejaVuSans-65" transform="translate(1122.416016 0)"/>
      <use xlink:href="#DejaVuSans-20" transform="translate(1183.939453 0)"/>
      <use xlink:href="#DejaVuSans-28" transform="translate(1215.726562 0)"/>
      <use xlink:href="#DejaVuSans-6c" transform="translate(1254.740234 0)"/>
      <use xlink:href="#DejaVuSans-6f" transform="translate(1282.523438 0)"/>
      <use xlink:href="#DejaVuSans-67" transform="translate(1343.705078 0)"/>
      <use xlink:href="#DejaVuSans-20" transform="translate(1407.181641 0)"/>
      <use xlink:href="#DejaVuSans-73" transform="translate(1438.96875 0)"/>
      <use xlink:href="#DejaVuSans-63" transform="translate(1491.068359 0)"/>
      <use xlink:href="#DejaVuSans-61" transform="translate(1546.048828 0)"/>
      <use xlink:href="#DejaVuSans-6c" transform="translate(1607.328125 0)"/>
      <use xlink:href="#DejaVuSans-65" transform="translate(1635.111328 0)"/>
      <use xlink:href="#DejaVuSans-29" transform="translate(1696.634766 0)"/>
     </g>
    </g>
   </g>
   <g id="matplotlib.axis_4">
    <g id="ytick_10">
     <g id="line2d_55">
      <path d="M 560.238207 417.692625 
L 924.15125 417.692625 
" clip-path="url(#p7d12898f22)" style="fill: none; stroke: #b0b0b0; stroke-opacity: 0.3; stroke-width: 0.8; stroke-linecap: square"/>
     </g>
     <g id="line2d_56">
      <g>
       <use xlink:href="#meb8eea61ad" x="560.238207" y="417.692625" style="stroke: #000000; stroke-width: 0.8"/>
      </g>
     </g>
     <g id="text_32">
      <!-- 0.000 -->
      <g transform="translate(501.707582 424.531219) scale(0.18 -0.18)">
       <use xlink:href="#DejaVuSans-30"/>
       <use xlink:href="#DejaVuSans-2e" transform="translate(63.623047 0)"/>
       <use xlink:href="#DejaVuSans-30" transform="translate(95.410156 0)"/>
       <use xlink:href="#DejaVuSans-30" transform="translate(159.033203 0)"/>
       <use xlink:href="#DejaVuSans-30" transform="translate(222.65625 0)"/>
      </g>
     </g>
    </g>
    <g id="ytick_11">
     <g id="line2d_57">
      <path d="M 560.238207 369.182625 
L 924.15125 369.182625 
" clip-path="url(#p7d12898f22)" style="fill: none; stroke: #b0b0b0; stroke-opacity: 0.3; stroke-width: 0.8; stroke-linecap: square"/>
     </g>
     <g id="line2d_58">
      <g>
       <use xlink:href="#meb8eea61ad" x="560.238207" y="369.182625" style="stroke: #000000; stroke-width: 0.8"/>
      </g>
     </g>
     <g id="text_33">
      <!-- 0.025 -->
      <g transform="translate(501.707582 376.021219) scale(0.18 -0.18)">
       <use xlink:href="#DejaVuSans-30"/>
       <use xlink:href="#DejaVuSans-2e" transform="translate(63.623047 0)"/>
       <use xlink:href="#DejaVuSans-30" transform="translate(95.410156 0)"/>
       <use xlink:href="#DejaVuSans-32" transform="translate(159.033203 0)"/>
       <use xlink:href="#DejaVuSans-35" transform="translate(222.65625 0)"/>
      </g>
     </g>
    </g>
    <g id="ytick_12">
     <g id="line2d_59">
      <path d="M 560.238207 320.672625 
L 924.15125 320.672625 
" clip-path="url(#p7d12898f22)" style="fill: none; stroke: #b0b0b0; stroke-opacity: 0.3; stroke-width: 0.8; stroke-linecap: square"/>
     </g>
     <g id="line2d_60">
      <g>
       <use xlink:href="#meb8eea61ad" x="560.238207" y="320.672625" style="stroke: #000000; stroke-width: 0.8"/>
      </g>
     </g>
     <g id="text_34">
      <!-- 0.050 -->
      <g transform="translate(501.707582 327.511219) scale(0.18 -0.18)">
       <use xlink:href="#DejaVuSans-30"/>
       <use xlink:href="#DejaVuSans-2e" transform="translate(63.623047 0)"/>
       <use xlink:href="#DejaVuSans-30" transform="translate(95.410156 0)"/>
       <use xlink:href="#DejaVuSans-35" transform="translate(159.033203 0)"/>
       <use xlink:href="#DejaVuSans-30" transform="translate(222.65625 0)"/>
      </g>
     </g>
    </g>
    <g id="ytick_13">
     <g id="line2d_61">
      <path d="M 560.238207 272.162625 
L 924.15125 272.162625 
" clip-path="url(#p7d12898f22)" style="fill: none; stroke: #b0b0b0; stroke-opacity: 0.3; stroke-width: 0.8; stroke-linecap: square"/>
     </g>
     <g id="line2d_62">
      <g>
       <use xlink:href="#meb8eea61ad" x="560.238207" y="272.162625" style="stroke: #000000; stroke-width: 0.8"/>
      </g>
     </g>
     <g id="text_35">
      <!-- 0.075 -->
      <g transform="translate(501.707582 279.001219) scale(0.18 -0.18)">
       <use xlink:href="#DejaVuSans-30"/>
       <use xlink:href="#DejaVuSans-2e" transform="translate(63.623047 0)"/>
       <use xlink:href="#DejaVuSans-30" transform="translate(95.410156 0)"/>
       <use xlink:href="#DejaVuSans-37" transform="translate(159.033203 0)"/>
       <use xlink:href="#DejaVuSans-35" transform="translate(222.65625 0)"/>
      </g>
     </g>
    </g>
    <g id="ytick_14">
     <g id="line2d_63">
      <path d="M 560.238207 223.652625 
L 924.15125 223.652625 
" clip-path="url(#p7d12898f22)" style="fill: none; stroke: #b0b0b0; stroke-opacity: 0.3; stroke-width: 0.8; stroke-linecap: square"/>
     </g>
     <g id="line2d_64">
      <g>
       <use xlink:href="#meb8eea61ad" x="560.238207" y="223.652625" style="stroke: #000000; stroke-width: 0.8"/>
      </g>
     </g>
     <g id="text_36">
      <!-- 0.100 -->
      <g transform="translate(501.707582 230.491219) scale(0.18 -0.18)">
       <use xlink:href="#DejaVuSans-30"/>
       <use xlink:href="#DejaVuSans-2e" transform="translate(63.623047 0)"/>
       <use xlink:href="#DejaVuSans-31" transform="translate(95.410156 0)"/>
       <use xlink:href="#DejaVuSans-30" transform="translate(159.033203 0)"/>
       <use xlink:href="#DejaVuSans-30" transform="translate(222.65625 0)"/>
      </g>
     </g>
    </g>
    <g id="ytick_15">
     <g id="line2d_65">
      <path d="M 560.238207 175.142625 
L 924.15125 175.142625 
" clip-path="url(#p7d12898f22)" style="fill: none; stroke: #b0b0b0; stroke-opacity: 0.3; stroke-width: 0.8; stroke-linecap: square"/>
     </g>
     <g id="line2d_66">
      <g>
       <use xlink:href="#meb8eea61ad" x="560.238207" y="175.142625" style="stroke: #000000; stroke-width: 0.8"/>
      </g>
     </g>
     <g id="text_37">
      <!-- 0.125 -->
      <g transform="translate(501.707582 181.981219) scale(0.18 -0.18)">
       <use xlink:href="#DejaVuSans-30"/>
       <use xlink:href="#DejaVuSans-2e" transform="translate(63.623047 0)"/>
       <use xlink:href="#DejaVuSans-31" transform="translate(95.410156 0)"/>
       <use xlink:href="#DejaVuSans-32" transform="translate(159.033203 0)"/>
       <use xlink:href="#DejaVuSans-35" transform="translate(222.65625 0)"/>
      </g>
     </g>
    </g>
    <g id="ytick_16">
     <g id="line2d_67">
      <path d="M 560.238207 126.632625 
L 924.15125 126.632625 
" clip-path="url(#p7d12898f22)" style="fill: none; stroke: #b0b0b0; stroke-opacity: 0.3; stroke-width: 0.8; stroke-linecap: square"/>
     </g>
     <g id="line2d_68">
      <g>
       <use xlink:href="#meb8eea61ad" x="560.238207" y="126.632625" style="stroke: #000000; stroke-width: 0.8"/>
      </g>
     </g>
     <g id="text_38">
      <!-- 0.150 -->
      <g transform="translate(501.707582 133.471219) scale(0.18 -0.18)">
       <use xlink:href="#DejaVuSans-30"/>
       <use xlink:href="#DejaVuSans-2e" transform="translate(63.623047 0)"/>
       <use xlink:href="#DejaVuSans-31" transform="translate(95.410156 0)"/>
       <use xlink:href="#DejaVuSans-35" transform="translate(159.033203 0)"/>
       <use xlink:href="#DejaVuSans-30" transform="translate(222.65625 0)"/>
      </g>
     </g>
    </g>
    <g id="ytick_17">
     <g id="line2d_69">
      <path d="M 560.238207 78.122625 
L 924.15125 78.122625 
" clip-path="url(#p7d12898f22)" style="fill: none; stroke: #b0b0b0; stroke-opacity: 0.3; stroke-width: 0.8; stroke-linecap: square"/>
     </g>
     <g id="line2d_70">
      <g>
       <use xlink:href="#meb8eea61ad" x="560.238207" y="78.122625" style="stroke: #000000; stroke-width: 0.8"/>
      </g>
     </g>
     <g id="text_39">
      <!-- 0.175 -->
      <g transform="translate(501.707582 84.961219) scale(0.18 -0.18)">
       <use xlink:href="#DejaVuSans-30"/>
       <use xlink:href="#DejaVuSans-2e" transform="translate(63.623047 0)"/>
       <use xlink:href="#DejaVuSans-31" transform="translate(95.410156 0)"/>
       <use xlink:href="#DejaVuSans-37" transform="translate(159.033203 0)"/>
       <use xlink:href="#DejaVuSans-35" transform="translate(222.65625 0)"/>
      </g>
     </g>
    </g>
    <g id="ytick_18">
     <g id="line2d_71">
      <path d="M 560.238207 29.612625 
L 924.15125 29.612625 
" clip-path="url(#p7d12898f22)" style="fill: none; stroke: #b0b0b0; stroke-opacity: 0.3; stroke-width: 0.8; stroke-linecap: square"/>
     </g>
     <g id="line2d_72">
      <g>
       <use xlink:href="#meb8eea61ad" x="560.238207" y="29.612625" style="stroke: #000000; stroke-width: 0.8"/>
      </g>
     </g>
     <g id="text_40">
      <!-- 0.200 -->
      <g transform="translate(501.707582 36.451219) scale(0.18 -0.18)">
       <use xlink:href="#DejaVuSans-30"/>
       <use xlink:href="#DejaVuSans-2e" transform="translate(63.623047 0)"/>
       <use xlink:href="#DejaVuSans-32" transform="translate(95.410156 0)"/>
       <use xlink:href="#DejaVuSans-30" transform="translate(159.033203 0)"/>
       <use xlink:href="#DejaVuSans-30" transform="translate(222.65625 0)"/>
      </g>
     </g>
    </g>
   </g>
   <g id="line2d_73">
    <path d="M 584.335556 -1 
L 586.787986 417.692625 
L 593.58346 417.692625 
L 600.378933 417.692625 
L 607.174407 417.692625 
L 613.96988 417.692625 
L 620.765354 417.692625 
L 627.560827 417.692625 
L 634.3563 417.692625 
L 641.151774 417.692625 
L 647.947247 417.692625 
L 654.742721 417.692625 
L 661.538194 417.604367 
L 668.333668 417.692236 
L 675.129141 417.612143 
L 681.924615 417.66813 
L 688.720088 417.607089 
L 695.515562 417.570152 
L 702.311035 417.595813 
L 709.106509 417.483061 
L 715.901982 417.237726 
L 722.697456 417.326762 
L 729.492929 417.07443 
L 736.288403 416.793714 
L 743.083876 416.235006 
L 749.87935 415.485006 
L 756.674823 413.731897 
L 763.470297 410.394419 
L 770.26577 403.800723 
L 777.061243 391.112941 
L 783.856717 370.642894 
L 790.65219 344.144081 
L 797.447664 325.61999 
L 804.243137 332.07294 
L 811.038611 350.755662 
L 817.834084 357.735051 
L 824.629558 361.063586 
L 831.425031 368.446551 
L 838.220505 368.516924 
L 845.015978 361.758764 
L 851.811452 348.301932 
L 858.606925 328.643315 
L 865.402399 312.050016 
L 872.197872 343.688794 
L 878.993346 355.498272 
L 885.788819 376.030138 
L 892.584293 408.300331 
L 899.379766 414.910357 
L 906.17524 417.432128 
L 912.970713 417.669686 
" clip-path="url(#p7d12898f22)" style="fill: none; stroke: #1f77b4; stroke-width: 1.5; stroke-linecap: square"/>
   </g>
   <g id="line2d_74">
    <path d="M 579.245596 70.474424 
L 584.547237 417.692625 
L 589.848877 417.692625 
L 595.150518 417.692625 
L 600.452158 417.692625 
L 605.753799 417.692625 
L 611.055439 417.692625 
L 616.35708 417.692625 
L 621.65872 417.692625 
L 626.960361 417.692625 
L 632.262001 417.692625 
L 637.563642 417.692625 
L 642.865282 417.692625 
L 648.166923 417.692625 
L 653.468564 417.692625 
L 658.770204 417.692625 
L 664.071845 417.692625 
L 669.373485 417.692625 
L 674.675126 417.692625 
L 679.976766 417.692625 
L 685.278407 417.692625 
L 690.580047 417.692625 
L 695.881688 417.692625 
L 701.183328 417.692625 
L 706.484969 417.692625 
L 711.786609 417.692625 
L 717.08825 144.388012 
L 722.38989 197.671359 
L 727.691531 336.933966 
L 732.993171 293.03213 
L 738.294812 328.347283 
L 743.596452 311.903824 
L 748.898093 293.442128 
L 754.199733 311.161922 
L 759.501374 295.158335 
L 764.803015 292.467117 
L 770.104655 283.023037 
L 775.406296 265.346995 
L 780.707936 259.136328 
L 786.009577 262.368566 
L 791.311217 272.155135 
L 796.612858 286.718199 
L 801.914498 302.541367 
L 807.216139 319.818937 
L 812.517779 341.208959 
L 817.81942 370.496687 
L 823.12106 399.058744 
L 828.422701 411.398218 
L 833.724341 416.597178 
L 839.025982 417.641346 
" clip-path="url(#p7d12898f22)" style="fill: none; stroke: #ff7f0e; stroke-width: 1.5; stroke-linecap: square"/>
   </g>
   <g id="line2d_75">
    <path d="M 582.638361 -1 
L 583.853235 417.692625 
L 588.692207 417.692625 
L 593.531179 417.692625 
L 598.370152 417.692625 
L 603.209124 417.692625 
L 608.048097 417.692625 
L 612.887069 417.692625 
L 617.726041 417.692625 
L 622.565014 417.692625 
L 627.403986 417.692625 
L 632.242959 417.692625 
L 637.081931 417.692625 
L 641.920904 417.692625 
L 646.759876 417.692625 
L 651.598848 417.692625 
L 656.437821 417.692625 
L 661.276793 417.692625 
L 666.115766 417.692625 
L 670.954738 417.692625 
L 675.793711 417.692625 
L 680.632683 417.692625 
L 685.471655 417.692625 
L 690.310628 417.692625 
L 695.1496 393.061951 
L 699.988573 417.692625 
L 704.827545 396.391221 
L 709.666518 406.226185 
L 714.50549 382.990178 
L 719.344462 386.924278 
L 724.183435 367.3904 
L 729.022407 360.945616 
L 733.86138 360.514692 
L 738.700352 351.763299 
L 743.539324 356.915597 
L 748.378297 341.901295 
L 753.217269 323.162662 
L 758.056242 304.521941 
L 762.895214 288.482986 
L 767.734187 274.751208 
L 772.573159 283.946049 
L 777.412131 301.473598 
L 782.251104 323.410002 
L 787.090076 341.503673 
L 791.929049 354.209658 
L 796.768021 365.084646 
L 801.606994 379.467363 
L 806.445966 396.538942 
L 811.284938 409.052805 
L 816.123911 416.560668 
" clip-path="url(#p7d12898f22)" style="fill: none; stroke: #2ca02c; stroke-width: 1.5; stroke-linecap: square"/>
   </g>
   <g id="line2d_76">
    <path d="M 584.92028 -1 
L 586.631248 417.692625 
L 593.322229 417.692625 
L 600.013211 417.692625 
L 606.704192 417.692625 
L 613.395173 417.692625 
L 620.086155 417.692625 
L 626.777136 417.692625 
L 633.468118 417.692625 
L 640.159099 417.692625 
L 646.85008 417.692625 
L 653.541062 417.692625 
L 660.232043 417.692625 
L 666.923024 417.692625 
L 673.614006 417.692625 
L 680.304987 417.692625 
L 686.995969 417.692625 
L 693.68695 417.692625 
L 700.377931 417.692625 
L 707.068913 417.692625 
L 713.759894 417.692625 
L 720.450875 417.692625 
L 727.141857 417.692625 
L 733.832838 417.692625 
L 740.52382 407.358709 
L 747.214801 417.692625 
L 753.905782 414.234533 
L 760.596764 417.692625 
L 767.287745 415.304046 
L 773.978726 399.304066 
L 780.669708 409.513878 
L 787.360689 397.899909 
L 794.051671 397.26291 
L 800.742652 396.893962 
L 807.433633 393.568718 
L 814.124615 392.049876 
L 820.815596 391.397405 
L 827.506577 393.096518 
L 834.197559 379.462583 
L 840.88854 367.267109 
L 847.579522 344.877629 
L 854.270503 348.641777 
L 860.961484 331.711185 
L 867.652466 346.662841 
L 874.343447 367.350854 
L 881.034429 381.50542 
L 887.72541 393.591925 
L 894.416391 413.056387 
L 901.107373 417.119528 
L 907.798354 417.611907 
" clip-path="url(#p7d12898f22)" style="fill: none; stroke: #d62728; stroke-width: 1.5; stroke-linecap: square"/>
   </g>
   <g id="line2d_77">
    <path d="M 579.515046 357.121398 
L 585.355585 417.692625 
L 591.196125 417.692625 
L 597.036664 417.692625 
L 602.877204 417.692625 
L 608.717743 417.692625 
L 614.558283 417.692625 
L 620.398822 417.692625 
L 626.239362 417.692625 
L 632.079902 417.692625 
L 637.920441 417.692625 
L 643.760981 417.692625 
L 649.60152 417.692625 
L 655.44206 417.692625 
L 661.282599 417.692625 
L 667.123139 417.692625 
L 672.963678 417.692625 
L 678.804218 417.692625 
L 684.644757 417.692625 
L 690.485297 417.692625 
L 696.325836 417.692625 
L 702.166376 417.692625 
L 708.006916 417.692625 
L 713.847455 222.351555 
L 719.687995 194.067815 
L 725.528534 321.139343 
L 731.369074 219.03428 
L 737.209613 205.534363 
L 743.050153 243.825016 
L 748.890692 263.32276 
L 754.731232 259.295312 
L 760.571771 298.453077 
L 766.412311 318.005483 
L 772.25285 326.264507 
L 778.09339 331.760558 
L 783.933929 326.772475 
L 789.774469 324.70836 
L 795.615009 322.462324 
L 801.455548 317.914096 
L 807.296088 314.952335 
L 813.136627 319.6259 
L 818.977167 333.2582 
L 824.817706 348.38985 
L 830.658246 370.447294 
L 836.498785 391.856486 
L 842.339325 408.591898 
L 848.179864 416.489003 
L 854.020404 417.644369 
L 859.860943 417.6875 
L 865.701483 417.691771 
" clip-path="url(#p7d12898f22)" style="fill: none; stroke: #9467bd; stroke-width: 1.5; stroke-linecap: square"/>
   </g>
   <g id="line2d_78">
    <path d="M 579.598543 345.396584 
L 585.606077 417.692625 
L 591.613611 417.692625 
L 597.621144 417.692625 
L 603.628678 417.692625 
L 609.636212 417.692625 
L 615.643746 417.692625 
L 621.65128 417.692625 
L 627.658814 417.692625 
L 633.666347 417.692625 
L 639.673881 417.692625 
L 645.681415 417.692625 
L 651.688949 417.692625 
L 657.696483 417.692625 
L 663.704017 417.692625 
L 669.711551 417.692625 
L 675.719084 417.692625 
L 681.726618 417.692625 
L 687.734152 417.692625 
L 693.741686 417.692625 
L 699.74922 417.692625 
L 705.756754 417.692625 
L 711.764287 417.692625 
L 717.771821 417.692625 
L 723.779355 417.692625 
L 729.786889 345.796174 
L 735.794423 417.692625 
L 741.801957 417.692625 
L 747.80949 149.906775 
L 753.817024 222.922301 
L 759.824558 308.966523 
L 765.832092 263.840662 
L 771.839626 242.474544 
L 777.84716 202.597897 
L 783.854694 163.745359 
L 789.862227 142.818355 
L 795.869761 182.310934 
L 801.877295 230.622699 
L 807.884829 290.800035 
L 813.892363 329.149573 
L 819.899897 345.557232 
L 825.90743 360.749378 
L 831.914964 385.451414 
L 837.922498 405.01882 
L 843.930032 412.038827 
L 849.937566 414.482826 
L 855.9451 415.749254 
L 861.952634 416.95981 
L 867.960167 417.544984 
L 873.967701 417.680085 
" clip-path="url(#p7d12898f22)" style="fill: none; stroke: #8c564b; stroke-width: 1.5; stroke-linecap: square"/>
   </g>
   <g id="line2d_79">
    <path d="M 583.082131 -1 
L 584.71199 417.692625 
L 590.123466 417.692625 
L 595.534941 417.692625 
L 600.946417 417.692625 
L 606.357893 417.692625 
L 611.769369 417.692625 
L 617.180845 417.692625 
L 622.592321 417.692625 
L 628.003797 417.692625 
L 633.415273 417.692625 
L 638.826748 417.692625 
L 644.238224 417.692625 
L 649.6497 417.692625 
L 655.061176 417.691903 
L 660.472652 417.691662 
L 665.884128 417.690699 
L 671.295604 417.689735 
L 676.70708 417.620145 
L 682.118556 417.686123 
L 687.530031 417.675288 
L 692.941507 417.667341 
L 698.352983 417.642057 
L 703.764459 417.457124 
L 709.175935 417.48891 
L 714.587411 414.32169 
L 719.998887 415.97164 
L 725.410363 415.713745 
L 730.821838 411.454023 
L 736.233314 411.207927 
L 741.64479 404.549614 
L 747.056266 397.669767 
L 752.467742 387.32411 
L 757.879218 372.934005 
L 763.290694 359.806887 
L 768.70217 345.447364 
L 774.113645 329.107274 
L 779.525121 310.055315 
L 784.936597 288.37432 
L 790.348073 268.409013 
L 795.759549 255.582652 
L 801.171025 255.822969 
L 806.582501 272.568803 
L 811.993977 295.578764 
L 817.405452 317.566054 
L 822.816928 358.448303 
L 828.228404 397.055491 
L 833.63988 413.472394 
L 839.051356 417.236071 
L 844.462832 417.653134 
" clip-path="url(#p7d12898f22)" style="fill: none; stroke: #e377c2; stroke-width: 1.5; stroke-linecap: square"/>
   </g>
   <g id="patch_9">
    <path d="M 560.238207 417.692625 
L 560.238207 29.612625 
" style="fill: none; stroke: #000000; stroke-width: 0.8; stroke-linejoin: miter; stroke-linecap: square"/>
   </g>
   <g id="patch_10">
    <path d="M 924.15125 417.692625 
L 924.15125 29.612625 
" style="fill: none; stroke: #000000; stroke-width: 0.8; stroke-linejoin: miter; stroke-linecap: square"/>
   </g>
   <g id="patch_11">
    <path d="M 560.238207 417.692625 
L 924.15125 417.692625 
" style="fill: none; stroke: #000000; stroke-width: 0.8; stroke-linejoin: miter; stroke-linecap: square"/>
   </g>
   <g id="patch_12">
    <path d="M 560.238207 29.612625 
L 924.15125 29.612625 
" style="fill: none; stroke: #000000; stroke-width: 0.8; stroke-linejoin: miter; stroke-linecap: square"/>
   </g>
   <g id="text_41">
    <!-- Normalized Distributions -->
    <g transform="translate(608.883916 23.612625) scale(0.216 -0.216)">
     <use xlink:href="#DejaVuSans-4e"/>
     <use xlink:href="#DejaVuSans-6f" transform="translate(74.804688 0)"/>
     <use xlink:href="#DejaVuSans-72" transform="translate(135.986328 0)"/>
     <use xlink:href="#DejaVuSans-6d" transform="translate(175.349609 0)"/>
     <use xlink:href="#DejaVuSans-61" transform="translate(272.761719 0)"/>
     <use xlink:href="#DejaVuSans-6c" transform="translate(334.041016 0)"/>
     <use xlink:href="#DejaVuSans-69" transform="translate(361.824219 0)"/>
     <use xlink:href="#DejaVuSans-7a" transform="translate(389.607422 0)"/>
     <use xlink:href="#DejaVuSans-65" transform="translate(442.097656 0)"/>
     <use xlink:href="#DejaVuSans-64" transform="translate(503.621094 0)"/>
     <use xlink:href="#DejaVuSans-20" transform="translate(567.097656 0)"/>
     <use xlink:href="#DejaVuSans-44" transform="translate(598.884766 0)"/>
     <use xlink:href="#DejaVuSans-69" transform="translate(675.886719 0)"/>
     <use xlink:href="#DejaVuSans-73" transform="translate(703.669922 0)"/>
     <use xlink:href="#DejaVuSans-74" transform="translate(755.769531 0)"/>
     <use xlink:href="#DejaVuSans-72" transform="translate(794.978516 0)"/>
     <use xlink:href="#DejaVuSans-69" transform="translate(836.091797 0)"/>
     <use xlink:href="#DejaVuSans-62" transform="translate(863.875 0)"/>
     <use xlink:href="#DejaVuSans-75" transform="translate(927.351562 0)"/>
     <use xlink:href="#DejaVuSans-74" transform="translate(990.730469 0)"/>
     <use xlink:href="#DejaVuSans-69" transform="translate(1029.939453 0)"/>
     <use xlink:href="#DejaVuSans-6f" transform="translate(1057.722656 0)"/>
     <use xlink:href="#DejaVuSans-6e" transform="translate(1118.904297 0)"/>
     <use xlink:href="#DejaVuSans-73" transform="translate(1182.283203 0)"/>
    </g>
   </g>
  </g>
 </g>
 <defs>
  <clipPath id="p5331b2750a">
   <rect x="87.15125" y="29.612625" width="363.913043" height="388.08"/>
  </clipPath>
  <clipPath id="p7d12898f22">
   <rect x="560.238207" y="29.612625" width="363.913043" height="388.08"/>
  </clipPath>
 </defs>
</svg>
