<?xml version="1.0" encoding="UTF-8"?><svg id="Layer_1" xmlns="http://www.w3.org/2000/svg" viewBox="0 0 800 407.67"><defs><style>.cls-1{fill:#73000a;}</style></defs><g><path class="cls-1" d="M86.81,347.94c3.19,3.7,8.44,6.69,14.2,6.69,8.02,0,12.96-4.94,12.96-12.14,0-6.07-3.91-9.98-10.08-12.76l-12.45-5.76c-7.92-3.6-13.79-8.54-13.79-17.59,0-10.49,9.05-17.59,25.52-21.09,6.89,0,14.51,2.26,19.86,5.97v14.82h-6.07l-2.98-9.36c-2.68-2.88-6.17-5.25-12.14-5.25-7.82,0-12.35,4.22-12.35,10.29,0,5.14,3.6,8.44,8.95,10.91l12.55,5.66c9.57,4.53,15.33,9.67,15.23,19.34,0,10.6-7.82,19.03-26.96,23.36-8.95,0-15.85-2.78-21.61-7l-2.26-15.12h7.92l3.5,9.05Z"/><path class="cls-1" d="M180.82,332.21c0,16.05-10.6,25.71-26.24,28.49-13.48,0-23.05-11.82-23.05-26.12,0-16.26,10.6-25.71,26.24-28.59,13.48,0,23.05,11.82,23.05,26.23Zm-23.36,23.04c6.89,0,10.7-8.53,10.7-19.85,0-14.3-5.76-23.96-13.38-23.96-7,0-10.7,8.53-10.7,19.85,0,13.37,5.56,23.96,13.38,23.96Z"/><path class="cls-1" d="M231.48,345.57c0,4.22,.51,5.86,1.34,7.51h4.73l.41,4.12-14.82,2.78-2.98-8.64-14.71,9.36c-13.07,0-16.15-4.32-16.15-16.36v-29.92l-6.58,.51-.51-4.53,12.86-2.78,6.17-.41v36.91c0,4.94,2.06,7.2,6.79,7.2,2.78,0,6.28-2.06,9.67-4.32l1.95-1.34v-31.26l-5.76,.51-.51-4.53,11.94-2.78,6.17-.41v38.35Z"/><path class="cls-1" d="M291.08,354.01l5.14,1.13-.51,4.12-10.29-.31-12.24,.31-.51-4.12,6.58-1.13v-59.65l-6.69,.21-.51-4.12,13.38-3.09,5.66-.41v28.81l15.33-9.77c12.66,0,15.54,4.42,15.54,17.29v30.74l7.1,1.13-.51,4.12-12.24-.31-10.39,.31-.51-4.12,4.63-1.13v-31.77c0-4.84-2.26-7-6.07-7-2.98,0-6.58,2.16-10.08,4.32l-2.78,1.75v32.7Z"/><g><path class="cls-1" d="M416.35,336.83l-2.37,16.46c-5.86,2.67-14.52,6.28-24.4,7.72-15.64,0-34.7-12.76-34.7-36.63s16.9-36.15,37.27-39.1c10.39,0,18.02,4.32,22.85,7.51v15.54h-6.38l-3.29-9.77c-2.67-3.29-6.6-7.3-15.03-7.3-14.1,0-21.22,10.8-21.22,30.35,0,17.08,6.71,33.23,23.17,33.23,6.38,0,9.37-3.4,12.56-6.28l5.35-11.73h6.17Z"/><path class="cls-1" d="M442.14,305.99c13.68,0,17.59,3.5,17.59,16.15v25.29c0,4.32,.62,6.07,1.65,7.72h5.04l.51,4.12-15.23,1.44-3.29-8.85-12.04,8.85c-9.16,0-15.64-5.14-15.64-13.48,0-4.01,1.54-7,4.01-9.88l23.05-7.51v-8.41c0-6.17-1.03-9.05-5.66-9.05-2.57,0-5.45,.82-7.51,1.75l-1.65,8.95h-10.6v-8.64l19.75-8.44Zm5.66,28.17l-13.07,5.35c-1.54,1.65-2.16,4.01-2.16,6.28,0,5.14,2.88,7,5.56,7s4.73-1.44,6.07-2.37l3.6-2.47v-13.79Z"/><path class="cls-1" d="M487.43,321.93l11.32-15.43h10.28l-2.86,12.04h-7.42c-2.47,.72-6.17,3.81-8.95,7l-1.75,2.06v26.21l10.91,1.03-.51,4.42-16.05-.31-12.14,.31-.51-4.12,6.69-1.13v-39.59l-6.69,.51-.51-4.22,12.86-3.09,4.73-.41,.62,14.71Z"/><path class="cls-1" d="M556.95,332.21c0,16.05-10.6,25.71-26.24,28.49-13.48,0-23.05-11.82-23.05-26.12,0-16.26,10.6-25.71,26.24-28.59,13.48,0,23.05,11.82,23.05,26.23Zm-23.36,23.04c6.89,0,10.7-8.53,10.7-19.85,0-14.3-5.76-23.96-13.38-23.96-7,0-10.7,8.53-10.7,19.85,0,13.37,5.56,23.96,13.38,23.96Z"/><path class="cls-1" d="M570.25,358.95l-12.24,.31-.51-4.12,6.58-1.13v-59.65l-6.69,.21-.51-4.22,13.38-3.09,5.66-.41v67.16l7.1,1.13-.51,4.12-12.24-.31Z"/><path class="cls-1" d="M600.4,358.95l-12.24,.31-.51-4.12,6.69-1.13v-39.69l-6.69,.41-.51-4.12,13.38-2.98,5.66-.41v46.79l7,1.13-.51,4.12-12.24-.31Zm-5.56-70.99l8.44-.62,3.09,.62,.62,6.28-1.23,5.35-8.33,.62-3.09-.62-.62-6.28,1.13-5.35Z"/><path class="cls-1" d="M630.83,358.95l-12.24,.31-.51-4.12,6.69-1.13v-39.59l-6.79,.51-.51-4.22,13.38-3.09,5.25-.31,.31,8.54,15.43-9.88c12.65,0,15.64,4.01,15.64,16.36v31.67l7.1,1.13-.51,4.12-12.24-.31-10.6,.31-.51-4.12,4.73-1.13v-31.77c0-4.84-2.16-7-6.17-7-3.4,0-6.69,2.16-9.98,4.32l-2.67,1.85v32.59l5.04,1.13-.51,4.12-10.29-.31Z"/><path class="cls-1" d="M697.81,305.99c13.68,0,17.59,3.5,17.59,16.15v25.29c0,4.32,.62,6.07,1.65,7.72h5.04l.51,4.12-15.23,1.44-3.29-8.85-12.04,8.85c-9.16,0-15.64-5.14-15.64-13.48,0-4.01,1.54-7,4.01-9.88l23.05-7.51v-8.41c0-6.17-1.03-9.05-5.66-9.05-2.57,0-5.45,.82-7.51,1.75l-1.65,8.95h-10.6v-8.64l19.75-8.44Zm5.66,28.17l-13.07,5.35c-1.54,1.65-2.16,4.01-2.16,6.28,0,5.14,2.88,7,5.56,7s4.73-1.44,6.07-2.37l3.6-2.47v-13.79Z"/></g><path class="cls-1" d="M269.34,350.58c-2.17,1.01-4.1,1.68-6.5,1.68-3.91,0-5.35-2.98-5.35-6.28v-33.72h11.86v-5.04h-11.96v-12.65h-3.6l-7.92,7.1v4.94h-4.64l-3.81,3.91v1.75h8.24v34.75c0,9.98,4.12,13.68,14.51,13.68l8.51-4.65,.67-5.47Z"/></g><g><path d="M454.88,151.48v-12.82s-14.08-17.19-33.76-17.19c-15.07,0-22.01,8.85-22.01,8.85,0,0-6.94-8.85-22.01-8.85-19.69,0-33.76,17.19-33.76,17.19v12.82s16.06-26.09,39.48-26.09c8.85,0,16.29,7.92,16.29,7.92,0,0,7.44-7.92,16.29-7.92,23.42,0,39.48,26.09,39.48,26.09Zm-46.44,19.4h.04l4.01-9.72h-4.01l4.01-9.72h-4.01l3.22-7.81c7.99,2.96,13.56,14.25,13.56,14.25v-9.37c-6.6-9.07-17.31-6.8-17.31-6.8l-4.01,9.72h4.01l-4.01,9.72h4.01l-4.01,9.72h-.11v34.49l6.67,10.67h4.86l-6.55-11.15h10.14v-2.4h-10.51v-31.61Zm-.23-36.69c23.72,0,30.97,22.61,30.97,22.61v-12.08c-7.77-10.01-15.19-11.99-21.8-12.08-5.24-.07-9.18,1.54-9.18,1.54Zm38.68,31.6l1.99-4.61h-25.93l1.99,4.61h21.96Zm36.56,22.05v4.38h-8.97v-10.51h-4.61v10.51h-8.97v-16.74h-4.61v16.74h-9.39v-23.25h-22v47.23h4.61v-42.62h12.77v42.62h4.61v-21.58h9.39v21.58h4.61v-21.58h8.97v21.58h4.61v-21.58h8.97v21.58h4.61v-28.36h-4.61Zm-84.33-93.68c0-2.79,11.69-26.64,32.12-32.42v-10.93c-15.33,3.9-32.12,29.74-32.12,39.96,0-10.22-16.79-36.05-32.12-39.96v10.93c20.43,5.78,32.12,29.63,32.12,32.42Zm0,11.77s13.76-28.09,49.89-28.09v-11.1c-34.16,0-49.89,34.85-49.89,34.85,0,0-15.73-34.85-49.89-34.85v11.1c36.14,0,49.89,28.09,49.89,28.09Zm-8.83,55.24h4.01l-4.01-9.72h4.01l-4.01-9.72s-10.71-2.27-17.31,6.8v9.37s5.57-11.3,13.56-14.25l3.22,7.81h-4.01l4.01,9.72h-4.01l4.01,9.72h.04v31.61h-10.51v2.4h10.14l-6.55,11.15h4.86l6.67-10.67v-34.49h-.11l-4.01-9.72Zm-30.06-63.63c22.7,0,38.89,18.9,38.89,18.9,0,0,16.18-18.9,38.89-18.9,12.9,0,21.61,5.61,21.61,5.61l.04-12.46s-9.32-2.91-17.04-2.91c-29.4,0-43.49,25.23-43.49,25.23,0,0-14.09-25.23-43.49-25.23-7.73,0-17.04,2.91-17.04,2.91l.04,12.46s8.71-5.61,21.61-5.61Zm38.89-18.91s.26-17,14.52-23.95c.08-5.55,.08-9.68,.08-9.68-14.11,7.13-14.6,25.83-14.6,25.83,0,0-.49-18.7-14.6-25.83,0,0,0,4.13,.08,9.68,14.27,6.95,14.52,23.95,14.52,23.95Zm-47.77,87.18h21.96l1.99-4.61h-25.93l1.99,4.61Zm29.5-33.14c-6.6,.09-14.03,2.07-21.8,12.08v12.08s7.25-22.61,30.97-22.61c0,0-3.94-1.61-9.18-1.54Zm-7.67-19.65c16.32-.05,25.94,11.89,25.94,11.89,0,0,9.62-11.94,25.94-11.89,23.6,.2,40.92,21.52,40.92,21.52v-15.47s-14.07-11.89-36.17-11.89c-20,0-30.69,14.69-30.69,14.69,0,0-10.69-14.69-30.69-14.69-22.1,0-36.17,11.89-36.17,11.89v15.47s17.32-21.32,40.92-21.52Zm-21.83,79.21h-9.39v-16.74h-4.61v16.74h-8.97v-10.51h-4.61v10.51h-8.97v-4.38h-4.61v28.36h4.61v-21.58h8.97v21.58h4.61v-21.58h8.97v21.58h4.61v-21.58h9.39v21.58h4.61v-42.62h12.77v42.62h4.61v-47.23h-22v23.25Z"/><path d="M493.8,215.94l.82-.09v-3.99l-.93,.02-.37,1.01h-.39v-1.46l2.3,.03,2.22-.03v1.46h-.38l-.38-1.01-.92-.02v3.99l.79,.09-.04,.37-1.33-.02-1.36,.02-.04-.37Zm4.04,0l.57-.09v-3.98l-.58-.09,.04-.35,.71,.03,1.23-.03,1.41,3.39v.62l1.56-4,1.03,.03,.83-.03,.04,.35-.57,.09v3.98l.55,.09-.04,.37-1.07-.02-1.11,.02-.04-.37,.58-.09v-3.17l.11-.84-1.74,4.46h-.71l-1.46-3.55-.21-.86v3.97l.57,.09-.04,.37-.82-.02-.82,.02-.04-.37Z"/></g><g><path d="M238.56,245.94l.2-1.6,5.12,.12,4.64-.12,.2,1.6-3.32,.52v16.01c0,5.24-2.12,8.76-10.09,10.65-8.4,0-11.37-4.28-11.37-10.65v-16.01s-3.4-.52-3.4-.52l.2-1.6,5.48,.12,5.88-.12,.2,1.6-3.16,.52v16.37c0,4.88,2.08,7.72,6.52,7.72,4.12,0,6.36-2.84,6.36-7.84v-16.25s-3.48-.52-3.48-.52Z"/><path d="M261.29,270.31l3.2,.52-.16,1.6-4.32-.12-4.72,.12-.2-1.6,3.4-.52v-23.65s-3.28-.72-3.28-.72l.2-1.6,3.52,.12,3.56-.12,13.49,18.33,.96,2.84v-19.05s-3.2-.52-3.2-.52l.16-1.6,4.32,.12,4.72-.12,.2,1.6-3.4,.52v26.01s-2.72,0-2.72,0l-14.93-20.77-.8-3.16v21.77Z"/><path d="M295.38,272.32l-5.72,.12-.2-1.64,3.4-.52v-23.81s-3.4-.52-3.4-.52l.2-1.6,5.72,.12,5.72-.12,.2,1.6-3.4,.52v23.81s3.4,.52,3.4,.52l-.2,1.64-5.72-.12Z"/><path d="M320.51,273.04l-10.13-26.62-2.92-.48,.2-1.6,6.2,.12,5.08-.12,.2,1.6-3.2,.52,6.84,19.09,.12,2.4,7.6-21.49-3.32-.52,.2-1.6,4.52,.12,4.16-.12,.2,1.6-2.84,.48-9.77,25.65-3.16,.96Z"/><path d="M362.86,244.34l.4,7.4h-1.64s-2.32-5.2-2.32-5.2l-10.05-.12v10.33s5.16-.16,5.16-.16l1.6-4.24h1.68s-.4,5.2-.4,5.2l.4,5.52h-1.68s-1.6-4.24-1.6-4.24l-5.16-.16v11.69s10.49-.12,10.49-.12l2.68-5.4h1.8s-1.36,7.6-1.36,7.6l-16.33-.12-5.52,.12-.2-1.6,3.4-.52v-23.85s-3.4-.52-3.4-.52l.2-1.6,5.52,.12,16.33-.12Z"/><path d="M378.67,259.59v10.73s3.24,.52,3.24,.52l-.2,1.6-5.56-.12-5.72,.12-.2-1.6,3.4-.52v-23.85s-3.4-.52-3.4-.52l.2-1.6,5.72,.12,8-.12c5.04-.04,9,2.28,9,6.96,0,4.44-4.12,6.68-8.48,7.68l3.44,1.8,6.48,9.49,2.04,.6-.16,1.56-3.76-.12-3,.12-8.16-12.41-.48-.44h-2.4Zm0-2.04h2.72c3.68,0,6.24-2.4,6.24-5.96,0-3.6-2.36-5.4-5.4-5.44l-3.56,.28v11.13Z"/><path d="M405.25,268.03c1.24,1.44,3.28,2.6,5.52,2.6,3.12,0,5.04-1.92,5.04-4.72,0-2.36-1.52-3.88-3.92-4.96l-4.84-2.24c-3.08-1.4-5.36-3.32-5.36-6.84,0-4.08,3.52-6.84,9.93-8.2,2.68,0,5.64,.88,7.72,2.32v5.76s-2.36,0-2.36,0l-1.16-3.64c-1.04-1.12-2.4-2.04-4.72-2.04-3.04,0-4.8,1.64-4.8,4,0,2,1.4,3.28,3.48,4.24l4.88,2.2c3.72,1.76,5.96,3.76,5.92,7.52,0,4.12-3.04,7.4-10.49,9.09-3.48,0-6.16-1.08-8.4-2.72l-.88-5.88h3.08s1.36,3.52,1.36,3.52Z"/><path d="M432.75,272.32l-5.72,.12-.2-1.64,3.4-.52v-23.81s-3.4-.52-3.4-.52l.2-1.6,5.72,.12,5.72-.12,.2,1.6-3.4,.52v23.81s3.4,.52,3.4,.52l-.2,1.64-5.72-.12Z"/><path d="M463.51,272.44l-6.76-.12-6.92,.12-.2-1.6,4.6-.52v-23.85s-5.52,.08-5.52,.08l-1.92,5.32h-1.76v-7.52s11.81,.12,11.81,.12l11.65-.12v7.52s-1.8,0-1.8,0l-1.88-5.32-5.52-.08v23.85s4.44,.52,4.44,.52l-.2,1.6Z"/><path d="M491.16,261.47l.04,8.85,4.48,.52-.2,1.6-6.8-.12-6.96,.12-.2-1.6,4.64-.52v-8.97s-8.85-14.97-8.85-14.97l-2.92-.48,.2-1.56,5.68,.12,5.56-.12,.2,1.56-3.2,.52,6.68,11.29,.2,1.72,6.96-13.01-3.28-.52,.2-1.56,4.6,.12,4.28-.12,.2,1.56-2.92,.44-8.6,15.13Z"/><path d="M550.86,257.75c0,8.85-4.44,13.57-14.81,15.37-8.36,0-13.93-6-13.93-14.09,0-8.85,4.44-13.57,14.81-15.37,8.36,0,13.93,6,13.93,14.09Zm-13.81,12.97c5.8,0,8.28-5.08,8.28-11.65,0-5.88-2.56-13.01-9.37-13.01-5.8,0-8.32,5.04-8.32,11.61,0,6.04,2.64,13.05,9.41,13.05Z"/><path d="M556.86,272.44l-.2-1.6,3.4-.52v-23.85s-3.4-.52-3.4-.52l.2-1.6,5.52,.12,16.33-.12,.4,7.52h-1.64s-2.32-5.32-2.32-5.32l-10.05-.12v10.89s5.16-.16,5.16-.16l1.6-4.2h1.68s-.4,5.2-.4,5.2l.4,5.52h-1.68s-1.6-4.24-1.6-4.24l-5.16-.16v11.05s4.8,.52,4.8,.52l-.2,1.6-7.32-.12-5.52,.12Z"/></g></svg>